# Blender v3.3.0 OBJ File: ''
# www.blender.org
mtllib air_strike.mtl
o Cube.001
v 0.246103 -0.146977 -0.212012
v 0.246103 -0.054339 -0.212012
v 0.246103 -0.054339 0.240194
v 0.246103 -0.146977 0.240194
v 0.226103 -0.146977 0.260194
v 0.226103 -0.054339 0.260194
v -0.226103 -0.054339 0.260194
v -0.226103 -0.146977 0.260194
v -0.246103 -0.146977 0.240194
v -0.246103 -0.054339 0.240194
v -0.246103 -0.054339 -0.212012
v -0.246103 -0.146977 -0.212012
v -0.226103 -0.146977 -0.232012
v -0.226103 -0.054339 -0.232012
v 0.226103 -0.054339 -0.232012
v 0.226103 -0.146977 -0.232012
v 0.226358 -0.034339 -0.212267
v 0.226358 -0.034339 0.240449
v 0.246103 -0.034339 0.260194
v 0.246103 -0.034339 -0.232012
v -0.226358 -0.034339 0.240449
v -0.246103 -0.034339 0.260194
v -0.226358 -0.034339 -0.212267
v -0.246103 -0.034339 -0.232012
v 0.223468 -0.096745 -0.209377
v 0.223468 -0.096745 0.237559
v -0.223468 -0.096745 0.237559
v -0.223468 -0.096745 -0.209377
v -0.181199 -0.060054 0.195290
v 0.181199 -0.060054 0.195290
v 0.181199 -0.060054 0.153215
v -0.181199 -0.060054 0.153215
v 0.176388 -0.054255 0.121201
v -0.176388 -0.054255 0.121201
v -0.197367 -0.068005 0.137046
v 0.197367 -0.068005 0.137046
v -0.176388 0.097779 -0.097407
v 0.176388 0.097779 -0.097407
v 0.197367 0.101354 -0.113252
v -0.197367 0.101354 -0.113252
v 0.246103 -0.166977 0.260194
v -0.246103 -0.166977 0.260194
v -0.246103 -0.166977 -0.232012
v 0.246103 -0.166977 -0.232012
v 0.172774 -0.062401 -0.129316
v 0.172774 0.032938 -0.129312
v -0.197367 -0.140130 -0.183276
v 0.015166 -0.062401 -0.129316
v 0.197367 -0.140130 -0.183276
v 0.197367 -0.140130 0.211458
v 0.197367 -0.068005 0.211458
v -0.197367 -0.068005 0.211458
v -0.197367 -0.140130 0.211458
v 0.197367 -0.140130 0.137046
v -0.197367 -0.140130 0.137046
v 0.015166 0.032938 -0.129312
v -0.211992 -0.094742 -0.210007
v -0.211992 0.525701 -0.204630
v -0.201212 -0.094742 -0.205542
v -0.205014 0.525701 -0.201740
v -0.196746 -0.094742 -0.194762
v -0.202123 0.525701 -0.194762
v -0.201212 -0.094742 -0.183982
v -0.205014 0.525701 -0.187784
v -0.211992 -0.094742 -0.179517
v -0.211992 0.525701 -0.184894
v -0.222772 -0.094742 -0.183982
v -0.218970 0.525701 -0.187784
v -0.227237 -0.094742 -0.194762
v -0.221860 0.525701 -0.194762
v -0.222772 -0.094742 -0.205542
v -0.218970 0.525701 -0.201740
v -0.201212 0.081431 -0.205542
v -0.211992 0.081431 -0.210007
v -0.196746 0.081431 -0.194762
v -0.201212 0.081431 -0.183982
v -0.211992 0.081431 -0.179517
v -0.222772 0.081431 -0.183982
v -0.227237 0.081431 -0.194762
v -0.222772 0.081431 -0.205542
v -0.204278 0.081431 -0.202476
v -0.211992 0.081431 -0.205671
v -0.201083 0.081431 -0.194762
v -0.204278 0.081431 -0.187048
v -0.211992 0.081431 -0.183853
v -0.219706 0.081431 -0.187048
v -0.222901 0.081431 -0.194762
v -0.219706 0.081431 -0.202476
v -0.200405 0.536200 -0.206349
v -0.211992 0.536200 -0.211149
v -0.195605 0.536200 -0.194762
v -0.200405 0.536200 -0.183175
v -0.211992 0.536200 -0.178375
v -0.223579 0.536200 -0.183175
v -0.228378 0.536200 -0.194762
v -0.223579 0.536200 -0.206349
v -0.200405 0.553821 -0.206349
v -0.211992 0.553821 -0.211149
v -0.195605 0.553821 -0.194762
v -0.200405 0.553821 -0.183175
v -0.211992 0.553821 -0.178375
v -0.223579 0.553821 -0.183175
v -0.228378 0.553821 -0.194762
v -0.223579 0.553821 -0.206349
v -0.205080 0.566711 -0.201674
v -0.211992 0.566711 -0.204537
v -0.202217 0.566711 -0.194762
v -0.205080 0.566711 -0.187850
v -0.211992 0.566711 -0.184987
v -0.218904 0.566711 -0.187850
v -0.221767 0.566711 -0.194762
v -0.218904 0.566711 -0.201674
v -0.206701 0.590774 -0.200052
v -0.211992 0.590774 -0.202244
v -0.204510 0.590774 -0.194762
v -0.206701 0.590774 -0.189472
v -0.211992 0.590774 -0.187280
v -0.217282 0.590774 -0.189472
v -0.219474 0.590774 -0.194762
v -0.217282 0.590774 -0.200052
v -0.206307 -0.040785 -0.208503
v 0.029439 -0.040785 -0.208503
v -0.206307 -0.072712 -0.208446
v 0.029439 -0.072712 -0.208446
v -0.206307 -0.095247 -0.185829
v 0.029439 -0.095247 -0.185829
v -0.206307 -0.095189 -0.153902
v 0.029439 -0.095189 -0.153902
v -0.206307 -0.072572 -0.131367
v 0.029439 -0.072572 -0.131367
v -0.206307 -0.040645 -0.131425
v 0.029439 -0.040645 -0.131425
v -0.206307 -0.004411 -0.154041
v 0.029439 -0.004411 -0.154041
v -0.206307 -0.004469 -0.185969
v 0.029439 -0.004469 -0.185969
v 0.197367 -0.069819 -0.129318
v 0.197367 0.100224 -0.129311
v -0.197367 -0.069819 -0.129318
v -0.197367 0.100224 -0.129311
v 0.172774 -0.062398 -0.205869
v 0.172774 0.032942 -0.205865
v 0.015166 -0.062398 -0.205869
v 0.015166 0.032942 -0.205865
vt 0.750000 0.490000
vt 0.919706 0.419706
vt 0.990000 0.250000
vt 0.919706 0.080294
vt 0.750000 0.010000
vt 0.580294 0.080294
vt 0.510000 0.250000
vt 0.580294 0.419706
vt 1.000000 0.500000
vt 1.000000 1.000000
vt 0.875000 1.000000
vt 0.875000 0.500000
vt 0.390896 0.010158
vt 0.609104 0.010158
vt 0.609104 0.239842
vt 0.390896 0.239842
vt 0.390896 0.260158
vt 0.609104 0.260158
vt 0.609104 0.489842
vt 0.390896 0.489842
vt 0.390896 0.510158
vt 0.609104 0.510158
vt 0.609104 0.739842
vt 0.390896 0.739842
vt 0.390896 0.760158
vt 0.609104 0.760158
vt 0.609104 0.989842
vt 0.390896 0.989842
vt 0.864971 0.739971
vt 0.864971 0.510029
vt 0.875000 0.500000
vt 0.875000 0.750000
vt 0.635029 0.510029
vt 0.625000 0.500000
vt 0.635029 0.739971
vt 0.625000 0.750000
vt 0.863503 0.738503
vt 0.863503 0.511497
vt 0.636497 0.511497
vt 0.636497 0.738503
vt 0.385240 0.010240
vt 0.614760 0.010240
vt 0.614760 0.114760
vt 0.385240 0.114760
vt 0.611713 0.125000
vt 0.388287 0.125000
vt 0.375000 0.125000
vt 0.625000 0.125000
vt 0.388287 0.125000
vt 0.611713 0.125000
vt 0.625000 0.125000
vt 0.375000 0.125000
vt 1.000000 0.500000
vt 1.000000 1.000000
vt 0.875000 1.000000
vt 0.875000 0.500000
vt 0.750000 1.000000
vt 0.750000 0.500000
vt 0.625000 1.000000
vt 0.625000 0.500000
vt 0.500000 1.000000
vt 0.500000 0.500000
vt 0.375000 1.000000
vt 0.375000 0.500000
vt 0.250000 1.000000
vt 0.250000 0.500000
vt 0.125000 1.000000
vt 0.125000 0.500000
vt 0.000000 1.000000
vt 0.000000 0.500000
vt 0.250000 0.421734
vt 0.371434 0.371434
vt 0.419706 0.419706
vt 0.250000 0.490000
vt 0.421734 0.250000
vt 0.490000 0.250000
vt 0.371434 0.128566
vt 0.419706 0.080294
vt 0.250000 0.078266
vt 0.250000 0.010000
vt 0.128566 0.128566
vt 0.080294 0.080294
vt 0.078266 0.250000
vt 0.010000 0.250000
vt 0.128566 0.371434
vt 0.080294 0.419706
vt 0.250000 0.405354
vt 0.359852 0.359851
vt 0.405354 0.250000
vt 0.359852 0.140149
vt 0.250000 0.094646
vt 0.140149 0.140149
vt 0.094646 0.250000
vt 0.140149 0.359852
vt 0.359852 0.359851
vt 0.250000 0.405354
vt 0.250000 0.405354
vt 0.359852 0.359851
vt 0.140149 0.359852
vt 0.140149 0.359852
vt 0.094646 0.250000
vt 0.140149 0.140149
vt 0.140149 0.140149
vt 0.094646 0.250000
vt 0.250000 0.094646
vt 0.359852 0.140149
vt 0.359852 0.140149
vt 0.250000 0.094646
vt 0.405354 0.250000
vt 0.405354 0.250000
vt 0.359852 0.359851
vt 0.250000 0.405354
vt 0.140149 0.359852
vt 0.094646 0.250000
vt 0.140149 0.140149
vt 0.250000 0.094646
vt 0.359852 0.140149
vt 0.405354 0.250000
vt 0.375000 0.250000
vt 0.625000 0.250000
vt 0.375000 0.500000
vt 0.375000 0.750000
vt 0.625000 1.000000
vt 0.375000 1.000000
vt 0.375000 0.000000
vt 0.625000 0.000000
vt 0.625000 0.875000
vt 0.625000 0.750000
vt 0.625000 0.750000
vt 0.625000 0.875000
vt 0.375000 0.250000
vt 0.625000 0.250000
vt 0.625000 0.500000
vt 0.375000 0.500000
vt 0.375000 0.500000
vt 0.625000 0.500000
vt 0.625000 0.750000
vt 0.375000 0.750000
vt 0.375000 0.875000
vt 0.625000 1.000000
vt 0.375000 1.000000
vt 0.625000 0.500000
vt 0.875000 0.500000
vt 0.875000 0.625000
vt 0.625000 0.625000
vt 0.875000 0.750000
vt 0.625000 0.750000
vt 0.375000 0.750000
vt 0.625000 0.250000
vt 0.375000 0.250000
vt 0.625000 0.265575
vt 0.625000 0.484425
vt 0.625000 0.484425
vt 0.625000 0.265575
vt 0.875000 0.625000
vt 0.875000 0.750000
vt 0.375000 0.000000
vt 0.625000 0.000000
vt 0.250000 0.405354
vt 0.359852 0.359851
vt 0.140149 0.359852
vt 0.140149 0.140149
vt 0.094646 0.250000
vt 0.359852 0.140149
vt 0.250000 0.094646
vt 0.405354 0.250000
vt 0.750000 1.000000
vt 0.750000 0.500000
vt 0.625000 1.000000
vt 0.625000 0.500000
vt 0.500000 1.000000
vt 0.500000 0.500000
vt 0.375000 1.000000
vt 0.375000 0.500000
vt 0.250000 1.000000
vt 0.250000 0.500000
vt 0.419706 0.419706
vt 0.250000 0.490000
vt 0.080294 0.419706
vt 0.010000 0.250000
vt 0.080294 0.080294
vt 0.250000 0.010000
vt 0.419706 0.080294
vt 0.490000 0.250000
vt 0.125000 1.000000
vt 0.125000 0.500000
vt 0.000000 1.000000
vt 0.000000 0.500000
vt 0.750000 0.490000
vt 0.919706 0.419706
vt 0.990000 0.250000
vt 0.919706 0.080294
vt 0.750000 0.010000
vt 0.580294 0.080294
vt 0.510000 0.250000
vt 0.580294 0.419706
vt 0.625000 0.484424
vt 0.625000 0.500000
vt 0.625000 0.265575
vt 0.625000 0.250000
vt 0.625000 0.484424
vt 0.625000 0.265575
vn 0.0000 -1.0000 0.0000
vn 0.0000 -0.0018 -1.0000
vn 1.0000 0.0000 -0.0000
vn 0.0000 0.0000 1.0000
vn -1.0000 0.0000 0.0000
vn -0.0000 -0.0000 -1.0000
vn -0.0000 1.0000 -0.0000
vn -0.9989 0.0463 -0.0000
vn -0.0000 0.0463 -0.9989
vn 0.9989 0.0463 -0.0000
vn 0.0000 0.0463 0.9989
vn 0.0000 0.7553 0.6554
vn 0.0000 0.9755 0.2201
vn 0.1961 0.8088 0.5544
vn -0.1961 0.8088 0.5544
vn 0.3827 -0.0000 -0.9239
vn 0.9239 0.0000 -0.3827
vn 0.9239 0.0000 0.3827
vn 0.3827 0.0000 0.9239
vn -0.3827 0.0000 0.9239
vn -0.9239 0.0000 0.3827
vn -0.9239 0.0000 -0.3827
vn -0.3827 -0.0000 -0.9239
vn 0.3827 0.0022 -0.9239
vn 0.9239 0.0022 -0.3827
vn 0.9239 0.0022 0.3827
vn 0.3827 0.0022 0.9239
vn -0.3827 0.0022 0.9239
vn -0.9239 0.0022 0.3827
vn -0.9239 0.0022 -0.3827
vn -0.3827 0.0022 -0.9239
vn 0.3458 0.4282 -0.8349
vn -0.3458 0.4282 -0.8349
vn -0.8349 0.4282 0.3458
vn 0.3458 0.4282 0.8349
vn 0.8349 0.4282 -0.3458
vn -0.8349 0.4282 -0.3458
vn -0.3458 0.4282 0.8349
vn 0.8349 0.4282 0.3458
vn -0.0000 0.6088 -0.7933
vn 0.0000 0.9975 -0.0702
vn -0.4413 0.8974 -0.0000
vn -0.0000 0.8974 -0.4413
vn 0.4413 0.8974 -0.0000
vn 0.0000 0.8974 0.4413
vn 0.3320 -0.4975 -0.8014
vn -0.3320 -0.4975 -0.8014
vn -0.8014 -0.4975 0.3320
vn 0.3320 -0.4975 0.8014
vn 0.8014 -0.4975 -0.3320
vn -0.8014 -0.4975 -0.3320
vn -0.3320 -0.4975 0.8014
vn 0.8014 -0.4975 0.3320
vn 0.0000 -0.7084 -0.7058
vn 0.0000 -1.0000 0.0018
vn 0.0000 -0.7058 0.7084
vn 0.0000 0.0018 1.0000
vn 0.0000 0.5295 0.8483
vn 0.0000 1.0000 -0.0018
vn 0.0000 0.5273 -0.8497
vn -0.0001 0.0000 -1.0000
vn 0.0000 0.0002 -1.0000
vn 0.0000 0.8210 0.5710
vn -0.9203 0.0877 -0.3812
vn -0.3812 0.0877 0.9203
vn 0.9203 0.0877 0.3812
vn 0.3812 0.0877 -0.9203
vn -0.3812 0.0877 -0.9203
vn -0.9203 0.0877 0.3812
vn 0.3812 0.0877 0.9203
vn 0.9203 0.0877 -0.3812
usemtl Material.004
s off
f 57/1/1 59/2/1 61/3/1 63/4/1 65/5/1 67/6/1 69/7/1 71/8/1
f 121/9/2 122/10/2 124/11/2 123/12/2
s 1
f 1/13/3 2/14/3 3/15/3 4/16/3
f 5/17/4 6/18/4 7/19/4 8/20/4
f 9/21/5 10/22/5 11/23/5 12/24/5
f 13/25/6 14/26/6 15/27/6 16/28/6
f 17/29/7 18/30/7 19/31/7 20/32/7
f 18/30/7 21/33/7 22/34/7 19/31/7
f 21/33/7 23/35/7 24/36/7 22/34/7
f 23/35/7 17/29/7 20/32/7 24/36/7
f 25/37/8 26/38/8 18/30/8 17/29/8
f 26/38/9 27/39/9 21/33/9 18/30/9
f 27/39/10 28/40/10 23/35/10 21/33/10
f 28/40/11 25/37/11 17/29/11 23/35/11
usemtl Material.005
s off
f 29/41/7 30/42/7 31/43/7 32/44/7
f 33/45/12 34/46/12 35/47/12 36/48/12
f 37/49/13 38/50/13 39/51/13 40/52/13
f 38/50/14 33/45/14 36/48/14 39/51/14
f 34/46/15 37/49/15 40/52/15 35/47/15
f 57/53/16 74/54/16 73/55/16 59/56/16
f 59/56/17 73/55/17 75/57/17 61/58/17
f 61/58/18 75/57/18 76/59/18 63/60/18
f 63/60/19 76/59/19 77/61/19 65/62/19
f 65/62/20 77/61/20 78/63/20 67/64/20
f 67/64/21 78/63/21 79/65/21 69/66/21
f 69/66/22 79/65/22 80/67/22 71/68/22
f 71/68/23 80/67/23 74/69/23 57/70/23
f 82/71/7 81/72/7 73/73/7 74/74/7
f 81/72/7 83/75/7 75/76/7 73/73/7
f 83/75/7 84/77/7 76/78/7 75/76/7
f 84/77/7 85/79/7 77/80/7 76/78/7
f 85/79/7 86/81/7 78/82/7 77/80/7
f 86/81/7 87/83/7 79/84/7 78/82/7
f 87/83/7 88/85/7 80/86/7 79/84/7
f 88/85/7 82/71/7 74/74/7 80/86/7
f 58/87/24 60/88/24 81/72/24 82/71/24
f 60/88/25 62/89/25 83/75/25 81/72/25
f 62/89/26 64/90/26 84/77/26 83/75/26
f 64/90/27 66/91/27 85/79/27 84/77/27
f 66/91/28 68/92/28 86/81/28 85/79/28
f 68/92/29 70/93/29 87/83/29 86/81/29
f 70/93/30 72/94/30 88/85/30 87/83/30
f 72/94/31 58/87/31 82/71/31 88/85/31
f 97/95/32 98/96/32 106/97/32 105/98/32
f 98/96/33 104/99/33 112/100/33 106/97/33
f 103/101/34 102/102/34 110/103/34 111/104/34
f 101/105/35 100/106/35 108/107/35 109/108/35
f 99/109/36 97/95/36 105/98/36 107/110/36
f 104/99/37 103/101/37 111/104/37 112/100/37
f 102/102/38 101/105/38 109/108/38 110/103/38
f 100/106/39 99/109/39 107/110/39 108/107/39
f 113/111/7 114/112/7 120/113/7 119/114/7 118/115/7 117/116/7 116/117/7 115/118/7
s 1
f 6/18/4 5/17/4 41/119/4 19/120/4
f 5/17/4 8/20/4 42/121/4 41/119/4
f 7/19/4 6/18/4 19/120/4 22/34/4
f 8/20/4 7/19/4 22/34/4 42/121/4
f 10/22/5 9/21/5 42/121/5 22/34/5
f 9/21/5 12/24/5 43/122/5 42/121/5
f 11/23/5 10/22/5 22/34/5 24/36/5
f 12/24/5 11/23/5 24/36/5 43/122/5
f 16/28/6 15/27/6 20/123/6 44/124/6
f 14/26/6 13/25/6 43/122/6 24/36/6
f 13/25/6 16/28/6 44/124/6 43/122/6
f 15/27/6 14/26/6 24/36/6 20/123/6
f 1/13/3 4/16/3 41/119/3 44/125/3
f 2/14/3 1/13/3 44/125/3 20/126/3
f 3/15/3 2/14/3 20/126/3 19/120/3
f 4/16/3 3/15/3 19/120/3 41/119/3
usemtl Material.007
s off
f 36/127/3 137/128/3 138/129/3 39/130/3
f 47/131/40 139/132/40 137/133/40 49/134/40
f 50/135/4 51/136/4 52/137/4 53/138/4
f 54/139/3 36/127/3 51/140/3 50/141/3
f 53/142/5 52/143/5 35/144/5 55/145/5
f 55/145/5 35/144/5 139/146/5 47/147/5
f 49/148/3 137/128/3 36/127/3 54/139/3
f 40/52/41 39/51/41 138/149/41 140/150/41
f 56/151/7 46/152/7 142/153/7 144/154/7
f 139/146/5 35/144/5 40/155/5 140/156/5
f 29/41/42 32/44/42 35/47/42 52/157/42
f 32/44/43 31/43/43 36/48/43 35/47/43
f 31/43/44 30/42/44 51/158/44 36/48/44
f 30/42/45 29/41/45 52/157/45 51/158/45
f 60/88/46 58/87/46 90/159/46 89/160/46
f 58/87/47 72/94/47 96/161/47 90/159/47
f 70/93/48 68/92/48 94/162/48 95/163/48
f 66/91/49 64/90/49 92/164/49 93/165/49
f 62/89/50 60/88/50 89/160/50 91/166/50
f 72/94/51 70/93/51 95/163/51 96/161/51
f 68/92/52 66/91/52 93/165/52 94/162/52
f 64/90/53 62/89/53 91/166/53 92/164/53
f 123/12/54 124/11/54 126/167/54 125/168/54
f 125/168/55 126/167/55 128/169/55 127/170/55
f 127/170/56 128/169/56 130/171/56 129/172/56
f 129/172/57 130/171/57 132/173/57 131/174/57
f 131/174/58 132/173/58 134/175/58 133/176/58
f 124/177/3 122/178/3 136/179/3 134/180/3 132/181/3 130/182/3 128/183/3 126/184/3
f 133/176/59 134/175/59 136/185/59 135/186/59
f 135/186/60 136/185/60 122/187/60 121/188/60
f 121/189/5 123/190/5 125/191/5 127/192/5 129/193/5 131/194/5 133/195/5 135/196/5
f 45/197/61 46/152/61 138/198/61 137/133/61
f 48/199/62 45/197/62 137/133/62 139/132/62
f 46/152/6 56/151/6 140/200/6 138/198/6
f 56/151/6 48/199/6 139/132/6 140/200/6
f 141/201/6 143/202/6 144/154/6 142/153/6
f 46/152/3 45/197/3 141/201/3 142/153/3
f 48/199/5 56/151/5 144/154/5 143/202/5
f 45/197/1 48/199/1 143/202/1 141/201/1
s 1
f 27/39/7 26/38/7 25/37/7 28/40/7
usemtl Material.001
s off
f 34/46/63 33/45/63 38/50/63 37/49/63
usemtl Material.002
f 96/161/22 95/163/22 103/101/22 104/99/22
f 94/162/20 93/165/20 101/105/20 102/102/20
f 92/164/18 91/166/18 99/109/18 100/106/18
f 89/160/16 90/159/16 98/96/16 97/95/16
f 90/159/23 96/161/23 104/99/23 98/96/23
f 95/163/21 94/162/21 102/102/21 103/101/21
f 93/165/19 92/164/19 100/106/19 101/105/19
f 91/166/17 89/160/17 97/95/17 99/109/17
f 112/100/64 111/104/64 119/114/64 120/113/64
f 110/103/65 109/108/65 117/116/65 118/115/65
f 108/107/66 107/110/66 115/118/66 116/117/66
f 105/98/67 106/97/67 114/112/67 113/111/67
f 106/97/68 112/100/68 120/113/68 114/112/68
f 111/104/69 110/103/69 118/115/69 119/114/69
f 109/108/70 108/107/70 116/117/70 117/116/70
f 107/110/71 105/98/71 113/111/71 115/118/71
