# Blender v3.3.0 OBJ File: 'human_small_rig.blend'
# www.blender.org
mtllib area.mtl
o Cylinder
v 0.000000 -0.511390 -1.000000
v 0.000000 -0.502839 -0.918507
v 0.500000 -0.511390 -0.866025
v 0.459254 -0.502839 -0.795451
v 0.866025 -0.511390 -0.500000
v 0.795451 -0.502839 -0.459254
v 1.000000 -0.511390 0.000000
v 0.918507 -0.502839 0.000000
v 0.866025 -0.511390 0.500000
v 0.795451 -0.502839 0.459254
v 0.500000 -0.511390 0.866025
v 0.459254 -0.502839 0.795451
v 0.000000 -0.511390 1.000000
v 0.000000 -0.502839 0.918507
v -0.500000 -0.511390 0.866025
v -0.459254 -0.502839 0.795451
v -0.866025 -0.511390 0.500000
v -0.795451 -0.502839 0.459254
v -1.000000 -0.511390 0.000000
v -0.918507 -0.502839 0.000000
v -0.866025 -0.511390 -0.500000
v -0.795451 -0.502839 -0.459254
v -0.500000 -0.511390 -0.866025
v -0.459254 -0.502839 -0.795451
v 0.500000 0.511390 -0.866025
v 0.000000 0.511390 -1.000000
v 0.866025 0.511390 -0.500000
v 1.000000 0.511390 0.000000
v 0.866025 0.511390 0.500000
v 0.500000 0.511390 0.866025
v 0.000000 0.511390 1.000000
v -0.500000 0.511390 0.866025
v -0.866025 0.511390 0.500000
v -1.000000 0.511390 0.000000
v -0.866025 0.511390 -0.500000
v -0.500000 0.511390 -0.866025
v 0.467073 0.511390 -0.808995
v 0.000000 0.511390 -0.934147
v 0.808995 0.511390 -0.467073
v 0.934147 0.511390 0.000000
v 0.808995 0.511390 0.467073
v 0.467073 0.511390 0.808995
v 0.000000 0.511390 0.934147
v -0.467073 0.511390 0.808995
v -0.808995 0.511390 0.467073
v -0.934147 0.511390 0.000000
v -0.808995 0.511390 -0.467073
v -0.467073 0.511390 -0.808995
vt 1.000000 0.500000
vt 1.000000 1.000000
vt 0.916667 1.000000
vt 0.916667 0.500000
vt 0.833333 1.000000
vt 0.833333 0.500000
vt 0.750000 1.000000
vt 0.750000 0.500000
vt 0.666667 1.000000
vt 0.666667 0.500000
vt 0.583333 1.000000
vt 0.583333 0.500000
vt 0.500000 1.000000
vt 0.500000 0.500000
vt 0.416667 1.000000
vt 0.416667 0.500000
vt 0.333333 1.000000
vt 0.333333 0.500000
vt 0.250000 1.000000
vt 0.250000 0.500000
vt 0.166667 1.000000
vt 0.166667 0.500000
vt 0.083333 1.000000
vt 0.083333 0.500000
vt 0.000000 1.000000
vt 0.000000 0.500000
vt 0.250000 0.474195
vt 0.362098 0.444159
vt 0.370000 0.457846
vt 0.250000 0.490000
vt 0.444159 0.362098
vt 0.457846 0.370000
vt 0.474195 0.250000
vt 0.490000 0.250000
vt 0.444159 0.137902
vt 0.457846 0.130000
vt 0.362098 0.055841
vt 0.370000 0.042154
vt 0.250000 0.025805
vt 0.250000 0.010000
vt 0.137902 0.055841
vt 0.130000 0.042154
vt 0.055841 0.137902
vt 0.042154 0.130000
vt 0.025805 0.250000
vt 0.010000 0.250000
vt 0.055841 0.362098
vt 0.042154 0.370000
vt 0.137902 0.444159
vt 0.130000 0.457846
vt 0.250000 0.470442
vt 0.360221 0.440908
vt 0.440908 0.360221
vt 0.470442 0.250000
vt 0.440908 0.139779
vt 0.360221 0.059092
vt 0.250000 0.029558
vt 0.139779 0.059092
vt 0.059092 0.139779
vt 0.029558 0.250000
vt 0.059092 0.360221
vt 0.139779 0.440908
vn 0.2588 0.0000 -0.9659
vn 0.7071 0.0000 -0.7071
vn 0.9659 0.0000 -0.2588
vn 0.9659 0.0000 0.2588
vn 0.7071 0.0000 0.7071
vn 0.2588 0.0000 0.9659
vn -0.2588 0.0000 0.9659
vn -0.7071 0.0000 0.7071
vn -0.9659 0.0000 0.2588
vn -0.9659 0.0000 -0.2588
vn -0.7071 0.0000 -0.7071
vn -0.2588 0.0000 -0.9659
vn 0.0000 1.0000 0.0000
vn -0.2588 0.0149 0.9658
vn -0.7070 0.0149 0.7070
vn -0.9658 0.0149 0.2588
vn -0.9658 0.0149 -0.2588
vn -0.7070 0.0149 -0.7070
vn -0.2588 0.0149 -0.9658
vn 0.2588 0.0149 -0.9658
vn 0.7070 0.0149 -0.7070
vn 0.9658 0.0149 -0.2588
vn 0.9658 0.0149 0.2588
vn 0.7070 0.0149 0.7070
vn 0.2588 0.0149 0.9658
usemtl None
s off
f 1/1/1 26/2/1 25/3/1 3/4/1
f 3/4/2 25/3/2 27/5/2 5/6/2
f 5/6/3 27/5/3 28/7/3 7/8/3
f 7/8/4 28/7/4 29/9/4 9/10/4
f 9/10/5 29/9/5 30/11/5 11/12/5
f 11/12/6 30/11/6 31/13/6 13/14/6
f 13/14/7 31/13/7 32/15/7 15/16/7
f 15/16/8 32/15/8 33/17/8 17/18/8
f 17/18/9 33/17/9 34/19/9 19/20/9
f 19/20/10 34/19/10 35/21/10 21/22/10
f 21/22/11 35/21/11 36/23/11 23/24/11
f 23/24/12 36/23/12 26/25/12 1/26/12
f 38/27/13 37/28/13 25/29/13 26/30/13
f 37/28/13 39/31/13 27/32/13 25/29/13
f 39/31/13 40/33/13 28/34/13 27/32/13
f 40/33/13 41/35/13 29/36/13 28/34/13
f 41/35/13 42/37/13 30/38/13 29/36/13
f 42/37/13 43/39/13 31/40/13 30/38/13
f 43/39/13 44/41/13 32/42/13 31/40/13
f 44/41/13 45/43/13 33/44/13 32/42/13
f 45/43/13 46/45/13 34/46/13 33/44/13
f 46/45/13 47/47/13 35/48/13 34/46/13
f 47/47/13 48/49/13 36/50/13 35/48/13
f 48/49/13 38/27/13 26/30/13 36/50/13
f 2/51/14 4/52/14 37/28/14 38/27/14
f 4/52/15 6/53/15 39/31/15 37/28/15
f 6/53/16 8/54/16 40/33/16 39/31/16
f 8/54/17 10/55/17 41/35/17 40/33/17
f 10/55/18 12/56/18 42/37/18 41/35/18
f 12/56/19 14/57/19 43/39/19 42/37/19
f 14/57/20 16/58/20 44/41/20 43/39/20
f 16/58/21 18/59/21 45/43/21 44/41/21
f 18/59/22 20/60/22 46/45/22 45/43/22
f 20/60/23 22/61/23 47/47/23 46/45/23
f 22/61/24 24/62/24 48/49/24 47/47/24
f 24/62/25 2/51/25 38/27/25 48/49/25
