# Blender v3.3.0 OBJ File: ''
# www.blender.org
mtllib healing_icon.mtl
o Cube_Cube.001
v -0.333333 -0.333333 0.211531
v -0.333333 0.333333 0.211531
v -0.333333 -0.333333 -0.216088
v -0.333333 0.333333 -0.216088
v 0.333333 -0.333333 0.211531
v 0.333333 0.333333 0.211531
v 0.333333 -0.333333 -0.216088
v 0.333333 0.333333 -0.216088
v 0.333333 -1.000000 -0.216088
v -0.333333 -1.000000 -0.216088
v -0.333333 1.000000 -0.216088
v 0.333333 1.000000 -0.216088
v -0.333333 -1.000000 0.211531
v 0.333333 -1.000000 0.211531
v 0.333333 1.000000 0.211531
v -0.333333 1.000000 0.211531
v -1.000000 -0.333333 0.211531
v -1.000000 0.333333 0.211531
v -1.000000 0.333333 -0.216088
v -1.000000 -0.333333 -0.216088
v 1.000000 0.333333 -0.216088
v 1.000000 -0.333333 -0.216088
v 1.000000 0.333333 0.211531
v 1.000000 -0.333333 0.211531
vt 0.541667 0.000000
vt 0.625000 0.000000
vt 0.625000 0.250000
vt 0.541667 0.250000
vt 0.541667 0.500000
vt 0.625000 0.500000
vt 0.625000 0.750000
vt 0.541667 0.750000
vt 0.291667 0.500000
vt 0.375000 0.500000
vt 0.375000 0.750000
vt 0.291667 0.750000
vt 0.791667 0.500000
vt 0.875000 0.500000
vt 0.875000 0.750000
vt 0.791667 0.750000
vt 0.708333 0.500000
vt 0.708333 0.750000
vt 0.125000 0.500000
vt 0.208333 0.500000
vt 0.208333 0.750000
vt 0.125000 0.750000
vt 0.541667 0.833333
vt 0.625000 0.833333
vt 0.625000 0.916667
vt 0.541667 0.916667
vt 0.541667 0.333333
vt 0.625000 0.333333
vt 0.625000 0.416667
vt 0.541667 0.416667
vt 0.375000 0.333333
vt 0.458333 0.333333
vt 0.458333 0.416667
vt 0.375000 0.416667
vt 0.458333 0.250000
vt 0.375000 0.833333
vt 0.458333 0.833333
vt 0.458333 0.916667
vt 0.375000 0.916667
vt 0.458333 0.750000
vt 0.541667 1.000000
vt 0.458333 1.000000
vt 0.458333 0.500000
vt 0.375000 0.000000
vt 0.458333 0.000000
vt 0.375000 0.250000
vn 0.0000 1.0000 0.0000
vn 1.0000 0.0000 0.0000
vn -1.0000 0.0000 0.0000
vn 0.0000 -1.0000 0.0000
vn 0.0000 0.0000 1.0000
vn 0.0000 0.0000 -1.0000
usemtl Material.001
s off
f 18/1/1 2/2/1 4/3/1 19/4/1
f 21/5/1 8/6/1 6/7/1 23/8/1
f 9/9/2 7/10/2 5/11/2 14/12/2
f 11/13/3 4/14/3 2/15/3 16/16/3
f 8/6/2 12/17/2 15/18/2 6/7/2
f 12/17/1 11/13/1 16/16/1 15/18/1
f 3/19/3 10/20/3 13/21/3 1/22/3
f 10/20/4 9/9/4 14/12/4 13/21/4
f 6/23/5 15/24/5 16/25/5 2/26/5
f 4/27/6 11/28/6 12/29/6 8/30/6
f 10/31/6 3/32/6 7/33/6 9/34/6
f 3/32/6 4/27/6 8/30/6 7/33/6
f 20/35/6 19/4/6 4/27/6 3/32/6
f 14/36/5 5/37/5 1/38/5 13/39/5
f 5/37/5 6/23/5 2/26/5 1/38/5
f 24/40/5 23/8/5 6/23/5 5/37/5
f 1/38/5 2/26/5 18/41/5 17/42/5
f 7/10/4 22/43/4 24/40/4 5/11/4
f 22/43/2 21/5/2 23/8/2 24/40/2
f 7/33/6 8/30/6 21/5/6 22/43/6
f 1/44/4 17/45/4 20/35/4 3/46/4
f 17/45/3 18/1/3 19/4/3 20/35/3
