# Blender v3.3.0 OBJ File: ''
# www.blender.org
mtllib drone_control.mtl
o Cube_Cube.002
v -0.229064 -0.139915 0.181018
v -0.109778 -0.039194 0.037635
v -0.229064 -0.139915 -0.200774
v -0.220027 -0.047141 -0.202723
v 0.229064 -0.139915 0.181018
v 0.110825 -0.038503 0.037499
v 0.229064 -0.139915 -0.200774
v 0.220027 -0.047141 -0.202723
v -0.229064 -0.139915 -0.134880
v -0.206897 -0.037331 -0.138560
v 0.229064 -0.139915 -0.134880
v 0.206897 -0.037331 -0.138560
v -0.206897 0.182228 -0.190825
v -0.220027 0.175255 -0.251826
v 0.220027 0.175255 -0.251826
v 0.206897 0.182228 -0.190825
v -0.109778 -0.039194 0.008504
v 0.110825 -0.038503 0.008640
v -0.229064 0.203512 -0.194505
v 0.229064 0.203512 -0.194505
v 0.229064 -0.055966 -0.134880
v 0.229064 -0.055966 0.181018
v -0.229064 -0.055966 0.181018
v -0.229064 -0.055966 -0.134880
v 0.213682 -0.055966 -0.122061
v 0.213682 -0.055966 0.168200
v -0.213682 -0.055966 0.168200
v -0.213682 -0.055966 -0.122061
v 0.207993 -0.075985 -0.117319
v 0.207993 -0.075985 0.163458
v -0.207993 -0.075985 0.163458
v -0.207993 -0.075985 -0.117319
v -0.229064 -0.055966 -0.200774
v 0.229064 -0.055966 -0.200774
v -0.229064 0.184080 -0.253775
v 0.229064 0.184080 -0.253775
v 0.000000 -0.139915 -0.200774
v 0.000000 -0.055966 -0.200774
v 0.000000 -0.139915 0.181018
v 0.000000 -0.055966 0.181018
v 0.000000 -0.055966 -0.134880
v 0.000000 -0.139915 -0.134880
v 0.000000 0.184080 -0.253775
v 0.000000 0.203512 -0.194505
v 0.000000 -0.037331 -0.138560
v 0.000000 0.182228 -0.190825
v 0.000000 -0.055966 0.168200
v 0.000000 -0.055966 -0.122061
v 0.000000 -0.075985 0.163458
v 0.000000 -0.075985 -0.117319
v 0.081598 -0.038503 0.037499
v 0.081598 -0.038503 0.008640
v 0.000000 -0.047141 -0.202723
v 0.000000 0.175255 -0.251826
v 0.192423 -0.065764 -0.104344
v 0.192423 -0.065764 0.150483
v -0.082645 -0.039194 0.008504
v -0.082645 -0.039194 0.037635
v 0.154369 -0.065764 -0.066290
v 0.154369 -0.065764 0.112429
v 0.038054 -0.065764 -0.066290
v 0.038054 -0.065764 0.112429
v 0.000000 -0.065764 0.150483
v -0.192423 -0.065764 0.150483
v -0.192423 -0.065764 -0.104344
v 0.000000 -0.065764 -0.104344
v -0.037652 -0.065764 0.112831
v -0.154771 -0.065764 0.112831
v -0.154771 -0.065764 -0.066692
v -0.037652 -0.065764 -0.066692
v 0.132648 -0.038503 -0.044568
v 0.132648 -0.038503 0.090707
v 0.059776 -0.038503 -0.044568
v 0.059776 -0.038503 0.090707
v -0.059957 -0.039194 0.090526
v -0.132466 -0.039194 0.090526
v -0.132466 -0.039194 -0.044387
v -0.059957 -0.039194 -0.044387
v 0.107705 0.011433 0.011760
v 0.107705 0.011433 0.034379
v 0.084718 0.011433 0.011760
v 0.084718 0.011433 0.034379
v -0.085765 0.010742 0.034515
v -0.106658 0.010742 0.034515
v -0.106658 0.010742 0.011624
v -0.085765 0.010742 0.011624
v 0.110825 0.011433 0.008640
v 0.110825 0.011433 0.037499
v 0.081598 0.011433 0.008640
v 0.081598 0.011433 0.037499
v -0.082645 0.010742 0.037635
v -0.109778 0.010742 0.037635
v -0.109778 0.010742 0.008504
v -0.082645 0.010742 0.008504
v 0.107705 0.042500 0.011760
v 0.107705 0.042500 0.034379
v 0.084718 0.042500 0.011760
v 0.084718 0.042500 0.034379
v -0.085765 0.041809 0.034515
v -0.106658 0.041809 0.034515
v -0.106658 0.041809 0.011624
v -0.085765 0.041809 0.011624
vt 0.375000 0.206852
vt 0.625000 0.206852
vt 0.625000 0.250000
vt 0.375000 0.250000
vt 0.375000 0.375000
vt 0.625000 0.375000
vt 0.625000 0.500000
vt 0.375000 0.500000
vt 0.375000 0.543148
vt 0.625000 0.543148
vt 0.625000 0.750000
vt 0.375000 0.750000
vt 0.375000 0.875000
vt 0.625000 0.875000
vt 0.625000 1.000000
vt 0.375000 1.000000
vt 0.250000 0.543148
vt 0.250000 0.750000
vt 0.625000 0.500000
vt 0.625000 0.543148
vt 0.250000 0.500000
vt 0.375000 0.000000
vt 0.625000 0.000000
vt 0.750000 0.500000
vt 0.875000 0.500000
vt 0.875000 0.543148
vt 0.750000 0.543148
vt 0.625000 0.206852
vt 0.625000 0.250000
vt 0.625000 0.375000
vt 0.625000 0.254932
vt 0.625000 0.254932
vt 0.625000 0.375000
vt 0.636499 0.554647
vt 0.636499 0.738501
vt 0.633394 0.741606
vt 0.633394 0.551542
vt 0.750000 0.738501
vt 0.863501 0.738501
vt 0.866606 0.741606
vt 0.750000 0.741606
vt 0.863501 0.554647
vt 0.866606 0.551542
vt 0.750000 0.554647
vt 0.750000 0.551542
vt 0.625000 0.495068
vt 0.625000 0.495068
vt 0.125000 0.500000
vt 0.125000 0.543148
vt 0.125000 0.750000
vt 0.750000 0.543148
vt 0.862903 0.543148
vt 0.875000 0.543148
vt 0.750000 0.543148
vt 0.750000 0.543148
vt 0.637097 0.543148
vt 0.637097 0.543148
vt 0.862903 0.543148
vt 0.875000 0.750000
vt 0.750000 0.750000
vt 0.625000 0.375000
vt 0.677614 0.602284
vt 0.677614 0.690864
vt 0.665761 0.705087
vt 0.665761 0.588061
vt 0.717381 0.602284
vt 0.729234 0.588061
vt 0.717380 0.690864
vt 0.729234 0.705087
vt 0.782718 0.690745
vt 0.822287 0.690745
vt 0.834459 0.705351
vt 0.770546 0.705351
vt 0.822287 0.602403
vt 0.834459 0.587798
vt 0.782718 0.602403
vt 0.770546 0.587798
vt 0.808203 0.623540
vt 0.808203 0.669608
vt 0.808203 0.669608
vt 0.808203 0.623540
vt 0.796802 0.669609
vt 0.796802 0.623540
vt 0.796802 0.623540
vt 0.796802 0.669609
vt 0.691226 0.623061
vt 0.703769 0.623061
vt 0.703769 0.670087
vt 0.691225 0.670087
vt 0.703769 0.623061
vt 0.703769 0.670087
vt 0.691226 0.623061
vt 0.691225 0.670087
vt 0.795099 0.675889
vt 0.795099 0.617259
vt 0.795099 0.617259
vt 0.795099 0.675889
vt 0.644995 0.563143
vt 0.644995 0.730005
vt 0.750000 0.730005
vt 0.855005 0.730005
vt 0.855005 0.563143
vt 0.750000 0.563143
vt 0.705472 0.676575
vt 0.689523 0.676575
vt 0.689523 0.676575
vt 0.705472 0.676575
vt 0.689523 0.616574
vt 0.705472 0.616574
vt 0.809906 0.675889
vt 0.809906 0.617259
vt 0.689523 0.616574
vt 0.809906 0.675889
vt 0.809906 0.617259
vt 0.705472 0.616574
vn -1.0000 0.0000 0.0000
vn 0.0000 0.0000 -1.0000
vn 1.0000 0.0000 0.0000
vn 0.0000 0.0000 1.0000
vn 0.0000 -1.0000 0.0000
vn 0.0000 0.9502 -0.3115
vn 0.0000 -0.2156 -0.9765
vn -0.9619 0.2734 0.0000
vn 0.0000 0.2305 -0.9731
vn 0.9619 0.2734 0.0000
vn 0.0000 0.2305 0.9731
vn 0.0000 0.1938 0.9810
vn 0.0000 0.1704 0.9854
vn -0.0136 0.2274 0.9737
vn 0.0136 0.2274 0.9737
vn 0.0000 1.0000 0.0000
vn 0.7821 0.6232 0.0000
vn 0.0000 0.6232 -0.7821
vn 0.0000 0.6232 0.7821
vn -0.7821 0.6232 0.0000
vn 0.0000 0.6430 0.7659
vn -0.7659 0.6430 0.0000
vn 0.0000 0.6430 -0.7659
vn 0.7659 0.6430 0.0000
vn 0.5488 0.8360 0.0000
vn 0.0000 0.7856 0.6188
vn -0.5488 0.8360 0.0000
vn 0.0000 0.7856 -0.6188
vn 0.0000 0.2316 0.9728
usemtl Material.003
s off
f 9/1/1 24/2/1 33/3/1 3/4/1
f 37/5/2 38/6/2 34/7/2 7/8/2
f 11/9/3 21/10/3 22/11/3 5/12/3
f 39/13/4 40/14/4 23/15/4 1/16/4
f 42/17/5 11/9/5 5/12/5 39/18/5
f 21/10/3 34/7/3 36/19/3 20/20/3
f 37/21/5 7/8/5 11/9/5 42/17/5
f 7/8/3 34/7/3 21/10/3 11/9/3
f 1/22/1 23/23/1 24/2/1 9/1/1
f 43/24/6 35/25/6 19/26/6 44/27/6
f 33/3/1 24/2/1 19/28/1 35/29/1
f 53/30/7 4/31/7 14/32/7 54/33/7
f 29/34/8 30/35/8 26/36/8 25/37/8
f 49/38/9 31/39/9 27/40/9 47/41/9
f 31/39/10 32/42/10 28/43/10 27/40/10
f 50/44/11 29/34/11 25/37/11 48/45/11
f 32/42/11 50/44/11 48/45/11 28/43/11
f 30/35/9 49/38/9 47/41/9 26/36/9
f 8/46/7 53/30/7 54/33/7 15/47/7
f 36/19/6 43/24/6 44/27/6 20/20/6
f 3/48/5 37/21/5 42/17/5 9/49/5
f 9/49/5 42/17/5 39/18/5 1/50/5
f 5/12/4 22/11/4 40/14/4 39/13/4
f 3/4/2 33/3/2 38/6/2 37/5/2
usemtl Material.006
f 45/51/12 10/52/12 24/53/12 41/54/12
f 46/55/13 16/56/13 20/20/13 44/27/13
f 16/56/14 12/57/14 21/10/14 20/20/14
f 10/52/15 13/58/15 19/26/15 24/53/15
f 25/37/16 26/36/16 22/11/16 21/10/16
f 47/41/16 27/40/16 23/59/16 40/60/16
f 27/40/16 28/43/16 24/53/16 23/59/16
f 48/45/16 25/37/16 21/10/16 41/54/16
f 53/30/7 8/46/7 34/7/7 38/6/7
f 54/33/7 14/32/7 35/29/7 43/61/7
f 8/46/7 15/47/7 36/19/7 34/7/7
f 14/32/7 4/31/7 33/3/7 35/29/7
f 15/47/7 54/33/7 43/61/7 36/19/7
f 4/31/7 53/30/7 38/6/7 33/3/7
f 28/43/16 48/45/16 41/54/16 24/53/16
f 26/36/16 47/41/16 40/60/16 22/11/16
f 13/58/13 46/55/13 44/27/13 19/26/13
f 12/57/12 45/51/12 41/54/12 21/10/12
f 71/62/17 72/63/17 60/64/17 59/65/17
f 73/66/18 71/62/18 59/65/18 61/67/18
f 72/63/19 74/68/19 62/69/19 60/64/19
f 74/68/20 73/66/20 61/67/20 62/69/20
f 75/70/21 76/71/21 68/72/21 67/73/21
f 76/71/22 77/74/22 69/75/22 68/72/22
f 77/74/23 78/76/23 70/77/23 69/75/23
f 78/76/24 75/70/24 67/73/24 70/77/24
f 85/78/1 84/79/1 100/80/1 101/81/1
f 83/82/3 86/83/3 102/84/3 99/85/3
f 102/84/16 101/81/16 100/80/16 99/85/16
f 95/86/16 97/87/16 98/88/16 96/89/16
f 81/90/1 82/91/1 98/88/1 97/87/1
f 79/92/2 81/90/2 97/87/2 95/86/2
f 86/83/2 85/78/2 101/81/2 102/84/2
f 84/79/4 83/82/4 99/85/4 100/80/4
f 82/91/4 80/93/4 96/89/4 98/88/4
f 80/93/3 79/92/3 95/86/3 96/89/3
usemtl Material.009
f 58/94/3 57/95/3 94/96/3 91/97/3
f 55/98/25 56/99/25 30/35/25 29/34/25
f 63/100/26 64/101/26 31/39/26 49/38/26
f 64/101/27 65/102/27 32/42/27 31/39/27
f 66/103/28 55/98/28 29/34/28 50/44/28
f 65/102/28 66/103/28 50/44/28 32/42/28
f 56/99/26 63/100/26 49/38/26 30/35/26
f 51/104/4 6/105/4 88/106/4 90/107/4
f 59/65/16 60/64/16 56/99/16 55/98/16
f 61/67/16 59/65/16 55/98/16 66/103/16
f 60/64/16 62/69/16 63/100/16 56/99/16
f 62/69/16 61/67/16 66/103/16 63/100/16
f 67/73/16 68/72/16 64/101/16 63/100/16
f 68/72/16 69/75/16 65/102/16 64/101/16
f 69/75/16 70/77/16 66/103/16 65/102/16
f 70/77/16 67/73/16 63/100/16 66/103/16
f 18/108/16 6/105/16 72/63/16 71/62/16
f 52/109/16 18/108/16 71/62/16 73/66/16
f 6/105/16 51/104/16 74/68/16 72/63/16
f 51/104/16 52/109/16 73/66/16 74/68/16
f 58/94/16 2/110/16 76/71/16 75/70/16
f 2/110/16 17/111/16 77/74/16 76/71/16
f 17/111/16 57/95/16 78/76/16 77/74/16
f 57/95/16 58/94/16 75/70/16 78/76/16
f 6/105/3 18/108/3 87/112/3 88/106/3
f 17/111/1 2/110/1 92/113/1 93/114/1
f 52/109/1 51/104/1 90/107/1 89/115/1
f 18/108/2 52/109/2 89/115/2 87/112/2
f 57/95/2 17/111/2 93/114/2 94/96/2
f 2/110/4 58/94/4 91/97/4 92/113/4
f 79/92/16 80/93/16 88/106/16 87/112/16
f 81/90/16 79/92/16 87/112/16 89/115/16
f 80/93/16 82/91/16 90/107/16 88/106/16
f 82/91/16 81/90/16 89/115/16 90/107/16
f 83/82/16 84/79/16 92/113/16 91/97/16
f 84/79/16 85/78/16 93/114/16 92/113/16
f 85/78/16 86/83/16 94/96/16 93/114/16
f 86/83/16 83/82/16 91/97/16 94/96/16
usemtl Material.008
f 45/51/29 12/57/29 16/56/29 46/55/29
f 10/52/29 45/51/29 46/55/29 13/58/29
