# Blender v3.3.0 OBJ File: ''
# www.blender.org
mtllib sunglass.mtl
o Cube_Cube.001
v -0.228517 0.055326 -0.175752
v -0.228517 0.087989 -0.175752
v -0.228783 0.004833 -0.207600
v -0.228336 0.104254 -0.207600
v 0.231096 0.052696 -0.175752
v 0.231096 0.090619 -0.175752
v 0.229216 -0.000319 -0.207600
v 0.229826 0.104254 -0.207600
v 0.027671 -0.003292 -0.207600
v -0.026537 -0.005254 -0.207600
v -0.026537 0.098884 -0.207600
v 0.027671 0.096922 -0.207600
v -0.024154 -0.010624 -0.175752
v 0.024417 -0.010624 -0.175752
v 0.024417 0.104254 -0.175752
v -0.024154 0.104254 -0.175752
v 0.008227 0.032314 -0.207600
v -0.007964 0.032314 -0.207600
v -0.007964 0.098631 -0.207600
v 0.008227 0.098631 -0.207600
v -0.007964 0.032314 -0.175752
v 0.008227 0.032314 -0.175752
v 0.008227 0.098631 -0.175752
v -0.007964 0.098631 -0.175752
v -0.203598 -0.005254 -0.207600
v -0.217858 0.087989 -0.175752
v -0.203598 0.098884 -0.207600
v -0.217858 0.055326 -0.175752
v 0.205179 0.096922 -0.207600
v 0.218800 0.052696 -0.175752
v 0.205179 -0.003292 -0.207600
v 0.218800 0.090619 -0.175752
v -0.228783 0.004833 -0.175752
v -0.228336 0.104254 -0.175752
v -0.208742 0.104254 -0.175752
v -0.208742 -0.010624 -0.175752
v 0.229826 0.104254 -0.175752
v 0.229216 -0.000319 -0.175752
v 0.212202 -0.010624 -0.175752
v 0.212202 0.104254 -0.175752
v -0.228517 0.055326 0.073339
v -0.228517 0.087989 0.073339
v -0.217858 0.087989 0.073339
v -0.217858 0.055326 0.073339
v 0.231096 0.090619 0.073339
v 0.231096 0.052696 0.073339
v 0.218800 0.052696 0.073339
v 0.218800 0.090619 0.073339
v -0.228517 0.022644 0.113970
v -0.228517 0.055307 0.113970
v -0.217858 0.055307 0.113970
v -0.217858 0.022644 0.113970
v 0.231096 0.057937 0.113970
v 0.231096 0.020014 0.113970
v 0.218800 0.020014 0.113970
v 0.218800 0.057937 0.113970
v -0.208742 0.104254 -0.207600
v -0.024154 0.104254 -0.207600
v -0.024154 -0.010624 -0.207600
v -0.208742 -0.010624 -0.207600
v 0.212202 -0.010624 -0.207600
v 0.024417 -0.010624 -0.207600
v 0.024417 0.104254 -0.207600
v 0.212202 0.104254 -0.207600
vt 0.375000 0.000000
vt 0.625000 0.000000
vt 0.625000 0.250000
vt 0.375000 0.250000
vt 0.375000 0.486592
vt 0.625000 0.486592
vt 0.625000 0.500000
vt 0.375000 0.500000
vt 0.625000 0.750000
vt 0.375000 0.750000
vt 0.389990 0.753470
vt 0.610010 0.753470
vt 0.610010 0.753470
vt 0.389990 0.753470
vt 0.361592 0.500000
vt 0.361592 0.750000
vt 0.859805 0.500000
vt 0.875000 0.500000
vt 0.875000 0.750000
vt 0.859805 0.750000
vt 0.638408 0.500000
vt 0.722428 0.500000
vt 0.722428 0.750000
vt 0.638408 0.750000
vt 0.759190 0.500000
vt 0.777572 0.500000
vt 0.777572 0.750000
vt 0.759191 0.750000
vt 0.140195 0.500000
vt 0.222428 0.500000
vt 0.222428 0.750000
vt 0.140195 0.750000
vt 0.259191 0.500000
vt 0.277572 0.500000
vt 0.277572 0.750000
vt 0.259191 0.750000
vt 0.375000 0.384191
vt 0.625000 0.384191
vt 0.625000 0.402572
vt 0.375000 0.402572
vt 0.375000 0.347428
vt 0.625000 0.347428
vt 0.625000 0.365809
vt 0.375000 0.365809
vt 0.240809 0.500000
vt 0.240809 0.750000
vt 0.740809 0.500000
vt 0.740809 0.750000
vt 0.625000 0.265195
vt 0.375000 0.265195
vt 0.125000 0.500000
vt 0.125000 0.750000
vt 0.610010 0.759938
vt 0.610010 0.759938
vt 0.395711 0.995205
vt 0.604289 0.995205
vt 0.625000 1.000000
vt 0.375000 1.000000
vt 0.604289 0.989599
vt 0.395711 0.989599
vt 0.375000 0.984805
vt 0.625000 0.984805
vt 0.389990 0.759937
vt 0.625000 0.763408
vt 0.375000 0.763408
vt 0.389990 0.759937
vt 0.389990 0.753470
vt 0.389990 0.759937
vt 0.395711 0.989599
vt 0.395711 0.995205
vt 0.604289 0.995205
vt 0.604289 0.989599
vt 0.395711 0.989599
vt 0.604289 0.989599
vt 0.604289 0.995205
vt 0.395711 0.995205
vt 0.610010 0.753470
vt 0.610010 0.759938
vt 0.613313 0.344723
vt 0.613313 0.267901
vt 0.386687 0.344723
vt 0.386687 0.267901
vt 0.390957 0.406266
vt 0.390957 0.482899
vt 0.609043 0.406266
vt 0.609043 0.482899
vn -1.0000 0.0045 0.0000
vn 0.0000 0.0000 -1.0000
vn 1.0000 -0.0058 0.0000
vn 1.0000 0.0000 0.0000
vn 0.5181 -0.8553 0.0000
vn 0.0000 1.0000 0.0000
vn 0.3281 0.9447 0.0000
vn 0.0000 -1.0000 0.0000
vn -0.9357 -0.3528 0.0000
vn 0.9357 -0.3528 -0.0000
vn -0.3281 0.9447 0.0000
vn -0.6107 -0.7918 0.0000
vn -0.0000 0.0000 1.0000
vn 0.0000 -0.7792 -0.6268
vn -1.0000 0.0000 0.0000
vn 0.0000 0.7792 0.6268
usemtl Material.005
s off
f 33/1/1 34/2/1 4/3/1 3/4/1
f 61/5/2 64/6/2 8/7/2 7/8/2
f 7/8/3 8/7/3 37/9/3 38/10/3
f 5/11/4 6/12/4 45/13/4 46/14/4
f 61/15/5 7/8/5 38/10/5 39/16/5
f 57/17/6 4/18/6 34/19/6 35/20/6
f 64/21/6 63/22/6 15/23/6 40/24/6
f 19/25/7 58/26/7 16/27/7 24/28/7
f 60/29/8 59/30/8 13/31/8 36/32/8
f 17/33/9 62/34/9 14/35/9 22/36/9
f 17/37/2 20/38/2 63/39/2 62/40/2
f 59/41/2 58/42/2 19/43/2 18/44/2
f 18/44/2 19/43/2 20/38/2 17/37/2
f 59/30/10 18/45/10 21/46/10 13/31/10
f 18/45/8 17/33/8 22/36/8 21/46/8
f 63/22/11 20/47/11 23/48/11 15/23/11
f 20/47/6 19/25/6 24/28/6 23/48/6
f 3/4/2 4/3/2 57/49/2 60/50/2
f 3/51/12 60/29/12 36/32/12 33/52/12
f 58/26/6 57/17/6 35/20/6 16/27/6
f 6/12/6 32/53/6 48/54/6 45/13/6
f 8/7/6 64/21/6 40/24/6 37/9/6
f 62/34/8 61/15/8 39/16/8 14/35/8
f 1/55/2 2/56/2 34/57/2 33/58/2
f 26/59/13 28/60/13 36/61/13 35/62/13
f 6/12/2 5/11/2 38/10/2 37/9/2
f 30/63/13 32/53/13 40/64/13 39/65/13
f 47/66/14 46/14/14 54/67/14 55/68/14
f 1/55/8 28/60/8 44/69/8 41/70/8
f 2/56/15 1/55/15 41/70/15 42/71/15
f 30/63/8 5/11/8 46/14/8 47/66/8
f 26/59/6 2/56/6 42/71/6 43/72/6
f 52/73/13 51/74/13 50/75/13 49/76/13
f 54/67/13 53/77/13 56/78/13 55/68/13
f 43/72/16 42/71/16 50/75/16 51/74/16
f 45/13/16 48/54/16 56/78/16 53/77/16
f 46/14/4 45/13/4 53/77/4 54/67/4
f 41/70/14 44/69/14 52/73/14 49/76/14
f 42/71/15 41/70/15 49/76/15 50/75/15
f 11/79/2 27/80/2 57/49/2 58/42/2
f 10/81/2 11/79/2 58/42/2 59/41/2
f 25/82/2 10/81/2 59/41/2 60/50/2
f 27/80/2 25/82/2 60/50/2 57/49/2
f 9/83/2 31/84/2 61/5/2 62/40/2
f 12/85/2 9/83/2 62/40/2 63/39/2
f 29/86/2 12/85/2 63/39/2 64/6/2
f 31/84/2 29/86/2 64/6/2 61/5/2
usemtl Material.006
f 25/82/2 27/80/2 11/79/2 10/81/2
f 9/83/2 12/85/2 29/86/2 31/84/2
