# Blender v3.3.0 OBJ File: ''
# www.blender.org
mtllib holo.mtl
o Cube_Cube.002
v 0.033524 -0.025501 0.013020
v 0.033524 -0.001558 0.013020
v 0.033524 -0.001558 0.069745
v 0.033524 -0.025501 0.074790
v -0.018815 -0.024934 0.074790
v -0.028419 -0.001558 0.069745
v -0.033524 -0.001558 0.069745
v -0.033524 -0.025501 0.074790
v -0.033524 -0.025501 0.008507
v -0.033524 -0.001558 0.008507
v -0.033524 -0.002380 -0.039622
v -0.033524 -0.025501 -0.057084
v 0.018815 -0.024934 -0.057084
v 0.018815 -0.002380 -0.039622
v 0.033524 -0.002380 -0.039622
v 0.033524 -0.025501 -0.057084
v -0.018815 -0.024934 0.008507
v -0.018815 -0.024934 -0.057084
v 0.018815 -0.001558 0.008507
v 0.033524 -0.001558 0.008507
v -0.018815 -0.001558 0.008507
v -0.018815 -0.002380 -0.039622
v 0.012550 -0.001558 0.008507
v 0.012550 -0.002380 -0.039622
v 0.033524 -0.025501 0.008507
v 0.018815 -0.024934 0.008507
v -0.012550 -0.009527 0.008507
v -0.012550 -0.009527 -0.039622
v 0.012550 -0.009527 -0.039622
v 0.028419 -0.001558 0.069745
v 0.018815 -0.024934 0.074790
v -0.012550 -0.002380 -0.039622
v 0.012550 -0.009527 0.008507
v -0.012550 -0.001558 0.008507
v -0.024646 0.037950 0.067075
v 0.024646 0.037950 0.067075
v 0.024646 0.037950 0.022675
v -0.024646 0.037950 0.022675
v -0.028419 -0.001558 0.013020
v 0.028419 -0.001558 0.013020
v 0.012550 -0.009527 0.013020
v -0.012550 -0.009527 0.013020
v 0.018815 -0.024934 0.013020
v -0.018815 -0.024934 0.013020
v -0.033524 -0.001558 0.013020
v -0.033524 -0.025501 0.013020
v -0.024074 0.002391 0.069745
v -0.021055 0.034000 0.067075
v 0.021055 0.034000 0.067075
v 0.024074 0.002391 0.069745
v -0.024074 0.002391 0.013020
v 0.024074 0.002391 0.013020
v 0.021055 0.034000 0.022675
v -0.021055 0.034000 0.022675
vt 0.375000 0.131822
vt 0.625000 0.131822
vt 0.625000 0.250000
vt 0.375000 0.250000
vt 0.375000 0.445153
vt 0.625000 0.445153
vt 0.625000 0.500000
vt 0.375000 0.500000
vt 0.375000 0.631822
vt 0.625000 0.631822
vt 0.625000 0.750000
vt 0.375000 0.750000
vt 0.375000 0.945153
vt 0.625000 0.945153
vt 0.625000 1.000000
vt 0.375000 1.000000
vt 0.320153 0.631822
vt 0.320153 0.750000
vt 0.820153 0.631822
vt 0.875000 0.631822
vt 0.875000 0.750000
vt 0.820153 0.750000
vt 0.679847 0.631822
vt 0.679847 0.750000
vt 0.796794 0.631822
vt 0.796794 0.750000
vt 0.125000 0.631822
vt 0.179847 0.631822
vt 0.179847 0.750000
vt 0.125000 0.750000
vt 0.296794 0.631822
vt 0.296794 0.750000
vt 0.625000 0.804847
vt 0.375000 0.804847
vt 0.375000 0.921794
vt 0.625000 0.921794
vt 0.625000 0.304847
vt 0.375000 0.304847
vt 0.625000 0.828206
vt 0.375000 0.828206
vt 0.203206 0.631822
vt 0.203206 0.750000
vt 0.703206 0.631822
vt 0.703206 0.750000
vt 0.703206 0.500000
vt 0.796794 0.500000
vt 0.796794 0.618178
vt 0.703206 0.618178
vt 0.679847 0.500000
vt 0.679847 0.618178
vt 0.000000 0.000000
vt 0.000000 0.000000
vt 0.000000 0.000000
vt 0.000000 0.000000
vt 0.000000 0.000000
vt 0.000000 0.000000
vt 0.000000 0.000000
vt 0.000000 0.000000
vt 0.203206 0.618178
vt 0.296794 0.618178
vt 0.179847 0.618178
vt 0.320153 0.618178
vt 0.125000 0.500000
vt 0.179847 0.500000
vt 0.125000 0.618178
vt 0.820153 0.500000
vt 0.820153 0.618178
vt 0.625000 0.618178
vt 0.875000 0.500000
vt 0.875000 0.618178
vt 0.320153 0.500000
vt 0.375000 0.618178
vt 0.375000 0.000000
vt 0.625000 0.000000
vt 0.625000 0.118178
vt 0.375000 0.118178
vt 0.000000 0.000000
vt 0.000000 0.000000
vt 0.000000 0.000000
vt 0.000000 0.000000
vt 0.000000 0.000000
vt 0.000000 0.000000
vt 0.691526 0.618178
vt 0.808474 0.618178
vt 0.790985 0.618178
vt 0.709015 0.618178
vn 1.0000 0.0000 0.0000
vn -0.0059 0.2074 0.9782
vn -1.0000 0.0000 0.0000
vn -0.0757 0.5913 -0.8029
vn -0.2539 0.5433 -0.8002
vn 0.0117 0.6073 -0.7943
vn 0.0385 -0.9993 0.0000
vn -0.0000 0.9999 -0.0171
vn -0.0385 -0.9993 0.0000
vn 0.9263 -0.3767 0.0000
vn -0.0117 0.6073 -0.7943
vn 0.2539 0.5433 -0.8002
vn 0.0757 0.5913 -0.8029
vn -0.3155 0.2765 -0.9077
vn -0.2678 0.2348 -0.9344
vn 0.0059 0.2074 0.9782
vn 0.2678 0.2348 -0.9344
vn 0.3155 0.2765 -0.9077
vn -0.9263 -0.3767 0.0000
vn 0.0000 -1.0000 0.0000
vn 0.0000 1.0000 0.0000
vn -0.9955 0.0951 0.0000
vn 0.9955 0.0951 -0.0000
vn 0.0000 0.2110 0.9775
vn 0.0000 0.0484 0.9988
vn 0.0000 0.0499 0.9988
vn 0.0000 0.0375 0.9993
vn -0.0000 0.0749 0.9972
vn 0.0000 0.0000 1.0000
vn 0.0000 0.1698 -0.9855
vn -0.0000 0.1349 -0.9909
vn -0.0000 -0.0000 -1.0000
vn -0.0000 0.1747 -0.9846
vn 0.0000 0.1342 -0.9910
vn 0.0000 0.2620 -0.9651
usemtl Material.001
s 1
f 1/1/1 2/2/1 3/3/1 4/4/1
f 5/5/2 6/6/2 7/7/2 8/8/2
f 9/9/3 10/10/3 11/11/3 12/12/3
f 13/13/4 14/14/5 15/15/6 16/16/6
f 17/17/7 9/9/7 12/12/7 18/18/7
f 19/19/8 20/20/8 15/21/8 14/22/8
f 10/10/8 21/23/8 22/24/8 11/11/8
f 23/25/8 19/19/8 14/22/8 24/26/8
f 25/27/9 26/28/9 13/29/9 16/30/9
f 27/31/10 17/17/10 18/18/10 28/32/10
f 12/12/11 11/11/11 22/33/12 18/34/13
f 29/35/14 24/36/15 14/14/5 13/13/4
f 4/4/16 3/3/16 30/37/16 31/38/16
f 18/34/13 22/33/12 32/39/17 28/40/18
f 28/40/18 32/39/17 24/36/15 29/35/14
f 26/28/19 33/41/19 29/42/19 13/29/19
f 33/41/20 27/31/20 28/32/20 29/42/20
f 21/23/8 34/43/8 32/44/8 22/24/8
f 34/43/8 23/25/8 24/26/8 32/44/8
f 35/45/21 36/46/21 37/47/21 38/48/21
f 6/49/22 35/45/22 38/48/22 39/50/22
f 6/51/21 30/52/21 40/53/21 19/54/21 23/55/21 34/56/21 21/57/21 39/58/21
f 41/59/20 42/60/20 27/31/20 33/41/20
f 43/61/19 41/59/19 33/41/19 26/28/19
f 42/60/10 44/62/10 17/17/10 27/31/10
f 4/63/9 31/64/9 43/61/9 1/65/9
f 1/65/9 43/61/9 26/28/9 25/27/9
f 36/46/23 30/66/23 40/67/23 37/47/23
f 31/38/24 30/37/24 6/6/24 5/5/24
f 7/7/21 6/49/21 39/50/21 45/68/21
f 45/68/21 39/50/21 21/23/21 10/10/21
f 30/66/21 3/69/21 2/70/21 40/67/21
f 40/67/21 2/70/21 20/20/21 19/19/21
f 5/71/7 8/8/7 46/72/7 44/62/7
f 44/62/7 46/72/7 9/9/7 17/17/7
f 8/8/3 7/7/3 45/68/3 46/72/3
f 46/72/3 45/68/3 10/10/3 9/9/3
f 16/73/1 15/74/1 20/75/1 25/76/1
f 25/76/1 20/75/1 2/2/1 1/1/1
f 47/77/25 48/78/26 35/79/27 6/51/27
f 49/80/26 50/81/25 30/52/28 36/82/27
f 48/78/26 49/80/26 36/82/27 35/79/27
f 50/81/25 47/77/25 6/51/27 30/52/29
f 51/83/30 52/84/30 40/67/31 39/50/32
f 53/85/33 54/86/33 38/48/34 37/47/34
f 54/86/33 51/83/30 39/50/35 38/48/34
f 52/84/30 53/85/33 37/47/34 40/67/31
usemtl Material.002
f 51/83/30 54/86/33 53/85/33 52/84/30
f 49/80/26 48/78/26 47/77/25 50/81/25
