# Blender v3.3.0 OBJ File: ''
# www.blender.org
mtllib at_launcher.mtl
o Cylinder
v -0.012110 0.045195 -0.131370
v -0.009591 0.038848 0.118873
v 0.012110 0.045195 -0.131370
v 0.009591 0.038848 0.118873
v 0.033085 0.033085 -0.131370
v 0.026204 0.029257 0.118873
v 0.045195 0.012110 -0.131370
v 0.035796 0.012644 0.118873
v 0.045195 -0.012110 -0.131370
v 0.035796 -0.006539 0.118873
v 0.033085 -0.033085 -0.131370
v 0.026204 -0.023152 0.118873
v 0.012110 -0.045195 -0.131370
v 0.009591 -0.032743 0.118873
v -0.012110 -0.045195 -0.131370
v -0.009591 -0.032743 0.118873
v -0.033085 -0.033085 -0.131370
v -0.026204 -0.023152 0.118873
v -0.045195 -0.012110 -0.131370
v -0.035796 -0.006539 0.118873
v -0.045195 0.012110 -0.131370
v -0.035796 0.012644 0.118873
v -0.033085 0.033085 -0.131370
v -0.026204 0.029257 0.118873
v -0.017510 0.065350 -0.462485
v 0.017510 0.065350 -0.462485
v 0.013869 0.054812 0.459129
v -0.013869 0.054812 0.459129
v 0.047839 0.047839 -0.462485
v 0.037890 0.040943 0.459129
v 0.065350 0.017510 -0.462485
v 0.051759 0.016921 0.459129
v 0.065350 -0.017510 -0.462485
v 0.051759 -0.010816 0.459129
v 0.047839 -0.047839 -0.462485
v 0.037890 -0.034837 0.459129
v 0.017510 -0.065350 -0.462485
v 0.013869 -0.048706 0.459129
v -0.017510 -0.065350 -0.462485
v -0.013869 -0.048706 0.459129
v -0.047839 -0.047839 -0.462485
v -0.037890 -0.034837 0.459129
v -0.065350 -0.017510 -0.462485
v -0.051759 -0.010816 0.459129
v -0.065350 0.017510 -0.462485
v -0.051759 0.016921 0.459129
v -0.047839 0.047839 -0.462485
v -0.037890 0.040943 0.459129
v -0.013855 0.051708 -0.462476
v 0.013855 0.051708 -0.462476
v 0.010974 0.044007 0.459122
v -0.010974 0.044007 0.459122
v 0.037853 0.037853 -0.462476
v 0.029980 0.033033 0.459122
v 0.051708 0.013855 -0.462476
v 0.040954 0.014026 0.459122
v 0.051708 -0.013855 -0.462476
v 0.040954 -0.007921 0.459122
v 0.037853 -0.037853 -0.462476
v 0.029980 -0.026928 0.459122
v 0.013855 -0.051708 -0.462476
v 0.010974 -0.037901 0.459122
v -0.013855 -0.051708 -0.462476
v -0.010974 -0.037901 0.459122
v -0.037853 -0.037853 -0.462476
v -0.029980 -0.026928 0.459122
v -0.051708 -0.013855 -0.462476
v -0.040954 -0.007921 0.459122
v -0.051708 0.013855 -0.462476
v -0.040954 0.014026 0.459122
v -0.037853 0.037853 -0.462476
v -0.029980 0.033033 0.459122
v -0.017510 0.065350 -0.426404
v -0.013869 0.054812 0.430551
v 0.013869 0.054812 0.430552
v 0.017510 0.065350 -0.426404
v 0.037890 0.040943 0.430552
v 0.047839 0.047839 -0.426404
v 0.051759 0.016921 0.430552
v 0.065350 0.017510 -0.426404
v 0.051759 -0.010816 0.430552
v 0.065350 -0.017510 -0.426404
v 0.037890 -0.034837 0.430552
v 0.047839 -0.047839 -0.426404
v 0.013869 -0.048706 0.430552
v 0.017510 -0.065350 -0.426404
v -0.013869 -0.048706 0.430552
v -0.017510 -0.065350 -0.426404
v -0.037890 -0.034837 0.430552
v -0.047839 -0.047839 -0.426404
v -0.051759 -0.010816 0.430552
v -0.065350 -0.017510 -0.426404
v -0.051759 0.016921 0.430552
v -0.065350 0.017510 -0.426404
v -0.037890 0.040943 0.430552
v -0.047839 0.047839 -0.426404
v -0.017510 0.065350 -0.260429
v -0.017271 0.063822 -0.035995
v 0.017271 0.063822 -0.035995
v 0.017510 0.065350 -0.260429
v 0.047185 0.046551 -0.035995
v 0.047839 0.047839 -0.260429
v 0.064456 0.016637 -0.035995
v 0.065350 0.017510 -0.260429
v 0.064456 -0.017905 -0.035995
v 0.065350 -0.017510 -0.260429
v 0.047185 -0.047819 -0.035995
v 0.047839 -0.047839 -0.260429
v 0.017271 -0.065090 -0.035995
v 0.017510 -0.065350 -0.260429
v -0.017271 -0.065090 -0.035995
v -0.017510 -0.065350 -0.260429
v -0.047185 -0.047819 -0.035995
v -0.047839 -0.047839 -0.260429
v -0.064456 -0.017905 -0.035995
v -0.065350 -0.017510 -0.260429
v -0.064456 0.016637 -0.035995
v -0.065350 0.017510 -0.260429
v -0.047185 0.046551 -0.035995
v -0.047839 0.047839 -0.260429
v 0.017271 -0.089675 -0.035995
v 0.017510 -0.090275 -0.260429
v -0.017271 -0.089675 -0.035995
v -0.017510 -0.090275 -0.260429
v -0.017510 0.065350 -0.116985
v 0.017510 0.065350 -0.116985
v 0.047839 0.047839 -0.116985
v 0.065350 0.017510 -0.116985
v 0.065350 -0.017510 -0.116985
v 0.047839 -0.047839 -0.116985
v 0.017510 -0.065350 -0.116985
v -0.017510 -0.065350 -0.116985
v -0.047839 -0.047839 -0.116985
v -0.065350 -0.017510 -0.116985
v -0.065350 0.017510 -0.116985
v -0.047839 0.047839 -0.116985
v 0.017510 -0.090275 -0.116985
v -0.017510 -0.090275 -0.116985
v 0.017510 0.065350 -0.207792
v 0.047839 0.047839 -0.207792
v 0.065350 0.017510 -0.207792
v 0.065350 -0.017510 -0.207792
v 0.047839 -0.047839 -0.207792
v 0.017510 -0.065350 -0.207792
v -0.017510 -0.065350 -0.207792
v -0.047839 -0.047839 -0.207792
v -0.065350 -0.017510 -0.207792
v -0.065350 0.017510 -0.207792
v -0.047839 0.047839 -0.207792
v 0.017510 -0.090275 -0.207792
v -0.017510 -0.090275 -0.207792
v -0.017510 0.065350 -0.207792
v 0.017271 -0.161975 -0.035995
v -0.017271 -0.161975 -0.035995
v 0.017271 -0.161975 -0.063966
v -0.017271 -0.161975 -0.063966
v 0.017510 -0.133521 -0.235027
v 0.017510 -0.133521 -0.260429
v -0.017510 -0.133521 -0.235027
v -0.017510 -0.133521 -0.260429
v -0.142631 -0.017510 -0.207792
v -0.142631 -0.017510 -0.260429
v -0.142631 0.017510 -0.207792
v -0.142631 0.017510 -0.260429
vt 0.083333 0.762025
vt 0.083333 0.980671
vt 0.000000 0.980670
vt 0.000000 0.762025
vt 0.166667 0.762025
vt 0.166667 0.980670
vt 0.250000 0.762025
vt 0.250000 0.980671
vt 0.333333 0.762025
vt 0.333333 0.980671
vt 0.416667 0.762025
vt 0.416667 0.980670
vt 0.500000 0.762025
vt 0.500000 0.980671
vt 0.583333 0.762025
vt 0.583333 0.980671
vt 0.666667 0.762025
vt 0.666667 0.980671
vt 0.750000 0.762025
vt 0.750000 0.980670
vt 0.833333 0.762025
vt 0.833333 0.980670
vt 0.916667 0.762025
vt 0.916667 0.980671
vt 1.000000 0.762025
vt 1.000000 0.980671
vt 1.000000 0.519329
vt 1.000000 0.608244
vt 0.916667 0.608244
vt 0.916667 0.519329
vt 0.833333 0.608245
vt 0.833333 0.519329
vt 0.750000 0.608244
vt 0.750000 0.519329
vt 0.666667 0.608245
vt 0.666667 0.519329
vt 0.583333 0.608245
vt 0.583333 0.519329
vt 0.500000 0.608245
vt 0.500000 0.519329
vt 0.416667 0.608245
vt 0.416667 0.519329
vt 0.333333 0.608245
vt 0.333333 0.519329
vt 0.250000 0.608244
vt 0.250000 0.519329
vt 0.166667 0.608244
vt 0.166667 0.519329
vt 0.083333 0.608245
vt 0.083333 0.519329
vt 0.000000 0.608244
vt 0.000000 0.519329
vt 0.416667 0.762025
vt 0.500000 0.762025
vt 0.083333 0.636443
vt 0.083333 0.732242
vt 0.000000 0.732242
vt 0.000000 0.636443
vt 0.166667 0.636443
vt 0.166667 0.732242
vt 0.250000 0.636443
vt 0.250000 0.732242
vt 0.333333 0.636443
vt 0.333333 0.732243
vt 0.416667 0.636443
vt 0.416667 0.732242
vt 0.583333 0.636443
vt 0.583333 0.732242
vt 0.500000 0.732243
vt 0.500000 0.636443
vt 0.666667 0.636443
vt 0.666667 0.732243
vt 0.750000 0.636443
vt 0.750000 0.732242
vt 0.833333 0.636443
vt 0.833333 0.732242
vt 0.916667 0.636443
vt 0.916667 0.732242
vt 1.000000 0.636443
vt 1.000000 0.732242
vt 1.000000 1.000000
vt 0.916667 1.000000
vt 0.833333 1.000000
vt 0.750000 1.000000
vt 0.666667 1.000000
vt 0.583333 1.000000
vt 0.500000 1.000000
vt 0.416667 1.000000
vt 0.333333 1.000000
vt 0.250000 1.000000
vt 0.166667 1.000000
vt 0.332990 0.393743
vt 0.250000 0.415980
vt 0.167010 0.393743
vt 0.106257 0.332990
vt 0.084020 0.250000
vt 0.106257 0.167010
vt 0.167010 0.106257
vt 0.250000 0.084020
vt 0.332990 0.106257
vt 0.393743 0.167010
vt 0.415980 0.250000
vt 0.393743 0.332990
vt 0.083333 1.000000
vt 0.000000 1.000000
vt 0.750000 0.415980
vt 0.832990 0.393743
vt 0.893743 0.332990
vt 0.915980 0.250000
vt 0.893743 0.167010
vt 0.832990 0.106257
vt 0.750000 0.084020
vt 0.667010 0.106257
vt 0.606257 0.167010
vt 0.584020 0.250000
vt 0.606257 0.332990
vt 0.667010 0.393743
vt 0.844949 0.414457
vt 0.750000 0.439898
vt 0.750000 0.490000
vt 0.870000 0.457846
vt 0.250000 0.439898
vt 0.344949 0.414457
vt 0.370000 0.457846
vt 0.250000 0.490000
vt 0.914457 0.344949
vt 0.957846 0.370000
vt 0.414457 0.344949
vt 0.457846 0.370000
vt 0.939898 0.250000
vt 0.990000 0.250000
vt 0.439898 0.250000
vt 0.490000 0.250000
vt 0.914457 0.155051
vt 0.957846 0.130000
vt 0.414457 0.155051
vt 0.457846 0.130000
vt 0.844949 0.085543
vt 0.870000 0.042154
vt 0.344949 0.085543
vt 0.370000 0.042154
vt 0.750000 0.060102
vt 0.750000 0.010000
vt 0.250000 0.060102
vt 0.250000 0.010000
vt 0.655051 0.085543
vt 0.630000 0.042154
vt 0.155051 0.085543
vt 0.130000 0.042154
vt 0.585543 0.155051
vt 0.542154 0.130000
vt 0.085543 0.155051
vt 0.042154 0.130000
vt 0.560102 0.250000
vt 0.510000 0.250000
vt 0.060102 0.250000
vt 0.010000 0.250000
vt 0.585543 0.344949
vt 0.542154 0.370000
vt 0.085543 0.344949
vt 0.042154 0.370000
vt 0.655051 0.414457
vt 0.630000 0.457846
vt 0.155051 0.414457
vt 0.130000 0.457846
vt 0.083333 0.500000
vt 0.000000 0.500000
vt 0.166667 0.500000
vt 0.250000 0.500000
vt 0.333333 0.500000
vt 0.416667 0.500000
vt 0.500000 0.500000
vt 0.583333 0.500000
vt 0.666667 0.500000
vt 0.750000 0.500000
vt 0.833333 0.500000
vt 0.916667 0.500000
vt 1.000000 0.500000
vt 0.416667 0.608245
vt 0.416667 0.636443
vt 0.500000 0.732243
vt 0.500000 0.762025
vt 0.500000 0.732243
vt 0.500000 0.608245
vt 0.500000 0.636443
vt 0.416667 0.732242
vt 0.250000 0.608244
vt 0.166667 0.608244
vt 0.500000 0.636443
vt 0.500000 0.608245
vt 0.416667 0.762025
vt 0.416667 0.732242
vt 0.416667 0.636443
vt 0.416667 0.608245
vt 0.250000 0.636443
vt 0.166667 0.636443
vn -0.4999 0.8658 0.0204
vn -0.8658 0.4999 0.0233
vn -0.9996 0.0000 0.0272
vn -0.8656 -0.4998 0.0312
vn -0.4997 -0.8655 0.0340
vn 0.0000 -0.9994 0.0351
vn 0.4997 -0.8655 0.0340
vn 0.8656 -0.4998 0.0312
vn 0.9996 0.0000 0.0272
vn 0.8658 0.4999 0.0233
vn 0.4999 0.8658 0.0204
vn -0.0000 0.9998 0.0193
vn 0.0000 1.0000 0.0000
vn 0.5000 0.8660 0.0000
vn 0.8660 0.5000 0.0000
vn 1.0000 0.0000 0.0000
vn 0.8660 -0.5000 0.0000
vn 0.5000 -0.8660 0.0000
vn 0.0000 -1.0000 -0.0000
vn -0.5000 -0.8660 -0.0000
vn -0.8660 -0.5000 -0.0000
vn -1.0000 0.0000 0.0000
vn -0.8660 0.5000 -0.0000
vn -0.5000 0.8660 -0.0000
vn 0.0000 0.0000 1.0000
vn -0.0000 0.0000 -1.0000
vn -0.0000 -0.0007 -1.0000
vn 0.0000 -0.0007 1.0000
vn -0.0003 -0.0006 -1.0000
vn -0.0003 -0.0006 1.0000
vn -0.0006 -0.0003 -1.0000
vn -0.0006 -0.0003 1.0000
vn -0.0007 -0.0000 -1.0000
vn -0.0007 -0.0000 1.0000
vn -0.0006 0.0003 -1.0000
vn -0.0006 0.0003 1.0000
vn -0.0003 0.0006 -1.0000
vn -0.0003 0.0006 1.0000
vn 0.0000 0.0007 -1.0000
vn 0.0000 0.0007 1.0000
vn 0.0003 0.0006 -1.0000
vn 0.0003 0.0006 1.0000
vn 0.0006 0.0003 -1.0000
vn 0.0006 0.0003 1.0000
vn 0.0007 -0.0000 -1.0000
vn 0.0007 0.0000 1.0000
vn 0.0006 -0.0003 -1.0000
vn 0.0006 -0.0003 1.0000
vn 0.0003 -0.0006 -1.0000
vn 0.0003 -0.0006 1.0000
vn -0.0000 -0.9998 -0.0197
vn 0.0000 -0.9999 0.0152
vn -0.4999 -0.8659 -0.0197
vn -0.4999 -0.8659 0.0152
vn -0.8659 -0.4999 -0.0197
vn -0.8659 -0.4999 0.0152
vn -0.9998 -0.0000 -0.0197
vn -0.9999 -0.0000 0.0152
vn -0.8659 0.4999 -0.0197
vn -0.8659 0.4999 0.0152
vn -0.4999 0.8659 -0.0197
vn -0.4999 0.8659 0.0152
vn -0.0000 0.9998 -0.0197
vn 0.0000 0.9999 0.0152
vn 0.4999 0.8659 -0.0197
vn 0.4999 0.8659 0.0152
vn 0.8659 0.4999 -0.0197
vn 0.8659 0.4999 0.0152
vn 0.9998 -0.0000 -0.0197
vn 0.9999 0.0000 0.0152
vn 0.8659 -0.4999 -0.0197
vn 0.8659 -0.4999 0.0152
vn 0.4999 -0.8659 -0.0197
vn 0.4999 -0.8659 0.0152
vn -0.0000 0.9998 0.0189
vn 0.4999 0.8659 0.0178
vn 0.8659 0.4999 0.0149
vn 0.9999 0.0000 0.0110
vn 0.8660 -0.5000 0.0071
vn 0.5000 -0.8660 0.0043
vn -0.5000 -0.8660 0.0043
vn -0.8660 -0.5000 0.0071
vn -0.9999 0.0000 0.0110
vn -0.8659 0.4999 0.0149
vn -0.4999 0.8659 0.0178
vn 1.0000 -0.0009 0.0022
vn 1.0000 0.0000 0.0030
vn -1.0000 -0.0000 0.0030
vn 0.0000 -0.5946 -0.8041
vn -1.0000 -0.0009 0.0022
vn 0.0000 -0.5329 0.8462
usemtl Material.001
s off
f 119/1/1 95/2/1 74/3/1 98/4/1
f 117/5/2 93/6/2 95/2/2 119/1/2
f 115/7/3 91/8/3 93/6/3 117/5/3
f 113/9/4 89/10/4 91/8/4 115/7/4
f 111/11/5 87/12/5 89/10/5 113/9/5
f 109/13/6 85/14/6 87/12/6 111/11/6
f 107/15/7 83/16/7 85/14/7 109/13/7
f 105/17/8 81/18/8 83/16/8 107/15/8
f 103/19/9 79/20/9 81/18/9 105/17/9
f 101/21/10 77/22/10 79/20/10 103/19/10
f 99/23/11 75/24/11 77/22/11 101/21/11
f 98/25/12 74/26/12 75/24/12 99/23/12
f 73/27/13 97/28/13 100/29/13 76/30/13
f 76/30/14 100/29/14 102/31/14 78/32/14
f 78/32/15 102/31/15 104/33/15 80/34/15
f 80/34/16 104/33/16 106/35/16 82/36/16
f 82/36/17 106/35/17 108/37/17 84/38/17
f 84/38/18 108/37/18 110/39/18 86/40/18
f 86/40/19 110/39/19 112/41/19 88/42/19
f 88/42/20 112/41/20 114/43/20 90/44/20
f 90/44/21 114/43/21 116/45/21 92/46/21
f 92/46/22 116/45/22 118/47/22 94/48/22
f 94/48/23 118/47/23 120/49/23 96/50/23
f 96/50/24 120/49/24 97/51/24 73/52/24
f 109/13/25 111/11/25 123/53/25 121/54/25
f 149/55/24 136/56/24 125/57/24 152/58/24
f 148/59/23 135/60/23 136/56/23 149/55/23
f 147/61/22 134/62/22 135/60/22 148/59/22
f 146/63/21 133/64/21 134/62/21 147/61/21
f 145/65/20 132/66/20 133/64/20 146/63/20
f 143/67/18 130/68/18 131/69/18 144/70/18
f 142/71/17 129/72/17 130/68/17 143/67/17
f 141/73/16 128/74/16 129/72/16 142/71/16
f 140/75/15 127/76/15 128/74/15 141/73/15
f 139/77/14 126/78/14 127/76/14 140/75/14
f 152/79/13 125/80/13 126/78/13 139/77/13
usemtl Material.002
f 74/26/13 28/81/13 27/82/13 75/24/13
f 75/24/14 27/82/14 30/83/14 77/22/14
f 77/22/15 30/83/15 32/84/15 79/20/15
f 79/20/16 32/84/16 34/85/16 81/18/16
f 81/18/17 34/85/17 36/86/17 83/16/17
f 83/16/18 36/86/18 38/87/18 85/14/18
f 85/14/19 38/87/19 40/88/19 87/12/19
f 87/12/20 40/88/20 42/89/20 89/10/20
f 89/10/21 42/89/21 44/90/21 91/8/21
f 91/8/22 44/90/22 46/91/22 93/6/22
f 4/92/25 2/93/25 24/94/25 22/95/25 20/96/25 18/97/25 16/98/25 14/99/25 12/100/25 10/101/25 8/102/25 6/103/25
f 93/6/23 46/91/23 48/104/23 95/2/23
f 95/2/24 48/104/24 28/105/24 74/3/24
f 1/106/26 3/107/26 5/108/26 7/109/26 9/110/26 11/111/26 13/112/26 15/113/26 17/114/26 19/115/26 21/116/26 23/117/26
f 50/118/27 49/119/27 25/120/27 26/121/27
f 52/122/28 51/123/28 27/124/28 28/125/28
f 53/126/29 50/118/29 26/121/29 29/127/29
f 51/123/30 54/128/30 30/129/30 27/124/30
f 55/130/31 53/126/31 29/127/31 31/131/31
f 54/128/32 56/132/32 32/133/32 30/129/32
f 57/134/33 55/130/33 31/131/33 33/135/33
f 56/132/34 58/136/34 34/137/34 32/133/34
f 59/138/35 57/134/35 33/135/35 35/139/35
f 58/136/36 60/140/36 36/141/36 34/137/36
f 61/142/37 59/138/37 35/139/37 37/143/37
f 60/140/38 62/144/38 38/145/38 36/141/38
f 63/146/39 61/142/39 37/143/39 39/147/39
f 62/144/40 64/148/40 40/149/40 38/145/40
f 65/150/41 63/146/41 39/147/41 41/151/41
f 64/148/42 66/152/42 42/153/42 40/149/42
f 67/154/43 65/150/43 41/151/43 43/155/43
f 66/152/44 68/156/44 44/157/44 42/153/44
f 69/158/45 67/154/45 43/155/45 45/159/45
f 68/156/46 70/160/46 46/161/46 44/157/46
f 71/162/47 69/158/47 45/159/47 47/163/47
f 70/160/48 72/164/48 48/165/48 46/161/48
f 49/119/49 71/162/49 47/163/49 25/120/49
f 72/164/50 52/122/50 28/125/50 48/165/50
f 3/107/51 1/106/51 49/119/51 50/118/51
f 2/93/52 4/92/52 51/123/52 52/122/52
f 5/108/53 3/107/53 50/118/53 53/126/53
f 4/92/54 6/103/54 54/128/54 51/123/54
f 7/109/55 5/108/55 53/126/55 55/130/55
f 6/103/56 8/102/56 56/132/56 54/128/56
f 9/110/57 7/109/57 55/130/57 57/134/57
f 8/102/58 10/101/58 58/136/58 56/132/58
f 11/111/59 9/110/59 57/134/59 59/138/59
f 10/101/60 12/100/60 60/140/60 58/136/60
f 13/112/61 11/111/61 59/138/61 61/142/61
f 12/100/62 14/99/62 62/144/62 60/140/62
f 15/113/63 13/112/63 61/142/63 63/146/63
f 14/99/64 16/98/64 64/148/64 62/144/64
f 17/114/65 15/113/65 63/146/65 65/150/65
f 16/98/66 18/97/66 66/152/66 64/148/66
f 19/115/67 17/114/67 65/150/67 67/154/67
f 18/97/68 20/96/68 68/156/68 66/152/68
f 21/116/69 19/115/69 67/154/69 69/158/69
f 20/96/70 22/95/70 70/160/70 68/156/70
f 23/117/71 21/116/71 69/158/71 71/162/71
f 22/95/72 24/94/72 72/164/72 70/160/72
f 1/106/73 23/117/73 71/162/73 49/119/73
f 24/94/74 2/93/74 52/122/74 72/164/74
f 47/166/24 96/50/24 73/52/24 25/167/24
f 45/168/23 94/48/23 96/50/23 47/166/23
f 43/169/22 92/46/22 94/48/22 45/168/22
f 41/170/21 90/44/21 92/46/21 43/169/21
f 39/171/20 88/42/20 90/44/20 41/170/20
f 37/172/19 86/40/19 88/42/19 39/171/19
f 35/173/18 84/38/18 86/40/18 37/172/18
f 33/174/17 82/36/17 84/38/17 35/173/17
f 31/175/16 80/34/16 82/36/16 33/174/16
f 29/176/15 78/32/15 80/34/15 31/175/15
f 26/177/14 76/30/14 78/32/14 29/176/14
f 25/178/13 73/27/13 76/30/13 26/177/13
f 125/80/75 98/25/75 99/23/75 126/78/75
f 126/78/76 99/23/76 101/21/76 127/76/76
f 127/76/77 101/21/77 103/19/77 128/74/77
f 128/74/78 103/19/78 105/17/78 129/72/78
f 129/72/79 105/17/79 107/15/79 130/68/79
f 130/68/80 107/15/80 109/13/80 131/69/80
f 145/65/22 112/41/22 124/179/22 151/180/22
f 132/66/81 111/11/81 113/9/81 133/64/81
f 133/64/82 113/9/82 115/7/82 134/62/82
f 134/62/83 115/7/83 117/5/83 135/60/83
f 135/60/84 117/5/84 119/1/84 136/56/84
f 136/56/85 119/1/85 98/4/85 125/57/85
f 137/181/86 121/54/86 153/182/86 155/183/86
f 131/69/87 109/13/87 121/54/87 137/181/87
f 112/41/26 110/39/26 122/184/26 124/179/26
f 144/70/16 131/69/16 137/181/16 150/185/16
f 150/185/19 137/181/19 138/186/19 151/180/19
f 111/11/88 132/66/88 138/186/88 123/53/88
f 97/28/13 152/79/13 139/77/13 100/29/13
f 100/29/14 139/77/14 140/75/14 102/31/14
f 102/31/15 140/75/15 141/73/15 104/33/15
f 104/33/16 141/73/16 142/71/16 106/35/16
f 106/35/17 142/71/17 143/67/17 108/37/17
f 108/37/18 143/67/18 144/70/18 110/39/18
f 112/41/20 145/65/20 146/63/20 114/43/20
f 114/43/21 146/63/21 147/61/21 116/45/21
f 118/47/26 116/45/26 162/187/26 164/188/26
f 118/47/23 148/59/23 149/55/23 120/49/23
f 120/49/24 149/55/24 152/58/24 97/51/24
f 122/184/16 150/185/16 157/189/16 158/190/16
f 110/39/16 144/70/16 150/185/16 122/184/16
f 132/66/22 145/65/22 151/180/22 138/186/22
f 155/183/19 153/182/19 154/191/19 156/192/19
f 121/54/25 123/53/25 154/191/25 153/182/25
f 138/186/89 137/181/89 155/183/89 156/192/89
f 123/53/90 138/186/90 156/192/90 154/191/90
f 158/190/19 157/189/19 159/193/19 160/194/19
f 151/180/22 124/179/22 160/194/22 159/193/22
f 150/185/91 151/180/91 159/193/91 157/189/91
f 124/179/26 122/184/26 158/190/26 160/194/26
f 162/187/22 161/195/22 163/196/22 164/188/22
f 147/61/25 148/59/25 163/196/25 161/195/25
f 148/59/13 118/47/13 164/188/13 163/196/13
f 116/45/19 147/61/19 161/195/19 162/187/19
