# Blender v3.3.1 OBJ File: ''
# www.blender.org
mtllib ap_mine.mtl
o Cylinder
v 0.000000 -0.030095 -0.171463
v 0.000000 0.084261 -0.054731
v 0.085731 -0.030095 -0.148491
v 0.027366 0.084261 -0.047399
v 0.148491 -0.030095 -0.085731
v 0.047399 0.084261 -0.027366
v 0.171463 -0.030095 0.000000
v 0.054731 0.084261 0.000000
v 0.148491 -0.030095 0.085731
v 0.047399 0.084261 0.027366
v 0.085731 -0.030095 0.148491
v 0.027366 0.084261 0.047399
v 0.000000 -0.030095 0.171463
v 0.000000 0.084261 0.054731
v -0.085731 -0.030095 0.148491
v -0.027366 0.084261 0.047399
v -0.148491 -0.030095 0.085731
v -0.047399 0.084261 0.027366
v -0.171463 -0.030095 0.000000
v -0.054731 0.084261 0.000000
v -0.148491 -0.030095 -0.085731
v -0.047399 0.084261 -0.027366
v -0.085731 -0.030095 -0.148491
v -0.027366 0.084261 -0.047399
v 0.079507 0.030095 -0.137710
v 0.000000 0.030095 -0.159014
v 0.137710 0.030095 -0.079507
v 0.159014 0.030095 0.000000
v 0.137710 0.030095 0.079507
v 0.079507 0.030095 0.137710
v 0.000000 0.030095 0.159014
v -0.079507 0.030095 0.137710
v -0.137710 0.030095 0.079507
v -0.159014 0.030095 0.000000
v -0.137710 0.030095 -0.079507
v -0.079507 0.030095 -0.137710
v 0.042229 0.045718 -0.073143
v 0.000000 0.045718 -0.084459
v 0.073143 0.045718 -0.042229
v 0.084459 0.045718 0.000000
v 0.073143 0.045718 0.042229
v 0.042229 0.045718 0.073143
v 0.000000 0.045718 0.084459
v -0.042229 0.045718 0.073143
v -0.073143 0.045718 0.042229
v -0.084459 0.045718 0.000000
v -0.073143 0.045718 -0.042229
v -0.042229 0.045718 -0.073143
v 0.000000 0.045718 -0.099288
v 0.049644 0.045718 -0.085986
v 0.085986 0.045718 -0.049644
v 0.099288 0.045718 0.000000
v 0.085986 0.045718 0.049644
v 0.049644 0.045718 0.085986
v 0.000000 0.045718 0.099288
v -0.049644 0.045718 0.085986
v -0.085986 0.045718 0.049644
v -0.099288 0.045718 0.000000
v -0.085986 0.045718 -0.049644
v -0.049644 0.045718 -0.085986
v 0.000000 0.019368 -0.161232
v 0.080616 0.019368 -0.139631
v 0.139631 0.019368 -0.080616
v 0.161232 0.019368 0.000000
v 0.139631 0.019368 0.080616
v 0.080616 0.019368 0.139631
v 0.000000 0.019368 0.161232
v -0.080616 0.019368 0.139631
v -0.139631 0.019368 0.080616
v -0.161232 0.019368 0.000000
v -0.139631 0.019368 -0.080616
v -0.080616 0.019368 -0.139631
v 0.036562 0.084261 -0.063328
v 0.000000 0.084261 -0.073125
v 0.063328 0.084261 -0.036562
v 0.073125 0.084261 0.000000
v 0.063328 0.084261 0.036562
v 0.036562 0.084261 0.063328
v 0.000000 0.084261 0.073125
v -0.036562 0.084261 0.063328
v -0.063328 0.084261 0.036562
v -0.073125 0.084261 0.000000
v -0.063328 0.084261 -0.036562
v -0.036562 0.084261 -0.063328
v -0.164681 -0.032255 -0.019353
v -0.164681 0.325198 -0.008358
v -0.147921 -0.032255 -0.009677
v -0.157443 0.325198 -0.004179
v -0.147921 -0.032255 0.009677
v -0.157443 0.325198 0.004179
v -0.164681 -0.032255 0.019353
v -0.164681 0.325198 0.008358
v -0.181442 -0.032255 0.009677
v -0.171920 0.325198 0.004179
v -0.181442 -0.032255 -0.009677
v -0.171920 0.325198 -0.004179
v -0.147921 0.032255 -0.009677
v -0.164681 0.032255 -0.019353
v -0.147921 0.032255 0.009677
v -0.164681 0.032255 0.019353
v -0.181442 0.032255 0.009677
v -0.181442 0.032255 -0.009677
v -0.152350 0.032255 -0.007119
v -0.164681 0.032255 -0.014238
v -0.152350 0.032255 0.007119
v -0.164681 0.032255 0.014238
v -0.177012 0.032255 0.007119
v -0.177012 0.032255 -0.007119
v -0.154211 0.291034 -0.006045
v -0.164681 0.291034 -0.012090
v -0.154211 0.291034 0.006045
v -0.164681 0.291034 0.012090
v -0.175151 0.291034 0.006045
v -0.175151 0.291034 -0.006045
v -0.164681 0.282728 -0.012159
v -0.154152 0.282728 -0.006079
v -0.154152 0.282728 0.006079
v -0.164681 0.282728 0.012159
v -0.175211 0.282728 0.006079
v -0.175211 0.282728 -0.006079
vt 0.750000 0.490000
vt 0.870000 0.457846
vt 0.957846 0.370000
vt 0.990000 0.250000
vt 0.957846 0.130000
vt 0.870000 0.042154
vt 0.750000 0.010000
vt 0.630000 0.042154
vt 0.542154 0.130000
vt 0.510000 0.250000
vt 0.542154 0.370000
vt 0.630000 0.457846
vt 0.250000 0.379307
vt 0.314654 0.361983
vt 0.370000 0.457846
vt 0.250000 0.490000
vt 0.361983 0.314654
vt 0.457846 0.370000
vt 0.379307 0.250000
vt 0.490000 0.250000
vt 0.361983 0.185346
vt 0.457846 0.130000
vt 0.314654 0.138017
vt 0.370000 0.042154
vt 0.250000 0.120693
vt 0.250000 0.010000
vt 0.185346 0.138017
vt 0.130000 0.042154
vt 0.138017 0.185346
vt 0.042154 0.130000
vt 0.120693 0.250000
vt 0.010000 0.250000
vt 0.138017 0.314654
vt 0.042154 0.370000
vt 0.185346 0.361983
vt 0.130000 0.457846
vt 0.250000 0.345233
vt 0.297617 0.332475
vt 0.304997 0.345258
vt 0.250000 0.359994
vt 0.332475 0.297617
vt 0.345258 0.304997
vt 0.345234 0.250000
vt 0.359994 0.250000
vt 0.332475 0.202383
vt 0.345258 0.195003
vt 0.297617 0.167525
vt 0.304997 0.154742
vt 0.250000 0.154766
vt 0.250000 0.140006
vt 0.202383 0.167525
vt 0.195003 0.154742
vt 0.167525 0.202383
vt 0.154742 0.195003
vt 0.154766 0.250000
vt 0.140006 0.250000
vt 0.167525 0.297617
vt 0.154742 0.304997
vt 0.202383 0.332475
vt 0.195003 0.345258
vt 0.083333 0.500000
vt 0.083333 0.910891
vt 0.000000 0.910891
vt 0.000000 0.500000
vt 0.166667 0.500000
vt 0.166667 0.910891
vt 0.250000 0.500000
vt 0.250000 0.910891
vt 0.333333 0.500000
vt 0.333333 0.910891
vt 0.416667 0.500000
vt 0.416667 0.910891
vt 0.500000 0.500000
vt 0.500000 0.910891
vt 0.583333 0.500000
vt 0.583333 0.910891
vt 0.666667 0.500000
vt 0.666667 0.910891
vt 0.750000 0.500000
vt 0.750000 0.910891
vt 0.833333 0.500000
vt 0.833333 0.910891
vt 0.916667 0.500000
vt 0.916667 0.910891
vt 1.000000 0.500000
vt 1.000000 0.910891
vt 0.833333 0.500000
vt 0.833333 1.000000
vt 0.666667 1.000000
vt 0.666667 0.500000
vt 0.750000 0.490000
vt 0.957846 0.370000
vt 0.957846 0.130000
vt 0.750000 0.010000
vt 0.542154 0.130000
vt 0.542154 0.370000
vt 0.250000 0.426571
vt 0.402915 0.338286
vt 0.457846 0.370000
vt 0.250000 0.490000
vt 0.402915 0.161714
vt 0.457846 0.130000
vt 0.250000 0.073429
vt 0.250000 0.010000
vt 0.097085 0.161714
vt 0.042154 0.130000
vt 0.097085 0.338286
vt 0.042154 0.370000
vt 0.250000 0.400780
vt 0.380579 0.325390
vt 0.380579 0.174610
vt 0.250000 0.099220
vt 0.119421 0.174610
vt 0.119421 0.325390
vt 1.000000 1.000000
vt 0.916667 1.000000
vt 0.833333 1.000000
vt 0.750000 1.000000
vt 0.666667 1.000000
vt 0.583333 1.000000
vt 0.500000 1.000000
vt 0.416667 1.000000
vt 0.333333 1.000000
vt 0.250000 1.000000
vt 0.166667 1.000000
vt 0.083333 1.000000
vt 0.000000 1.000000
vt 0.250000 0.321279
vt 0.285639 0.311729
vt 0.311729 0.285639
vt 0.321279 0.250000
vt 0.311729 0.214361
vt 0.285639 0.188271
vt 0.250000 0.178721
vt 0.214361 0.188271
vt 0.188271 0.214361
vt 0.178721 0.250000
vt 0.188271 0.285639
vt 0.214361 0.311729
vt 1.000000 0.500000
vt 1.000000 1.000000
vt 0.500000 1.000000
vt 0.500000 0.500000
vt 0.333333 1.000000
vt 0.333333 0.500000
vt 0.166667 1.000000
vt 0.166667 0.500000
vt -0.000000 1.000000
vt -0.000000 0.500000
vt 0.120161 0.324962
vt 0.250000 0.399925
vt 0.120161 0.175038
vt 0.250000 0.100075
vt 0.379839 0.175038
vt 0.379839 0.324962
vt 0.339764 0.301825
vt 0.250000 0.353650
vt 0.160236 0.301825
vt 0.160236 0.198175
vt 0.250000 0.146350
vt 0.339764 0.198175
vn 0.0000 -1.0000 0.0000
vn 0.0677 0.9652 -0.2525
vn 0.1848 0.9652 -0.1848
vn 0.2525 0.9652 -0.0677
vn 0.2525 0.9652 0.0677
vn 0.1848 0.9652 0.1848
vn 0.0677 0.9652 0.2525
vn -0.0677 0.9652 0.2525
vn -0.1848 0.9652 0.1848
vn -0.2525 0.9652 0.0677
vn -0.2525 0.9652 -0.0677
vn -0.1848 0.9652 -0.1848
vn -0.0677 0.9652 -0.2525
vn 0.2490 0.2732 -0.9292
vn 0.6802 0.2732 -0.6802
vn 0.9292 0.2732 -0.2490
vn 0.9292 0.2732 0.2490
vn 0.6802 0.2732 0.6802
vn 0.2490 0.2732 0.9292
vn -0.2490 0.2732 0.9292
vn -0.6802 0.2732 0.6802
vn -0.9292 0.2732 0.2490
vn -0.9292 0.2732 -0.2490
vn -0.6802 0.2732 -0.6802
vn -0.2490 0.2732 -0.9292
vn -0.2538 0.1959 -0.9472
vn -0.6934 0.1959 -0.6934
vn -0.9472 0.1959 -0.2538
vn -0.9472 0.1959 0.2538
vn -0.6934 0.1959 0.6934
vn -0.2538 0.1959 0.9472
vn 0.2538 0.1959 0.9472
vn 0.6934 0.1959 0.6934
vn 0.9472 0.1959 0.2538
vn 0.9472 0.1959 -0.2538
vn 0.6934 0.1959 -0.6934
vn 0.2538 0.1959 -0.9472
vn 1.0000 0.0000 0.0000
vn 0.0000 1.0000 0.0000
vn 0.5000 0.0072 -0.8660
vn 1.0000 0.0072 0.0000
vn 0.5000 0.0072 0.8660
vn -0.5000 0.0072 0.8660
vn -1.0000 0.0072 0.0000
vn -0.5000 0.0072 -0.8660
vn 0.5000 0.0000 -0.8660
vn 0.5000 0.0000 0.8660
vn -0.5000 0.0000 0.8660
vn -1.0000 0.0000 0.0000
vn -0.5000 0.0000 -0.8660
vn 0.4978 0.0942 -0.8622
vn 0.9956 0.0942 0.0000
vn 0.4978 0.0942 0.8622
vn -0.4978 0.0942 0.8622
vn -0.9956 0.0942 0.0000
vn -0.4978 0.0942 -0.8622
usemtl Material.001
s off
f 1/1/1 3/2/1 5/3/1 7/4/1 9/5/1 11/6/1 13/7/1 15/8/1 17/9/1 19/10/1 21/11/1 23/12/1
f 49/13/2 50/14/2 25/15/2 26/16/2
f 50/14/3 51/17/3 27/18/3 25/15/3
f 51/17/4 52/19/4 28/20/4 27/18/4
f 52/19/5 53/21/5 29/22/5 28/20/5
f 53/21/6 54/23/6 30/24/6 29/22/6
f 54/23/7 55/25/7 31/26/7 30/24/7
f 55/25/8 56/27/8 32/28/8 31/26/8
f 56/27/9 57/29/9 33/30/9 32/28/9
f 57/29/10 58/31/10 34/32/10 33/30/10
f 58/31/11 59/33/11 35/34/11 34/32/11
f 59/33/12 60/35/12 36/36/12 35/34/12
f 60/35/13 49/13/13 26/16/13 36/36/13
f 74/37/14 73/38/14 37/39/14 38/40/14
f 73/38/15 75/41/15 39/42/15 37/39/15
f 75/41/16 76/43/16 40/44/16 39/42/16
f 76/43/17 77/45/17 41/46/17 40/44/17
f 77/45/18 78/47/18 42/48/18 41/46/18
f 78/47/19 79/49/19 43/50/19 42/48/19
f 79/49/20 80/51/20 44/52/20 43/50/20
f 80/51/21 81/53/21 45/54/21 44/52/21
f 81/53/22 82/55/22 46/56/22 45/54/22
f 82/55/23 83/57/23 47/58/23 46/56/23
f 83/57/24 84/59/24 48/60/24 47/58/24
f 84/59/25 74/37/25 38/40/25 48/60/25
f 23/61/26 72/62/26 61/63/26 1/64/26
f 21/65/27 71/66/27 72/62/27 23/61/27
f 19/67/28 70/68/28 71/66/28 21/65/28
f 17/69/29 69/70/29 70/68/29 19/67/29
f 15/71/30 68/72/30 69/70/30 17/69/30
f 13/73/31 67/74/31 68/72/31 15/71/31
f 11/75/32 66/76/32 67/74/32 13/73/32
f 9/77/33 65/78/33 66/76/33 11/75/33
f 7/79/34 64/80/34 65/78/34 9/77/34
f 5/81/35 63/82/35 64/80/35 7/79/35
f 3/83/36 62/84/36 63/82/36 5/81/36
f 1/85/37 61/86/37 62/84/37 3/83/37
f 87/87/38 97/88/38 99/89/38 89/90/38
f 85/91/1 87/92/1 89/93/1 91/94/1 93/95/1 95/96/1
f 104/97/39 103/98/39 97/99/39 98/100/39
f 103/98/39 105/101/39 99/102/39 97/99/39
f 105/101/39 106/103/39 100/104/39 99/102/39
f 106/103/39 107/105/39 101/106/39 100/104/39
f 107/105/39 108/107/39 102/108/39 101/106/39
f 108/107/39 104/97/39 98/100/39 102/108/39
f 115/109/40 116/110/40 103/98/40 104/97/40
f 116/110/41 117/111/41 105/101/41 103/98/41
f 117/111/42 118/112/42 106/103/42 105/101/42
f 118/112/43 119/113/43 107/105/43 106/103/43
f 119/113/44 120/114/44 108/107/44 107/105/44
f 120/114/45 115/109/45 104/97/45 108/107/45
usemtl Material.002
f 61/86/37 26/115/37 25/116/37 62/84/37
f 62/84/36 25/116/36 27/117/36 63/82/36
f 63/82/35 27/117/35 28/118/35 64/80/35
f 64/80/34 28/118/34 29/119/34 65/78/34
f 65/78/33 29/119/33 30/120/33 66/76/33
f 66/76/32 30/120/32 31/121/32 67/74/32
f 67/74/31 31/121/31 32/122/31 68/72/31
f 68/72/30 32/122/30 33/123/30 69/70/30
f 69/70/29 33/123/29 34/124/29 70/68/29
f 70/68/28 34/124/28 35/125/28 71/66/28
f 71/66/27 35/125/27 36/126/27 72/62/27
f 72/62/26 36/126/26 26/127/26 61/63/26
f 48/60/39 38/40/39 49/13/39 60/35/39
f 47/58/39 48/60/39 60/35/39 59/33/39
f 46/56/39 47/58/39 59/33/39 58/31/39
f 45/54/39 46/56/39 58/31/39 57/29/39
f 44/52/39 45/54/39 57/29/39 56/27/39
f 43/50/39 44/52/39 56/27/39 55/25/39
f 42/48/39 43/50/39 55/25/39 54/23/39
f 41/46/39 42/48/39 54/23/39 53/21/39
f 40/44/39 41/46/39 53/21/39 52/19/39
f 39/42/39 40/44/39 52/19/39 51/17/39
f 37/39/39 39/42/39 51/17/39 50/14/39
f 38/40/39 37/39/39 50/14/39 49/13/39
f 2/128/39 4/129/39 73/38/39 74/37/39
f 4/129/39 6/130/39 75/41/39 73/38/39
f 6/130/39 8/131/39 76/43/39 75/41/39
f 8/131/39 10/132/39 77/45/39 76/43/39
f 10/132/39 12/133/39 78/47/39 77/45/39
f 12/133/39 14/134/39 79/49/39 78/47/39
f 14/134/39 16/135/39 80/51/39 79/49/39
f 16/135/39 18/136/39 81/53/39 80/51/39
f 18/136/39 20/137/39 82/55/39 81/53/39
f 20/137/39 22/138/39 83/57/39 82/55/39
f 22/138/39 24/139/39 84/59/39 83/57/39
f 24/139/39 2/128/39 74/37/39 84/59/39
f 85/140/46 98/141/46 97/88/46 87/87/46
f 89/90/47 99/89/47 100/142/47 91/143/47
f 91/143/48 100/142/48 101/144/48 93/145/48
f 93/145/49 101/144/49 102/146/49 95/147/49
f 95/147/50 102/146/50 98/148/50 85/149/50
f 114/150/45 110/151/45 115/109/45 120/114/45
f 113/152/44 114/150/44 120/114/44 119/113/44
f 112/153/43 113/152/43 119/113/43 118/112/43
f 111/154/42 112/153/42 118/112/42 117/111/42
f 109/155/41 111/154/41 117/111/41 116/110/41
f 110/151/40 109/155/40 116/110/40 115/109/40
usemtl Material.003
f 4/129/39 2/128/39 24/139/39 22/138/39 20/137/39 18/136/39 16/135/39 14/134/39 12/133/39 10/132/39 8/131/39 6/130/39
f 88/156/39 86/157/39 96/158/39 94/159/39 92/160/39 90/161/39
f 86/157/51 88/156/51 109/155/51 110/151/51
f 88/156/52 90/161/52 111/154/52 109/155/52
f 90/161/53 92/160/53 112/153/53 111/154/53
f 92/160/54 94/159/54 113/152/54 112/153/54
f 94/159/55 96/158/55 114/150/55 113/152/55
f 96/158/56 86/157/56 110/151/56 114/150/56
