# Blender v3.3.0 OBJ File: ''
# www.blender.org
mtllib mine_bag.mtl
o Cube.001
v -0.293642 -0.191450 0.087516
v -0.293642 0.136085 0.087516
v -0.293642 0.136085 -0.110918
v -0.293642 -0.191450 -0.110918
v -0.269781 -0.191450 -0.119695
v -0.269781 0.136085 -0.119695
v 0.269715 0.136085 -0.119695
v 0.269715 -0.191450 -0.119695
v 0.293576 -0.191450 -0.110918
v 0.293576 0.136085 -0.110918
v 0.293576 0.136085 0.087516
v 0.293576 -0.191450 0.087516
v 0.269715 -0.191450 0.096293
v 0.269715 0.136085 0.096293
v -0.269781 0.136085 0.096293
v -0.269781 -0.191450 0.096293
v 0.266571 0.093126 -0.109762
v -0.266638 0.093126 -0.109762
v -0.266638 0.093126 0.086360
v 0.266571 0.093126 0.086360
v -0.270086 0.159945 0.087629
v -0.270086 0.159945 -0.111031
v -0.293642 0.159945 -0.119695
v -0.293642 0.159945 0.096293
v 0.270020 0.159945 -0.111031
v 0.293576 0.159945 -0.119695
v 0.270020 0.159945 0.087629
v 0.293576 0.159945 0.096293
v -0.293642 -0.215310 -0.119695
v 0.293576 -0.215310 -0.119695
v 0.293576 -0.215310 0.096293
v -0.293642 -0.215310 0.096293
v 0.000000 0.071786 -0.158046
v 0.000000 0.108886 -0.105315
v 0.066050 0.044427 -0.158046
v 0.092284 0.070661 -0.105315
v 0.093409 -0.021623 -0.158046
v 0.130509 -0.021623 -0.105315
v 0.066050 -0.087673 -0.158046
v 0.092284 -0.113907 -0.105315
v 0.000000 -0.115032 -0.158046
v 0.000000 -0.152132 -0.105315
v -0.066050 -0.087673 -0.158046
v -0.092284 -0.113907 -0.105315
v -0.093409 -0.021623 -0.158046
v -0.130509 -0.021623 -0.105315
v -0.066050 0.044427 -0.158046
v -0.092284 0.070661 -0.105315
v 0.000000 0.108886 -0.138352
v 0.092284 0.070660 -0.138352
v 0.130509 -0.021623 -0.138352
v 0.092284 -0.113907 -0.138352
v 0.000000 -0.152132 -0.138352
v -0.092284 -0.113907 -0.138352
v -0.130509 -0.021623 -0.138352
v -0.092284 0.070660 -0.138352
vt 0.419706 0.419706
vt 0.250000 0.490000
vt 0.080294 0.419706
vt 0.010000 0.250000
vt 0.080294 0.080294
vt 0.250000 0.010000
vt 0.419706 0.080294
vt 0.490000 0.250000
vt 0.390896 0.010158
vt 0.609104 0.010158
vt 0.609104 0.239842
vt 0.390896 0.239842
vt 0.390896 0.260158
vt 0.609104 0.260158
vt 0.609104 0.489842
vt 0.390896 0.489842
vt 0.390896 0.510158
vt 0.609104 0.510158
vt 0.609104 0.739842
vt 0.390896 0.739842
vt 0.390896 0.760158
vt 0.609104 0.760158
vt 0.609104 0.989842
vt 0.390896 0.989842
vt 0.636497 0.511497
vt 0.863503 0.511497
vt 0.863503 0.738503
vt 0.636497 0.738503
vt 0.864971 0.739971
vt 0.864971 0.510029
vt 0.875000 0.500000
vt 0.875000 0.750000
vt 0.635029 0.510029
vt 0.625000 0.500000
vt 0.635029 0.739971
vt 0.625000 0.750000
vt 1.000000 0.500000
vt 1.000000 1.000000
vt 0.875000 1.000000
vt 0.875000 0.500000
vt 0.750000 1.000000
vt 0.750000 0.500000
vt 0.625000 1.000000
vt 0.625000 0.500000
vt 0.500000 1.000000
vt 0.500000 0.500000
vt 0.375000 1.000000
vt 0.375000 0.500000
vt 0.250000 1.000000
vt 0.250000 0.500000
vt 0.125000 1.000000
vt 0.125000 0.500000
vt 0.000000 1.000000
vt 0.000000 0.500000
vt 0.871463 0.371464
vt 0.750000 0.421775
vt 0.750000 0.490000
vt 0.919706 0.419706
vt 0.921775 0.250000
vt 0.990000 0.250000
vt 0.871463 0.128536
vt 0.919706 0.080294
vt 0.750000 0.078225
vt 0.750000 0.010000
vt 0.628536 0.128536
vt 0.580294 0.080294
vt 0.578225 0.250000
vt 0.510000 0.250000
vt 0.628536 0.371464
vt 0.580294 0.419706
vt 0.375000 0.250000
vt 0.625000 0.250000
vt 0.375000 0.500000
vt 0.375000 0.750000
vt 0.625000 1.000000
vt 0.375000 1.000000
vt 0.375000 0.000000
vt 0.625000 0.000000
vn 0.0000 -0.0000 1.0000
vn -1.0000 0.0000 0.0000
vn 0.0000 0.0000 -1.0000
vn 1.0000 -0.0000 0.0000
vn 0.0000 1.0000 0.0000
vn 0.9987 0.0515 0.0000
vn 0.0000 0.0190 0.9998
vn -0.9987 0.0515 0.0000
vn 0.0000 0.0190 -0.9998
vn 0.3827 0.9239 0.0000
vn 0.9239 0.3827 -0.0000
vn 0.9239 -0.3827 0.0000
vn 0.3827 -0.9239 0.0000
vn -0.3827 -0.9239 0.0000
vn -0.9239 -0.3827 0.0000
vn -0.9239 0.3827 -0.0000
vn -0.3827 0.9239 0.0000
vn 0.1907 0.4603 -0.8671
vn 0.4603 0.1907 -0.8671
vn 0.4603 -0.1907 -0.8671
vn 0.1907 -0.4603 -0.8671
vn -0.1907 -0.4603 -0.8671
vn -0.4603 -0.1907 -0.8671
vn -0.4603 0.1907 -0.8671
vn -0.1907 0.4603 -0.8671
usemtl Material.004
s off
f 36/1/1 34/2/1 48/3/1 46/4/1 44/5/1 42/6/1 40/7/1 38/8/1
s 1
f 1/9/2 2/10/2 3/11/2 4/12/2
f 5/13/3 6/14/3 7/15/3 8/16/3
f 9/17/4 10/18/4 11/19/4 12/20/4
f 13/21/1 14/22/1 15/23/1 16/24/1
f 17/25/5 18/26/5 19/27/5 20/28/5
f 21/29/5 22/30/5 23/31/5 24/32/5
f 22/30/5 25/33/5 26/34/5 23/31/5
f 25/33/5 27/35/5 28/36/5 26/34/5
f 27/35/5 21/29/5 24/32/5 28/36/5
f 19/27/6 18/26/6 22/30/6 21/29/6
f 18/26/7 17/25/7 25/33/7 22/30/7
f 17/25/8 20/28/8 27/35/8 25/33/8
f 20/28/9 19/27/9 21/29/9 27/35/9
usemtl Material.005
s off
f 49/37/10 34/38/10 36/39/10 50/40/10
f 50/40/11 36/39/11 38/41/11 51/42/11
f 51/42/12 38/41/12 40/43/12 52/44/12
f 52/44/13 40/43/13 42/45/13 53/46/13
f 53/46/14 42/45/14 44/47/14 54/48/14
f 54/48/15 44/47/15 46/49/15 55/50/15
f 55/50/16 46/49/16 48/51/16 56/52/16
f 56/52/17 48/51/17 34/53/17 49/54/17
f 35/55/18 33/56/18 49/57/18 50/58/18
f 37/59/19 35/55/19 50/58/19 51/60/19
f 39/61/20 37/59/20 51/60/20 52/62/20
f 41/63/21 39/61/21 52/62/21 53/64/21
f 43/65/22 41/63/22 53/64/22 54/66/22
f 45/67/23 43/65/23 54/66/23 55/68/23
f 47/69/24 45/67/24 55/68/24 56/70/24
f 33/56/25 47/69/25 56/70/25 49/57/25
s 1
f 6/14/3 5/13/3 29/71/3 23/72/3
f 5/13/3 8/16/3 30/73/3 29/71/3
f 7/15/3 6/14/3 23/72/3 26/34/3
f 8/16/3 7/15/3 26/34/3 30/73/3
f 10/18/4 9/17/4 30/73/4 26/34/4
f 9/17/4 12/20/4 31/74/4 30/73/4
f 11/19/4 10/18/4 26/34/4 28/36/4
f 12/20/4 11/19/4 28/36/4 31/74/4
f 16/24/1 15/23/1 24/75/1 32/76/1
f 14/22/1 13/21/1 31/74/1 28/36/1
f 13/21/1 16/24/1 32/76/1 31/74/1
f 15/23/1 14/22/1 28/36/1 24/75/1
f 1/9/2 4/12/2 29/71/2 32/77/2
f 2/10/2 1/9/2 32/77/2 24/78/2
f 3/11/2 2/10/2 24/78/2 23/72/2
f 4/12/2 3/11/2 23/72/2 29/71/2
usemtl Material.007
s off
f 33/56/3 35/55/3 37/59/3 39/61/3 41/63/3 43/65/3 45/67/3 47/69/3
