# Blender v3.3.1 OBJ File: ''
# www.blender.org
mtllib marksman_scope.mtl
o Cube_Cube.002
v -0.016791 -0.020883 0.047025
v -0.014839 -0.004158 0.047025
v -0.016791 -0.020883 -0.062851
v -0.014839 -0.004158 -0.062851
v 0.016791 -0.020883 0.047025
v 0.014839 -0.004158 0.047025
v 0.016791 -0.020883 -0.062851
v 0.014839 -0.004158 -0.062851
v -0.016791 -0.020883 -0.049474
v -0.016791 -0.020883 0.033648
v -0.014839 -0.004158 0.033648
v -0.014839 -0.004158 -0.049474
v 0.016791 -0.020883 0.033648
v 0.016791 -0.020883 -0.049474
v 0.014839 -0.004158 -0.049474
v 0.014839 -0.004158 0.033648
v -0.014839 0.018597 -0.049474
v -0.014839 0.018597 -0.062851
v 0.014839 0.018597 -0.062851
v 0.014839 0.018597 0.033648
v 0.014839 0.018597 0.047025
v -0.014839 0.018597 0.047025
v -0.014839 0.018597 0.033648
v 0.014839 0.018597 -0.049474
v -0.000000 0.084407 -0.105650
v -0.000000 0.084407 0.066746
v 0.017663 0.079674 -0.105650
v 0.017663 0.079674 0.066746
v 0.030594 0.066744 -0.105650
v 0.030594 0.066744 0.066746
v 0.035327 0.049081 -0.105650
v 0.035327 0.049081 0.066746
v 0.030594 0.031417 -0.105650
v 0.030594 0.031417 0.066746
v 0.017663 0.018487 -0.105650
v 0.017663 0.018487 0.066746
v -0.000000 0.013754 -0.105650
v -0.000000 0.013754 0.066746
v -0.017663 0.018487 -0.105650
v -0.017663 0.018487 0.066746
v -0.030594 0.031417 -0.105650
v -0.030594 0.031417 0.066746
v -0.035327 0.049081 -0.105650
v -0.035327 0.049081 0.066746
v -0.030594 0.066744 -0.105650
v -0.030594 0.066744 0.066746
v -0.017663 0.079674 -0.105650
v -0.017663 0.079674 0.066746
v -0.000000 0.086580 -0.210408
v 0.018750 0.081556 -0.210408
v 0.032475 0.067830 -0.210408
v 0.037499 0.049081 -0.210408
v 0.032475 0.030331 -0.210408
v 0.018750 0.016605 -0.210408
v -0.000000 0.011581 -0.210408
v -0.018750 0.016605 -0.210408
v -0.032475 0.030331 -0.210408
v -0.037499 0.049081 -0.210408
v -0.032475 0.067830 -0.210408
v -0.018750 0.081556 -0.210408
v 0.014085 0.073477 0.123812
v -0.000000 0.077251 0.123812
v 0.024397 0.063166 0.123812
v 0.028171 0.049081 0.123812
v 0.024397 0.034995 0.123812
v 0.014085 0.024684 0.123812
v -0.000000 0.020910 0.123812
v -0.014085 0.024684 0.123812
v -0.024397 0.034995 0.123812
v -0.028171 0.049081 0.123812
v -0.024397 0.063166 0.123812
v -0.014085 0.073477 0.123812
v -0.000000 0.099737 -0.239690
v 0.025328 0.092951 -0.239690
v 0.043870 0.074409 -0.239690
v 0.050657 0.049081 -0.239690
v 0.043870 0.023752 -0.239690
v 0.025328 0.005210 -0.239690
v -0.000000 -0.001576 -0.239690
v -0.025328 0.005210 -0.239690
v -0.043870 0.023752 -0.239690
v -0.050657 0.049081 -0.239690
v -0.043870 0.074409 -0.239690
v -0.025328 0.092951 -0.239690
v -0.000000 0.088017 -0.239690
v 0.019468 0.082800 -0.239690
v 0.033720 0.068549 -0.239690
v 0.038936 0.049081 -0.239690
v 0.033720 0.029612 -0.239690
v 0.019468 0.015361 -0.239690
v -0.000000 0.010144 -0.239690
v -0.019468 0.015361 -0.239690
v -0.033720 0.029612 -0.239690
v -0.038936 0.049081 -0.239690
v -0.033720 0.068549 -0.239690
v -0.019468 0.082800 -0.239690
v 0.020475 0.084545 0.148544
v -0.000000 0.090031 0.148544
v 0.035465 0.069556 0.148544
v 0.040951 0.049081 0.148544
v 0.035465 0.028605 0.148544
v 0.020475 0.013616 0.148544
v -0.000000 0.008130 0.148544
v -0.020475 0.013616 0.148544
v -0.035465 0.028605 0.148544
v -0.040951 0.049081 0.148544
v -0.035465 0.069556 0.148544
v -0.020475 0.084545 0.148544
v 0.015180 0.075373 0.148544
v -0.000000 0.079440 0.148544
v 0.026292 0.064260 0.148544
v 0.030360 0.049081 0.148544
v 0.026292 0.033901 0.148544
v 0.015180 0.022788 0.148544
v -0.000000 0.018721 0.148544
v -0.015180 0.022788 0.148544
v -0.026292 0.033901 0.148544
v -0.030360 0.049081 0.148544
v -0.026292 0.064260 0.148544
v -0.015180 0.075373 0.148544
v -0.000000 0.084407 -0.017095
v -0.000000 0.084407 -0.000074
v 0.017663 0.079674 -0.000074
v 0.017663 0.079674 -0.017095
v 0.030594 0.066744 -0.000074
v 0.030594 0.066744 -0.017095
v 0.035327 0.049081 -0.000074
v 0.035327 0.049081 -0.017095
v 0.030594 0.031417 -0.000074
v 0.030594 0.031417 -0.017095
v 0.017663 0.018487 -0.000074
v 0.017663 0.018487 -0.017095
v -0.000000 0.013754 -0.000074
v -0.000000 0.013754 -0.017095
v -0.017663 0.018487 -0.000074
v -0.017663 0.018487 -0.017095
v -0.030594 0.031417 -0.000074
v -0.030594 0.031417 -0.017095
v -0.035327 0.049081 -0.000074
v -0.035327 0.049081 -0.017095
v -0.030594 0.066744 -0.000074
v -0.030594 0.066744 -0.017095
v -0.017663 0.079674 -0.000074
v -0.017663 0.079674 -0.017095
v 0.042211 0.024710 -0.222935
v 0.048741 0.049081 -0.222935
v -0.000000 0.097821 -0.222935
v -0.024370 0.091291 -0.222935
v 0.024370 0.091291 -0.222935
v 0.042211 0.073451 -0.222935
v -0.042211 0.073451 -0.222935
v -0.048741 0.049081 -0.222935
v -0.042211 0.024710 -0.222935
v -0.024370 0.006870 -0.222935
v -0.000000 0.000340 -0.222935
v 0.024370 0.006870 -0.222935
v 0.019494 0.015317 0.117090
v -0.000000 0.010093 0.117090
v 0.033764 0.029587 0.117090
v 0.038987 0.049081 0.117090
v -0.019494 0.082844 0.117090
v -0.000000 0.088068 0.117090
v 0.019494 0.082844 0.117090
v 0.033764 0.068574 0.117090
v -0.033764 0.068574 0.117090
v -0.038987 0.049081 0.117090
v -0.033764 0.029587 0.117090
v -0.019494 0.015317 0.117090
v 0.017663 0.079674 -0.083393
v 0.030594 0.066744 -0.083393
v 0.035327 0.049081 -0.083393
v 0.030594 0.031417 -0.083393
v 0.017663 0.018487 -0.083393
v -0.000000 0.013754 -0.083393
v -0.017663 0.018487 -0.083393
v -0.030594 0.031417 -0.083393
v -0.035327 0.049081 -0.083393
v -0.030594 0.066744 -0.083393
v -0.017663 0.079674 -0.083393
v -0.000000 0.084407 -0.083393
v -0.000000 0.012785 0.082264
v -0.000000 0.085376 0.082264
v 0.018148 0.080513 0.082264
v 0.018148 0.017648 0.082264
v 0.031433 0.030933 0.082264
v 0.036296 0.049081 0.082264
v -0.018148 0.080513 0.082264
v 0.031433 0.067228 0.082264
v -0.031433 0.067228 0.082264
v -0.036296 0.049081 0.082264
v -0.031433 0.030933 0.082264
v -0.018148 0.017648 0.082264
vt 0.375000 0.223765
vt 0.625000 0.223765
vt 0.625000 0.250000
vt 0.375000 0.250000
vt 0.625000 0.500000
vt 0.375000 0.500000
vt 0.375000 0.723765
vt 0.625000 0.723765
vt 0.625000 0.750000
vt 0.375000 0.750000
vt 0.625000 1.000000
vt 0.375000 1.000000
vt 0.125000 0.723765
vt 0.125000 0.750000
vt 0.625000 0.723765
vt 0.625000 0.750000
vt 0.875000 0.723765
vt 0.875000 0.723765
vt 0.625000 0.526235
vt 0.875000 0.526235
vt 0.125000 0.500000
vt 0.375000 0.526235
vt 0.125000 0.526235
vt 0.375000 0.000000
vt 0.625000 0.000000
vt 0.625000 0.026235
vt 0.375000 0.026235
vt 0.875000 0.750000
vt 0.625000 0.500000
vt 0.875000 0.500000
vt 0.875000 0.526235
vt 0.625000 0.526235
vt 0.625000 0.223765
vt 0.625000 0.250000
vt 0.625000 1.000000
vt 0.625000 0.000000
vt 0.625000 0.026235
vt 1.000000 0.768556
vt 1.000000 1.000000
vt 0.916667 1.000000
vt 0.916667 0.768556
vt 0.833333 1.000000
vt 0.833333 0.768556
vt 0.750000 1.000000
vt 0.750000 0.768556
vt 0.666667 1.000000
vt 0.666667 0.768556
vt 0.583333 1.000000
vt 0.583333 0.768556
vt 0.500000 1.000000
vt 0.500000 0.768556
vt 0.416667 1.000000
vt 0.416667 0.768556
vt 0.333333 1.000000
vt 0.333333 0.768556
vt 0.250000 1.000000
vt 0.250000 0.768556
vt 0.166667 1.000000
vt 0.166667 0.768556
vt 0.083333 1.000000
vt 0.083333 0.768556
vt 0.000000 1.000000
vt 0.000000 0.768556
vt 0.838831 0.403860
vt 0.750000 0.427663
vt 0.750000 0.434469
vt 0.842235 0.409755
vt 0.903860 0.338831
vt 0.909755 0.342235
vt 0.927662 0.250000
vt 0.934469 0.250000
vt 0.903860 0.161169
vt 0.909755 0.157765
vt 0.838831 0.096140
vt 0.842235 0.090245
vt 0.750000 0.072338
vt 0.750000 0.065531
vt 0.661169 0.096140
vt 0.657765 0.090245
vt 0.596140 0.161169
vt 0.590245 0.157765
vt 0.572337 0.250000
vt 0.565531 0.250000
vt 0.596140 0.338831
vt 0.590245 0.342235
vt 0.661169 0.403860
vt 0.657765 0.409755
vt 0.250000 0.427928
vt 0.338964 0.404090
vt 0.370000 0.457846
vt 0.250000 0.490000
vt 0.404090 0.338964
vt 0.457846 0.370000
vt 0.427928 0.250000
vt 0.490000 0.250000
vt 0.404090 0.161036
vt 0.457846 0.130000
vt 0.338964 0.095910
vt 0.370000 0.042154
vt 0.250000 0.072072
vt 0.250000 0.010000
vt 0.161036 0.095910
vt 0.130000 0.042154
vt 0.095910 0.161036
vt 0.042154 0.130000
vt 0.072072 0.250000
vt 0.010000 0.250000
vt 0.095910 0.338964
vt 0.042154 0.370000
vt 0.161036 0.404090
vt 0.130000 0.457846
vt 0.083333 0.548529
vt 0.083333 0.731444
vt 0.000000 0.731444
vt 0.000000 0.548529
vt 0.166667 0.548529
vt 0.166667 0.731444
vt 0.250000 0.548529
vt 0.250000 0.731444
vt 0.333333 0.548529
vt 0.333333 0.731444
vt 0.416667 0.548529
vt 0.416667 0.731444
vt 0.500000 0.548529
vt 0.500000 0.731444
vt 0.583333 0.548529
vt 0.583333 0.731444
vt 0.666667 0.548529
vt 0.666667 0.731444
vt 0.750000 0.548529
vt 0.750000 0.731444
vt 0.833333 0.548529
vt 0.833333 0.731444
vt 0.916667 0.548529
vt 0.916667 0.731444
vt 1.000000 0.548529
vt 1.000000 0.731444
vt 0.666667 0.500000
vt 0.583333 0.500000
vt 0.583333 0.500000
vt 0.666667 0.500000
vt 0.500000 0.500000
vt 0.500000 0.500000
vt 0.416667 0.500000
vt 0.416667 0.500000
vt 0.333333 0.500000
vt 0.333333 0.500000
vt 0.250000 0.500000
vt 0.250000 0.500000
vt 0.166667 0.500000
vt 0.166667 0.500000
vt 0.916667 0.500000
vt 0.833333 0.500000
vt 0.833333 0.500000
vt 0.916667 0.500000
vt 0.083333 0.500000
vt 0.083333 0.500000
vt 0.750000 0.500000
vt 0.750000 0.500000
vt 1.000000 0.500000
vt 1.000000 0.500000
vt 0.000000 0.500000
vt 0.000000 0.500000
vt 0.416667 1.000000
vt 0.500000 1.000000
vt 0.500000 1.000000
vt 0.416667 1.000000
vt 0.333333 1.000000
vt 0.333333 1.000000
vt 0.250000 1.000000
vt 0.250000 1.000000
vt 0.166667 1.000000
vt 0.166667 1.000000
vt 0.833333 1.000000
vt 0.916641 1.000000
vt 0.916667 1.000000
vt 0.833333 1.000000
vt 0.083359 1.000000
vt 0.083333 1.000000
vt 0.750000 1.000000
vt 0.750000 1.000000
vt 0.999586 1.000000
vt 1.000693 1.000000
vt 0.000414 1.000000
vt -0.000693 1.000000
vt 0.666667 1.000000
vt 0.666667 1.000000
vt 0.583333 1.000000
vt 0.583333 1.000000
vt 0.583333 1.000000
vt 0.500000 1.000000
vt 0.666667 0.500000
vt 0.750000 0.500000
vt 0.000000 0.500000
vt 0.083333 0.500000
vt 0.916667 0.500000
vt 1.000000 0.500000
vt 0.833333 0.500000
vt 0.166667 0.500000
vt 0.250000 0.500000
vt 0.333333 0.500000
vt 0.416667 0.500000
vt 0.500000 0.500000
vt 0.583333 0.500000
vt 0.666667 1.000000
vt 0.750000 1.000000
vt 0.083333 1.000000
vt 0.000000 1.000000
vt 1.000000 1.000000
vt 0.916667 1.000000
vt 0.833333 1.000000
vt 0.166667 1.000000
vt 0.250000 1.000000
vt 0.333333 1.000000
vt 0.416667 1.000000
vt 0.750000 0.490000
vt 0.870000 0.457846
vt 0.957846 0.370000
vt 0.990000 0.250000
vt 0.957846 0.130000
vt 0.870000 0.042154
vt 0.750000 0.010000
vt 0.630000 0.042154
vt 0.542154 0.130000
vt 0.510000 0.250000
vt 0.542154 0.370000
vt 0.630000 0.457846
vt 0.250000 0.415100
vt 0.332550 0.392981
vt 0.392981 0.332550
vt 0.415100 0.250000
vt 0.392980 0.167450
vt 0.332550 0.107020
vt 0.250000 0.084900
vt 0.167450 0.107020
vt 0.107020 0.167450
vt 0.084900 0.250000
vt 0.107020 0.332550
vt 0.167450 0.392981
vn -0.9933 0.1159 0.0000
vn 0.0000 0.0000 -1.0000
vn 0.9933 0.1159 0.0000
vn 0.0000 0.0000 1.0000
vn 0.0000 -1.0000 0.0000
vn 1.0000 0.0000 0.0000
vn 0.0000 1.0000 0.0000
vn -1.0000 0.0000 0.0000
vn 0.2588 0.9659 0.0000
vn 0.7071 0.7071 0.0000
vn 0.9659 0.2588 0.0000
vn 0.9659 -0.2588 0.0000
vn 0.7071 -0.7071 0.0000
vn 0.2588 -0.9659 -0.0000
vn -0.2588 -0.9659 -0.0000
vn -0.7071 -0.7071 0.0000
vn -0.9659 -0.2588 0.0000
vn -0.9659 0.2588 0.0000
vn -0.7071 0.7071 0.0000
vn -0.2588 0.9659 0.0000
vn -0.2585 -0.9648 -0.0473
vn -0.7063 -0.7063 -0.0473
vn -0.9648 -0.2585 -0.0473
vn -0.9648 0.2585 -0.0473
vn -0.7063 0.7063 -0.0473
vn -0.2585 0.9648 -0.0473
vn 0.2585 0.9648 -0.0473
vn 0.7063 0.7063 -0.0473
vn 0.9648 0.2585 -0.0473
vn 0.9648 -0.2585 -0.0473
vn 0.7063 -0.7063 -0.0473
vn 0.2585 -0.9648 -0.0473
vn 0.7028 -0.7028 0.1098
vn 0.2573 -0.9601 0.1098
vn -0.2573 -0.9601 0.1098
vn -0.7028 -0.7028 0.1098
vn -0.9601 -0.2573 0.1098
vn -0.9601 0.2573 0.1098
vn 0.7028 0.7028 0.1098
vn -0.7028 0.7028 0.1098
vn 0.9601 0.2573 0.1098
vn 0.2573 0.9601 0.1098
vn -0.2573 0.9601 0.1098
vn 0.9601 -0.2573 0.1098
vn -0.2581 -0.9632 -0.0744
vn -0.7051 -0.7051 -0.0744
vn -0.9632 -0.2581 -0.0744
vn -0.9632 0.2581 -0.0744
vn 0.7051 0.7051 -0.0744
vn -0.7051 0.7051 -0.0744
vn 0.9632 0.2581 -0.0744
vn 0.2581 0.9632 -0.0744
vn -0.2581 0.9632 -0.0744
vn 0.9632 -0.2581 -0.0744
vn 0.7051 -0.7051 -0.0744
vn 0.2581 -0.9632 -0.0744
vn 0.2584 -0.9642 -0.0602
vn 0.7058 -0.7058 -0.0602
vn 0.9642 -0.2583 -0.0602
vn -0.2583 0.9642 -0.0602
vn 0.2583 0.9642 -0.0602
vn 0.9642 0.2583 -0.0602
vn -0.7058 0.7058 -0.0602
vn 0.7058 0.7058 -0.0602
vn -0.9642 0.2583 -0.0602
vn -0.9642 -0.2583 -0.0602
vn -0.7058 -0.7058 -0.0602
vn -0.2584 -0.9642 -0.0602
vn -0.2579 -0.9624 0.0852
vn -0.7045 -0.7045 0.0852
vn -0.9624 -0.2579 0.0852
vn -0.9624 0.2579 0.0852
vn -0.7045 0.7045 0.0852
vn -0.2579 0.9624 0.0852
vn 0.2579 0.9624 0.0852
vn 0.7045 0.7045 0.0852
vn 0.9624 0.2579 0.0852
vn 0.9624 -0.2579 0.0852
vn 0.7045 -0.7045 0.0852
vn 0.2579 -0.9624 0.0852
vn 0.2583 -0.9642 -0.0602
vn -0.2583 -0.9642 -0.0602
usemtl Material.001
s off
f 9/1/1 12/2/1 4/3/1 3/4/1
f 3/4/2 4/3/2 8/5/2 7/6/2
f 13/7/3 16/8/3 6/9/3 5/10/3
f 5/10/4 6/9/4 2/11/4 1/12/4
f 10/13/5 13/7/5 5/10/5 1/14/5
f 6/9/6 16/8/6 20/15/6 21/16/6
f 16/8/2 11/17/2 23/18/2 20/15/2
f 15/19/7 12/20/7 11/17/7 16/8/7
f 3/21/5 7/6/5 14/22/5 9/23/5
f 9/23/5 14/22/5 13/7/5 10/13/5
f 7/6/3 8/5/3 15/19/3 14/22/3
f 14/22/3 15/19/3 16/8/3 13/7/3
f 1/24/1 2/25/1 11/26/1 10/27/1
f 10/27/1 11/26/1 12/2/1 9/1/1
f 20/15/7 23/18/7 22/28/7 21/16/7
f 19/29/7 18/30/7 17/31/7 24/32/7
f 4/3/8 12/2/8 17/33/8 18/34/8
f 2/11/4 6/9/4 21/16/4 22/35/4
f 12/20/4 15/19/4 24/32/4 17/31/4
f 15/19/6 8/5/6 19/29/6 24/32/6
f 8/5/2 4/3/2 18/34/2 19/29/2
f 11/26/8 2/25/8 22/36/8 23/37/8
f 122/38/9 26/39/9 28/40/9 123/41/9
f 123/41/10 28/40/10 30/42/10 125/43/10
f 125/43/11 30/42/11 32/44/11 127/45/11
f 127/45/12 32/44/12 34/46/12 129/47/12
f 129/47/13 34/46/13 36/48/13 131/49/13
f 131/49/14 36/48/14 38/50/14 133/51/14
f 133/51/15 38/50/15 40/52/15 135/53/15
f 135/53/16 40/52/16 42/54/16 137/55/16
f 137/55/17 42/54/17 44/56/17 139/57/17
f 139/57/18 44/56/18 46/58/18 141/59/18
f 141/59/19 46/58/19 48/60/19 143/61/19
f 143/61/20 48/60/20 26/62/20 122/63/20
f 50/64/21 49/65/21 85/66/21 86/67/21
f 51/68/22 50/64/22 86/67/22 87/69/22
f 52/70/23 51/68/23 87/69/23 88/71/23
f 53/72/24 52/70/24 88/71/24 89/73/24
f 54/74/25 53/72/25 89/73/25 90/75/25
f 55/76/26 54/74/26 90/75/26 91/77/26
f 56/78/27 55/76/27 91/77/27 92/79/27
f 57/80/28 56/78/28 92/79/28 93/81/28
f 58/82/29 57/80/29 93/81/29 94/83/29
f 59/84/30 58/82/30 94/83/30 95/85/30
f 60/86/31 59/84/31 95/85/31 96/87/31
f 49/65/32 60/86/32 96/87/32 85/66/32
f 110/88/4 109/89/4 97/90/4 98/91/4
f 109/89/4 111/92/4 99/93/4 97/90/4
f 111/92/4 112/94/4 100/95/4 99/93/4
f 112/94/4 113/96/4 101/97/4 100/95/4
f 113/96/4 114/98/4 102/99/4 101/97/4
f 114/98/4 115/100/4 103/101/4 102/99/4
f 115/100/4 116/102/4 104/103/4 103/101/4
f 116/102/4 117/104/4 105/105/4 104/103/4
f 117/104/4 118/106/4 106/107/4 105/105/4
f 118/106/4 119/108/4 107/109/4 106/107/4
f 119/108/4 120/110/4 108/111/4 107/109/4
f 120/110/4 110/88/4 98/91/4 108/111/4
f 179/112/20 144/113/20 121/114/20 180/115/20
f 178/116/19 142/117/19 144/113/19 179/112/19
f 177/118/18 140/119/18 142/117/18 178/116/18
f 176/120/17 138/121/17 140/119/17 177/118/17
f 175/122/16 136/123/16 138/121/16 176/120/16
f 174/124/15 134/125/15 136/123/15 175/122/15
f 173/126/14 132/127/14 134/125/14 174/124/14
f 172/128/13 130/129/13 132/127/13 173/126/13
f 171/130/12 128/131/12 130/129/12 172/128/12
f 170/132/11 126/133/11 128/131/11 171/130/11
f 169/134/10 124/135/10 126/133/10 170/132/10
f 180/136/9 121/137/9 124/135/9 169/134/9
f 33/138/33 35/139/33 156/140/33 145/141/33
f 35/139/34 37/142/34 155/143/34 156/140/34
f 37/142/35 39/144/35 154/145/35 155/143/35
f 39/144/36 41/146/36 153/147/36 154/145/36
f 41/146/37 43/148/37 152/149/37 153/147/37
f 43/148/38 45/150/38 151/151/38 152/149/38
f 27/152/39 29/153/39 150/154/39 149/155/39
f 45/150/40 47/156/40 148/157/40 151/151/40
f 29/153/41 31/158/41 146/159/41 150/154/41
f 25/160/42 27/152/42 149/155/42 147/161/42
f 47/156/43 25/162/43 147/163/43 148/157/43
f 31/158/44 33/138/44 145/141/44 146/159/44
f 192/164/45 181/165/45 158/166/45 168/167/45
f 191/168/46 192/164/46 168/167/46 167/169/46
f 190/170/47 191/168/47 167/169/47 166/171/47
f 189/172/48 190/170/48 166/171/48 165/173/48
f 188/174/49 183/175/49 163/176/49 164/177/49
f 187/178/50 189/172/50 165/173/50 161/179/50
f 186/180/51 188/174/51 164/177/51 160/181/51
f 183/175/52 182/182/52 162/183/52 163/176/52
f 182/184/53 187/178/53 161/179/53 162/185/53
f 185/186/54 186/180/54 160/181/54 159/187/54
f 184/188/55 185/186/55 159/187/55 157/189/55
f 181/165/56 184/188/56 157/189/56 158/166/56
usemtl Material.002
f 158/166/57 157/189/57 102/190/57 103/191/57
f 146/159/44 145/141/44 77/192/44 76/193/44
f 148/157/43 147/163/43 73/194/43 84/195/43
f 147/161/42 149/155/42 74/196/42 73/197/42
f 150/154/41 146/159/41 76/193/41 75/198/41
f 151/151/40 148/157/40 84/195/40 83/199/40
f 149/155/39 150/154/39 75/198/39 74/196/39
f 152/149/38 151/151/38 83/199/38 82/200/38
f 153/147/37 152/149/37 82/200/37 81/201/37
f 154/145/36 153/147/36 81/201/36 80/202/36
f 155/143/35 154/145/35 80/202/35 79/203/35
f 156/140/34 155/143/34 79/203/34 78/204/34
f 145/141/33 156/140/33 78/204/33 77/192/33
f 157/189/58 159/187/58 101/205/58 102/190/58
f 159/187/59 160/181/59 100/206/59 101/205/59
f 162/185/60 161/179/60 108/207/60 98/208/60
f 163/176/61 162/183/61 98/209/61 97/210/61
f 160/181/62 164/177/62 99/211/62 100/206/62
f 161/179/63 165/173/63 107/212/63 108/207/63
f 164/177/64 163/176/64 97/210/64 99/211/64
f 165/173/65 166/171/65 106/213/65 107/212/65
f 166/171/66 167/169/66 105/214/66 106/213/66
f 167/169/67 168/167/67 104/215/67 105/214/67
f 168/167/68 158/166/68 103/191/68 104/215/68
f 86/67/2 85/66/2 73/216/2 74/217/2
f 87/69/2 86/67/2 74/217/2 75/218/2
f 88/71/2 87/69/2 75/218/2 76/219/2
f 89/73/2 88/71/2 76/219/2 77/220/2
f 90/75/2 89/73/2 77/220/2 78/221/2
f 91/77/2 90/75/2 78/221/2 79/222/2
f 92/79/2 91/77/2 79/222/2 80/223/2
f 93/81/2 92/79/2 80/223/2 81/224/2
f 94/83/2 93/81/2 81/224/2 82/225/2
f 95/85/2 94/83/2 82/225/2 83/226/2
f 96/87/2 95/85/2 83/226/2 84/227/2
f 85/66/2 96/87/2 84/227/2 73/216/2
f 62/228/69 61/229/69 109/89/69 110/88/69
f 61/229/70 63/230/70 111/92/70 109/89/70
f 63/230/71 64/231/71 112/94/71 111/92/71
f 64/231/72 65/232/72 113/96/72 112/94/72
f 65/232/73 66/233/73 114/98/73 113/96/73
f 66/233/74 67/234/74 115/100/74 114/98/74
f 67/234/75 68/235/75 116/102/75 115/100/75
f 68/235/76 69/236/76 117/104/76 116/102/76
f 69/236/77 70/237/77 118/106/77 117/104/77
f 70/237/78 71/238/78 119/108/78 118/106/78
f 71/238/79 72/239/79 120/110/79 119/108/79
f 72/239/80 62/228/80 110/88/80 120/110/80
f 144/113/20 143/61/20 122/63/20 121/114/20
f 142/117/19 141/59/19 143/61/19 144/113/19
f 140/119/18 139/57/18 141/59/18 142/117/18
f 138/121/17 137/55/17 139/57/17 140/119/17
f 136/123/16 135/53/16 137/55/16 138/121/16
f 134/125/15 133/51/15 135/53/15 136/123/15
f 132/127/14 131/49/14 133/51/14 134/125/14
f 130/129/13 129/47/13 131/49/13 132/127/13
f 128/131/12 127/45/12 129/47/12 130/129/12
f 126/133/11 125/43/11 127/45/11 128/131/11
f 124/135/10 123/41/10 125/43/10 126/133/10
f 121/137/9 122/38/9 123/41/9 124/135/9
f 25/160/9 180/136/9 169/134/9 27/152/9
f 27/152/10 169/134/10 170/132/10 29/153/10
f 29/153/11 170/132/11 171/130/11 31/158/11
f 31/158/12 171/130/12 172/128/12 33/138/12
f 33/138/13 172/128/13 173/126/13 35/139/13
f 35/139/14 173/126/14 174/124/14 37/142/14
f 37/142/15 174/124/15 175/122/15 39/144/15
f 39/144/16 175/122/16 176/120/16 41/146/16
f 41/146/17 176/120/17 177/118/17 43/148/17
f 43/148/18 177/118/18 178/116/18 45/150/18
f 45/150/19 178/116/19 179/112/19 47/156/19
f 47/156/20 179/112/20 180/115/20 25/162/20
f 38/50/81 36/48/81 184/188/81 181/165/81
f 36/48/58 34/46/58 185/186/58 184/188/58
f 34/46/59 32/44/59 186/180/59 185/186/59
f 26/62/60 48/60/60 187/178/60 182/184/60
f 28/40/61 26/39/61 182/182/61 183/175/61
f 32/44/62 30/42/62 188/174/62 186/180/62
f 48/60/63 46/58/63 189/172/63 187/178/63
f 30/42/64 28/40/64 183/175/64 188/174/64
f 46/58/65 44/56/65 190/170/65 189/172/65
f 44/56/66 42/54/66 191/168/66 190/170/66
f 42/54/67 40/52/67 192/164/67 191/168/67
f 40/52/82 38/50/82 181/165/82 192/164/82
usemtl Material.003
f 49/65/2 50/64/2 51/68/2 52/70/2 53/72/2 54/74/2 55/76/2 56/78/2 57/80/2 58/82/2 59/84/2 60/86/2
f 61/229/4 62/228/4 72/239/4 71/238/4 70/237/4 69/236/4 68/235/4 67/234/4 66/233/4 65/232/4 64/231/4 63/230/4
