# Blender v3.3.0 OBJ File: ''
# www.blender.org
mtllib headset.mtl
o Cube_Cube.001
v -0.302350 0.134981 0.064171
v -0.265839 0.214839 0.064171
v -0.265839 0.214839 -0.008540
v -0.302350 0.134981 -0.008540
v 0.209327 0.181619 -0.008540
v 0.166624 0.250878 -0.008540
v 0.265839 0.214839 -0.008540
v 0.302350 0.134981 -0.008540
v 0.265839 0.214839 0.064171
v 0.302350 0.134981 0.064171
v -0.209327 0.181619 0.064171
v -0.166624 0.250878 0.064171
v -0.302350 0.005202 -0.008540
v -0.302350 0.005202 0.064171
v -0.166624 0.250878 -0.008540
v 0.166624 0.250878 0.064171
v -0.209327 0.181619 -0.008540
v -0.209327 0.005202 0.064171
v -0.209327 0.005202 -0.008540
v 0.209327 0.181619 0.064171
v 0.302350 0.005202 0.064171
v 0.302350 0.005202 -0.008540
v 0.209327 0.005202 -0.008540
v 0.209327 0.005202 0.064171
v -0.239102 -0.128004 -0.219319
v -0.224465 -0.128004 -0.219319
v -0.224465 -0.158073 -0.219319
v -0.239102 -0.158073 -0.219319
v -0.255884 -0.128004 -0.197256
v -0.224465 -0.128004 -0.197256
v -0.255884 -0.158073 -0.197256
v -0.224465 -0.158073 -0.197256
v -0.240128 -0.130090 -0.063142
v -0.271548 -0.130090 -0.063142
v -0.271548 -0.100021 -0.063142
v -0.240128 -0.100021 -0.063142
v -0.188047 -0.128243 -0.221963
v -0.188047 -0.128243 -0.199515
v -0.180549 -0.122539 -0.197253
v -0.180549 -0.122539 -0.227335
v -0.188047 -0.157834 -0.221963
v -0.180549 -0.163538 -0.227335
v -0.188047 -0.157834 -0.199515
v -0.180549 -0.163538 -0.197253
v -0.302350 -0.160892 0.064171
v -0.302350 -0.160892 0.114076
v -0.302350 0.005202 0.114076
v 0.209327 -0.160892 -0.008540
v 0.209327 -0.160892 0.064171
v 0.302350 -0.160892 -0.008540
v 0.302350 -0.160892 0.064171
v -0.302350 -0.160892 -0.008540
v -0.209327 -0.160892 -0.008540
v -0.209327 -0.160892 0.064171
v 0.302350 0.005202 0.114076
v 0.302350 -0.160892 0.114076
v 0.302350 0.005202 -0.063142
v 0.209327 0.005202 -0.063142
v -0.302350 -0.160892 -0.063142
v -0.209327 -0.160892 -0.063142
v -0.123963 -0.163538 -0.228612
v -0.123963 -0.163538 -0.198530
v 0.302350 -0.160892 -0.063142
v 0.209327 -0.160892 -0.063142
v -0.209327 0.005202 -0.063142
v -0.302350 0.005202 -0.063142
v -0.209327 0.005202 0.114076
v -0.209327 -0.160892 0.114076
v 0.209327 0.005202 0.114076
v 0.209327 -0.160892 0.114076
v -0.123963 -0.122539 -0.198530
v -0.123963 -0.122539 -0.228612
vt 0.375000 0.000000
vt 0.625000 0.000000
vt 0.625000 0.250000
vt 0.375000 0.250000
vt 0.375000 0.461542
vt 0.625000 0.461542
vt 0.625000 0.500000
vt 0.375000 0.500000
vt 0.625000 0.750000
vt 0.375000 0.750000
vt 0.375000 0.961542
vt 0.625000 0.961542
vt 0.625000 1.000000
vt 0.375000 1.000000
vt 0.375000 0.250000
vt 0.375000 0.000000
vt 0.836542 0.500000
vt 0.875000 0.500000
vt 0.875000 0.750000
vt 0.836542 0.750000
vt 0.663458 0.500000
vt 0.663458 0.750000
vt 0.625000 0.788458
vt 0.375000 0.788458
vt 0.625000 0.288458
vt 0.375000 0.288458
vt 0.375000 0.750000
vt 0.375000 0.500000
vt 0.375000 1.000000
vt 0.375000 0.961542
vt 0.375000 0.461542
vt 0.375000 0.788458
vt 0.375000 0.288458
vt 0.375000 0.262734
vt 0.375000 0.275724
vt 0.375000 0.275724
vt 0.375000 0.262734
vt 0.375000 0.262734
vt 0.375000 0.275724
vt 0.375000 0.262734
vt 0.375000 0.275724
vt 0.375000 0.275724
vt 0.375000 0.262734
vt 0.375000 0.262734
vt 0.375000 0.275724
vt 0.375000 0.275724
vt 0.375000 0.275724
vt 0.375000 0.275724
vt 0.375000 0.275724
vt 0.375000 0.275724
vt 0.375000 0.275724
vt 0.375000 0.275724
vt 0.375000 0.275724
vt 0.125000 0.750000
vt 0.375000 1.000000
vt 0.375000 1.000000
vt 0.375000 0.250000
vt 0.125000 0.500000
vt 0.125000 0.500000
vt 0.336542 0.500000
vt 0.375000 0.500000
vt 0.375000 0.750000
vt 0.336542 0.750000
vt 0.163458 0.500000
vt 0.163458 0.750000
vt 0.375000 0.500000
vt 0.375000 0.461542
vt 0.163458 0.500000
vt 0.375000 0.275724
vt 0.375000 0.275724
vt 0.375000 0.500000
vt 0.375000 0.461542
vt 0.336542 0.500000
vt 0.375000 0.288458
vt 0.375000 0.750000
vt 0.375000 0.750000
vt 0.375000 0.961542
vt 0.375000 0.961542
vt 0.375000 0.788458
vt 0.375000 0.788458
vt 0.163458 0.750000
vt 0.125000 0.750000
vt 0.336542 0.750000
vt 0.375000 0.288458
vt 0.375000 0.250000
vt 0.375000 0.275724
vt 0.375000 0.275724
vn -0.9095 0.4158 0.0000
vn 0.0000 0.0000 -1.0000
vn 0.9095 0.4158 0.0000
vn 0.0000 -0.0000 1.0000
vn -1.0000 0.0000 0.0000
vn -0.3414 0.9399 0.0000
vn 0.3414 0.9399 0.0000
vn 0.0000 1.0000 0.0000
vn 1.0000 0.0000 0.0000
vn 0.0032 1.0000 0.0000
vn 0.0034 1.0000 0.0000
vn -0.7959 0.0000 -0.6054
vn 0.0032 -1.0000 -0.0000
vn 0.0000 -1.0000 -0.0000
vn 0.0034 -1.0000 -0.0000
vn 0.0000 -0.9789 0.2043
vn -0.9932 -0.0000 -0.1160
vn 0.0000 0.9789 -0.2043
vn 0.9932 0.0000 0.1160
vn -0.6055 0.7959 0.0000
vn -0.5824 0.0000 -0.8129
vn -0.2888 -0.0000 0.9574
vn -0.6055 -0.7959 0.0000
vn 0.0066 -1.0000 0.0000
vn 0.0619 -0.0000 0.9981
vn -0.0724 0.0000 -0.9974
vn 0.0066 1.0000 0.0000
vn 0.0226 -0.0000 0.9997
vn -0.0226 0.0000 -0.9997
usemtl Material.007
s 1
f 1/1/1 2/2/1 3/3/1 4/4/1
f 5/5/2 6/6/2 7/7/2 8/8/2
f 8/8/3 7/7/3 9/9/3 10/10/3
f 11/11/4 12/12/4 2/13/4 1/14/4
f 1/1/5 4/4/5 13/15/5 14/16/5
f 15/17/6 3/18/6 2/19/6 12/20/6
f 7/7/7 6/21/7 16/22/7 9/9/7
f 6/21/8 15/17/8 12/20/8 16/22/8
f 10/10/4 9/9/4 16/23/4 20/24/4
f 20/24/4 16/23/4 12/12/4 11/11/4
f 4/4/2 3/3/2 15/25/2 17/26/2
f 17/26/2 15/25/2 6/6/2 5/5/2
f 8/8/9 10/10/9 21/27/9 22/28/9
f 11/11/4 1/14/4 14/29/4 18/30/4
f 5/5/2 8/8/2 22/28/2 23/31/2
f 10/10/4 20/24/4 24/32/4 21/27/4
f 4/4/2 17/26/2 19/33/2 13/15/2
f 25/34/2 26/35/2 27/36/2 28/37/2
f 29/38/8 30/39/10 26/35/11 25/34/8
f 31/40/12 29/38/12 25/34/12 28/37/12
f 32/41/13 31/40/14 28/37/14 27/36/15
f 33/42/16 34/43/16 31/40/16 32/41/16
f 34/43/17 35/44/17 29/38/17 31/40/17
f 35/44/18 36/45/18 30/39/18 29/38/18
f 36/45/19 33/42/19 32/41/19 30/39/19
f 37/46/20 38/47/20 39/48/20 40/49/20
f 41/50/21 37/46/21 40/49/21 42/51/21
f 38/47/22 43/52/22 44/53/22 39/48/22
f 43/52/23 41/50/23 42/51/23 44/53/23
f 32/41/13 27/36/15 41/50/24 43/52/24
f 30/39/25 32/41/25 43/52/25 38/47/25
f 27/36/26 26/35/26 37/46/26 41/50/26
f 26/35/11 30/39/10 38/47/27 37/46/27
usemtl Material.008
f 45/54/5 46/55/5 47/56/5 14/16/5 13/15/5 66/57/5 59/58/5 52/59/5
f 48/60/14 50/61/14 51/62/14 49/63/14
f 52/59/14 53/64/14 54/65/14 45/54/14
f 23/31/8 22/28/8 57/66/8 58/67/8
f 53/64/14 52/59/14 59/58/14 60/68/14
f 44/53/14 42/51/14 61/69/14 62/70/14
f 58/67/2 57/66/2 63/71/2 64/72/2
f 50/61/14 48/60/14 64/73/14 63/71/14
f 13/15/8 19/33/8 65/74/8 66/57/8
f 21/27/9 55/75/9 56/76/9 51/62/9 50/61/9 63/71/9 57/66/9 22/28/9
f 67/77/4 47/56/4 46/55/4 68/78/4
f 55/75/4 69/79/4 70/80/4 56/76/4
f 18/30/8 14/29/8 47/56/8 67/77/8
f 21/27/8 24/32/8 69/79/8 55/75/8
f 45/54/14 54/65/14 68/81/14 46/82/14
f 49/63/14 51/62/14 56/76/14 70/83/14
f 36/45/2 35/44/2 66/57/2 65/74/2
f 34/43/2 33/42/2 60/84/2 59/85/2
f 33/42/2 36/45/2 65/74/2 60/84/2
f 35/44/2 34/43/2 59/85/2 66/57/2
f 71/86/9 62/70/9 61/69/9 72/87/9
f 39/48/28 44/53/28 62/70/28 71/86/28
f 42/51/29 40/49/29 72/87/29 61/69/29
f 40/49/8 39/48/8 71/86/8 72/87/8
