# Blender v3.3.0 OBJ File: ''
# www.blender.org
mtllib red_dot.mtl
o Cube_Cube.002
v -0.033524 -0.025501 0.086330
v -0.033524 -0.002380 0.086330
v -0.033524 -0.025501 -0.062389
v -0.033524 0.015287 -0.040499
v 0.033524 -0.025501 0.086330
v 0.033524 -0.002380 0.086330
v 0.033524 -0.025501 -0.062389
v 0.033524 0.015287 -0.040499
v 0.018815 -0.024934 -0.062389
v -0.018815 -0.024934 -0.062389
v -0.024074 0.019236 -0.040499
v 0.024074 0.019236 -0.040499
v -0.018815 -0.024934 0.086330
v 0.018815 -0.024934 0.086330
v 0.018815 -0.002380 0.086330
v -0.018815 -0.002380 0.086330
v -0.021055 0.050845 -0.040499
v 0.021055 0.050845 -0.040499
v -0.012550 -0.009527 0.086330
v 0.012550 -0.009527 0.086330
v 0.012550 -0.002380 0.086330
v -0.012550 -0.002380 0.086330
v -0.033524 -0.025501 -0.020340
v -0.033524 -0.025501 -0.015827
v -0.033524 0.015287 -0.015827
v -0.033524 0.015287 -0.020340
v 0.033524 -0.025501 -0.015827
v 0.033524 -0.025501 -0.020340
v 0.033524 0.015287 -0.020340
v 0.033524 0.015287 -0.015827
v 0.028419 0.015287 -0.020340
v 0.018815 0.015287 -0.015827
v -0.028419 0.015287 -0.020340
v -0.018815 0.015287 -0.015827
v -0.018815 -0.024934 -0.020340
v -0.018815 -0.024934 -0.015827
v 0.018815 -0.024934 -0.020340
v 0.018815 -0.024934 -0.015827
v -0.012550 -0.009527 -0.020340
v -0.012550 -0.009527 -0.015827
v 0.012550 -0.009527 -0.020340
v 0.012550 -0.009527 -0.015827
v 0.021055 0.050845 -0.020340
v 0.012550 0.015287 -0.015827
v -0.021055 0.050845 -0.020340
v -0.012550 0.015287 -0.015827
v 0.024646 0.054795 -0.040499
v 0.028419 0.015287 -0.040499
v -0.028419 0.015287 -0.040499
v -0.024646 0.054795 -0.040499
v -0.024646 0.054795 -0.020340
v 0.024074 0.019236 -0.020340
v -0.024074 0.019236 -0.020340
v 0.024646 0.054795 -0.020340
vt 0.375000 0.131822
vt 0.625000 0.131822
vt 0.625000 0.250000
vt 0.375000 0.250000
vt 0.375000 0.445153
vt 0.625000 0.445153
vt 0.625000 0.500000
vt 0.375000 0.500000
vt 0.375000 0.631822
vt 0.625000 0.631822
vt 0.625000 0.750000
vt 0.375000 0.750000
vt 0.375000 0.945153
vt 0.625000 0.945153
vt 0.625000 1.000000
vt 0.375000 1.000000
vt 0.320153 0.631822
vt 0.320153 0.750000
vt 0.820153 0.631822
vt 0.875000 0.631822
vt 0.875000 0.750000
vt 0.820153 0.750000
vt 0.679847 0.631822
vt 0.679847 0.750000
vt 0.796794 0.631822
vt 0.796794 0.750000
vt 0.125000 0.631822
vt 0.179847 0.631822
vt 0.179847 0.750000
vt 0.125000 0.750000
vt 0.296794 0.631822
vt 0.296794 0.750000
vt 0.625000 0.804847
vt 0.375000 0.804847
vt 0.375000 0.921794
vt 0.625000 0.921794
vt 0.625000 0.304847
vt 0.375000 0.304847
vt 0.625000 0.828206
vt 0.375000 0.828206
vt 0.203206 0.631822
vt 0.203206 0.750000
vt 0.703206 0.631822
vt 0.703206 0.750000
vt 0.703206 0.500000
vt 0.796794 0.500000
vt 0.796794 0.618178
vt 0.703206 0.618178
vt 0.679847 0.500000
vt 0.679847 0.618178
vt 0.000000 0.000000
vt 0.000000 0.000000
vt 0.000000 0.000000
vt 0.000000 0.000000
vt 0.000000 0.000000
vt 0.000000 0.000000
vt 0.000000 0.000000
vt 0.000000 0.000000
vt 0.203206 0.618178
vt 0.296794 0.618178
vt 0.179847 0.618178
vt 0.320153 0.618178
vt 0.125000 0.500000
vt 0.179847 0.500000
vt 0.125000 0.618178
vt 0.820153 0.500000
vt 0.820153 0.618178
vt 0.625000 0.618178
vt 0.875000 0.500000
vt 0.875000 0.618178
vt 0.320153 0.500000
vt 0.375000 0.618178
vt 0.375000 0.000000
vt 0.625000 0.000000
vt 0.625000 0.118178
vt 0.375000 0.118178
vt 0.000000 0.000000
vt 0.000000 0.000000
vt 0.000000 0.000000
vt 0.000000 0.000000
vt 0.000000 0.000000
vt 0.000000 0.000000
vt 0.691526 0.618178
vt 0.808474 0.618178
vt 0.790985 0.618178
vt 0.709015 0.618178
vn -1.0000 0.0000 0.0000
vn 0.0136 0.4742 -0.8803
vn 1.0000 0.0000 0.0000
vn 0.0000 0.0000 1.0000
vn -0.0385 -0.9993 0.0000
vn 0.0000 0.9854 0.1704
vn 0.0385 -0.9993 0.0000
vn -0.9263 -0.3767 0.0000
vn -0.0136 0.4742 -0.8803
vn 0.9263 -0.3767 0.0000
vn 0.0000 -1.0000 0.0000
vn 0.0000 1.0000 0.0000
vn 0.9955 0.0951 0.0000
vn -0.9955 0.0951 0.0000
vn 0.0000 0.4780 -0.8783
vn 0.0000 0.0000 -1.0000
usemtl Material.001
s off
f 23/1/1 26/2/1 4/3/1 3/4/1
f 9/5/2 48/6/2 8/7/2 7/8/2
f 27/9/3 30/10/3 6/11/3 5/12/3
f 13/13/4 16/14/4 2/15/4 1/16/4
f 38/17/5 27/9/5 5/12/5 14/18/5
f 34/19/6 25/20/6 2/21/6 16/22/6
f 30/10/6 32/23/6 15/24/6 6/11/6
f 46/25/6 34/19/6 16/22/6 22/26/6
f 24/27/7 36/28/7 13/29/7 1/30/7
f 42/31/8 38/17/8 14/18/8 20/32/8
f 5/12/4 6/11/4 15/33/4 14/34/4
f 19/35/4 22/36/4 16/14/4 13/13/4
f 3/4/9 4/3/9 49/37/9 10/38/9
f 14/34/4 15/33/4 21/39/4 20/40/4
f 20/40/4 21/39/4 22/36/4 19/35/4
f 36/28/10 40/41/10 19/42/10 13/29/10
f 40/41/11 42/31/11 20/32/11 19/42/11
f 32/23/6 44/43/6 21/44/6 15/24/6
f 44/43/6 46/25/6 22/26/6 21/44/6
f 47/45/12 50/46/12 51/47/12 54/48/12
f 48/49/13 47/45/13 54/48/13 31/50/13
f 48/51/12 49/52/12 33/53/12 34/54/12 46/55/12 44/56/12 32/57/12 31/58/12
f 39/59/11 41/60/11 42/31/11 40/41/11
f 35/61/10 39/59/10 40/41/10 36/28/10
f 41/60/8 37/62/8 38/17/8 42/31/8
f 3/63/7 10/64/7 35/61/7 23/65/7
f 23/65/7 35/61/7 36/28/7 24/27/7
f 50/46/14 49/66/14 33/67/14 51/47/14
f 10/38/15 49/37/15 48/6/15 9/5/15
f 8/7/12 48/49/12 31/50/12 29/68/12
f 29/68/12 31/50/12 32/23/12 30/10/12
f 49/66/12 4/69/12 26/70/12 33/67/12
f 33/67/12 26/70/12 25/20/12 34/19/12
f 9/71/5 7/8/5 28/72/5 37/62/5
f 37/62/5 28/72/5 27/9/5 38/17/5
f 7/8/3 8/7/3 29/68/3 28/72/3
f 28/72/3 29/68/3 30/10/3 27/9/3
f 1/73/1 2/74/1 25/75/1 24/76/1
f 24/76/1 25/75/1 26/2/1 23/1/1
f 12/77/16 18/78/16 47/79/16 48/51/16
f 17/80/16 11/81/16 49/52/16 50/82/16
f 18/78/16 17/80/16 50/82/16 47/79/16
f 11/81/16 12/77/16 48/51/16 49/52/16
f 52/83/4 53/84/4 33/67/4 31/50/4
f 45/85/4 43/86/4 54/48/4 51/47/4
f 43/86/4 52/83/4 31/50/4 54/48/4
f 53/84/4 45/85/4 51/47/4 33/67/4
usemtl Material.002
f 52/83/4 43/86/4 45/85/4 53/84/4
f 17/80/16 18/78/16 12/77/16 11/81/16
