# Blender v3.3.1 OBJ File: ''
# www.blender.org
mtllib ar.mtl
o Cube_Cube.002
v -0.019009 0.014514 0.102361
v -0.019009 0.084669 0.102361
v -0.019111 0.040987 -0.150802
v -0.019111 0.085738 -0.150802
v 0.019009 0.014514 0.102361
v 0.019009 0.084669 0.102361
v 0.019111 0.040987 -0.150802
v 0.019111 0.085738 -0.150802
v -0.008817 0.005447 -0.004937
v -0.008817 0.005447 0.010717
v -0.028076 0.093736 0.029975
v -0.028076 0.093736 -0.050674
v 0.008817 0.005447 0.010717
v 0.008817 0.005447 -0.004937
v 0.028076 0.093736 -0.050674
v 0.028076 0.093736 0.029975
v 0.022084 -0.160508 -0.181162
v -0.022084 -0.160508 -0.181162
v 0.022084 -0.175338 -0.088379
v -0.022084 -0.175338 -0.088379
v -0.023578 -0.088618 0.064062
v -0.023578 -0.080168 0.120022
v 0.023578 -0.080168 0.120022
v 0.023578 -0.088618 0.064062
v 0.028076 -0.021610 -0.153677
v -0.028076 -0.021610 -0.153677
v 0.028076 -0.028797 -0.054987
v -0.028076 -0.028797 -0.054987
v 0.023939 -0.021949 -0.149554
v -0.023939 -0.021949 -0.149554
v 0.023939 -0.028459 -0.059110
v -0.023939 -0.028459 -0.059110
v -0.028076 0.005447 -0.050674
v -0.028076 0.005447 0.029975
v 0.028076 0.005447 0.029975
v 0.028076 0.005447 -0.050674
v -0.008817 -0.014854 0.000608
v -0.008817 -0.014854 0.016262
v 0.008817 -0.014854 0.016262
v 0.008817 -0.014854 0.000608
v -0.008817 -0.031435 -0.004937
v -0.008817 -0.034555 0.010024
v 0.008817 -0.034555 0.010024
v 0.008817 -0.031435 -0.004937
v -0.025827 -0.041585 0.047019
v -0.025827 -0.037360 0.111191
v 0.025827 -0.037360 0.111191
v 0.025827 -0.041585 0.047019
v -0.025582 -0.046695 0.048870
v 0.025582 -0.042011 0.112151
v -0.025582 -0.042011 0.112151
v 0.025582 -0.046695 0.048870
v 0.008707 -0.045828 -0.041912
v 0.008790 -0.040718 -0.041338
v -0.008790 -0.040718 -0.041338
v -0.008707 -0.045828 -0.041912
v 0.008790 -0.041000 -0.030209
v -0.008790 -0.041000 -0.030209
v 0.008707 -0.046110 -0.028358
v -0.008707 -0.046110 -0.028358
v 0.008790 0.005780 -0.042264
v -0.008790 0.005780 -0.042264
v 0.008790 0.005498 -0.031136
v -0.008790 0.005498 -0.031136
v -0.007645 -0.041542 0.045149
v -0.007572 -0.046651 0.047000
v 0.007645 -0.041542 0.045149
v 0.007572 -0.046651 0.047000
v -0.028076 0.093736 -0.150802
v -0.028076 0.005447 -0.150802
v 0.028076 0.005447 -0.150802
v 0.028076 0.093736 -0.150802
v -0.019111 0.085738 -0.171783
v -0.019111 0.040987 -0.171783
v 0.019111 0.040987 -0.171783
v 0.019111 0.085738 -0.171783
v -0.028076 0.005447 0.102361
v -0.028076 0.093736 0.102361
v 0.028076 0.093736 0.102361
v 0.028076 0.005447 0.102361
v -0.019009 0.014514 0.185534
v -0.019009 0.084669 0.185534
v 0.019009 0.084669 0.185534
v 0.019009 0.014514 0.185534
v -0.020815 -0.079494 0.285263
v -0.020815 0.089844 0.285263
v 0.020815 0.089844 0.285263
v 0.020815 -0.079494 0.285263
v -0.000000 0.071587 -0.415260
v -0.000000 0.098283 -0.167352
v 0.008461 0.068082 -0.415260
v 0.027339 0.086959 -0.167352
v 0.011966 0.059620 -0.415260
v 0.038663 0.059620 -0.167352
v 0.008461 0.051159 -0.415260
v 0.027339 0.032282 -0.167352
v -0.000000 0.047654 -0.415260
v -0.000000 0.020958 -0.167352
v -0.008461 0.051159 -0.415260
v -0.027339 0.032282 -0.167352
v -0.011966 0.059620 -0.415260
v -0.038663 0.059620 -0.167352
v -0.008461 0.068082 -0.415260
v -0.027339 0.086959 -0.167352
v -0.000000 0.098283 -0.397501
v 0.027339 0.086959 -0.397501
v 0.038663 0.059620 -0.397501
v 0.027339 0.032282 -0.397501
v -0.000000 0.020958 -0.397501
v -0.027339 0.032282 -0.397501
v -0.038663 0.059620 -0.397501
v -0.027339 0.086959 -0.397501
v -0.000000 0.076338 -0.397501
v 0.011822 0.071442 -0.397501
v 0.016718 0.059620 -0.397501
v 0.011822 0.047799 -0.397501
v -0.000000 0.042902 -0.397501
v -0.011822 0.047799 -0.397501
v -0.016718 0.059620 -0.397501
v -0.011822 0.071442 -0.397501
v -0.000000 0.075317 -0.556008
v 0.011100 0.070720 -0.556008
v 0.015697 0.059620 -0.556008
v 0.011100 0.048521 -0.556008
v -0.000000 0.043923 -0.556008
v -0.011100 0.048521 -0.556008
v -0.015697 0.059620 -0.556008
v -0.011100 0.070720 -0.556008
v -0.000000 0.072745 -0.556008
v 0.009281 0.068901 -0.556008
v 0.013125 0.059620 -0.556008
v 0.009281 0.050339 -0.556008
v -0.000000 0.046495 -0.556008
v -0.009281 0.050339 -0.556008
v -0.013125 0.059620 -0.556008
v -0.009281 0.068901 -0.556008
v 0.019009 0.014514 0.171722
v -0.019009 0.014514 0.171722
v -0.019009 0.084669 0.171722
v 0.019009 0.084669 0.171722
v -0.023875 -0.082392 0.061806
v 0.023875 -0.074501 0.118853
v -0.023875 -0.074501 0.118853
v 0.023875 -0.082392 0.061806
v -0.028076 0.005447 0.097334
v 0.028076 0.093736 0.097334
v -0.028076 0.093736 0.097334
v 0.028076 0.005447 0.097334
v -0.023578 -0.080755 0.116136
v 0.023578 -0.080755 0.116136
v 0.025452 -0.038033 0.103180
v -0.025452 -0.038033 0.103180
v 0.025211 -0.042102 0.104068
v -0.025211 -0.042102 0.104068
v 0.023529 -0.070522 0.110266
v -0.023529 -0.070522 0.110266
v -0.028076 0.093736 0.035505
v 0.028076 0.005447 0.035505
v 0.023578 -0.087972 0.068337
v 0.025452 -0.041169 0.055557
v 0.025211 -0.045578 0.057107
v 0.023529 -0.076378 0.067932
v -0.028076 0.005447 0.035505
v 0.028076 0.093736 0.035505
v -0.023578 -0.087972 0.068337
v -0.025452 -0.041169 0.055557
v -0.025211 -0.045578 0.057107
v -0.023529 -0.076378 0.067932
v -0.027804 0.000280 0.103426
v 0.027804 -0.000230 0.032032
v -0.027804 -0.000230 0.032032
v 0.027804 0.000280 0.103426
v -0.027401 -0.005107 0.095998
v 0.027401 -0.005107 0.095998
v 0.027401 -0.005485 0.043017
v -0.027401 -0.005485 0.043017
vt 0.606204 0.470446
vt 0.393796 0.470446
vt 0.393796 0.470446
vt 0.606204 0.470446
vt 0.400674 0.959631
vt 0.400674 0.790368
vt 0.400674 0.790368
vt 0.400674 0.959631
vt 0.375000 0.074212
vt 0.375000 0.080278
vt 0.375000 0.080278
vt 0.375000 0.074023
vt 0.210744 0.601637
vt 0.289256 0.601637
vt 0.289256 0.601637
vt 0.210744 0.601637
vt 0.151678 0.505480
vt 0.348322 0.505480
vt 0.348322 0.574798
vt 0.151678 0.574798
vt 0.375000 0.744555
vt 0.375000 0.750000
vt 0.375000 0.750000
vt 0.375000 0.744316
vt 0.143418 0.503784
vt 0.356582 0.503784
vt 0.356582 0.576495
vt 0.143418 0.576495
vt 0.289256 0.648363
vt 0.210744 0.648363
vt 0.210744 0.648363
vt 0.289256 0.648363
vt 0.210744 0.648363
vt 0.289256 0.648363
vt 0.210744 0.601637
vt 0.289256 0.601637
vt 0.375000 0.744398
vt 0.375000 0.750048
vt 0.375000 0.750000
vt 0.375000 0.744525
vt 0.375000 0.074096
vt 0.375000 0.080335
vt 0.375000 0.080278
vt 0.375000 0.074196
vt 0.375000 0.750000
vt 0.375000 0.744344
vt 0.375000 0.080278
vt 0.375000 0.074080
vt 0.393796 0.279554
vt 0.393796 0.279554
vt 0.606204 0.279554
vt 0.606204 0.279554
vt 0.599326 0.959631
vt 0.599326 0.959631
vt 0.599326 0.790368
vt 0.599326 0.790368
vt 0.818902 0.318902
vt 0.750000 0.347442
vt 0.750000 0.353780
vt 0.823383 0.323383
vt 0.847442 0.250000
vt 0.853780 0.250000
vt 0.818902 0.181098
vt 0.823383 0.176616
vt 0.750000 0.152558
vt 0.750000 0.146220
vt 0.681098 0.181098
vt 0.676617 0.176617
vt 0.652558 0.250000
vt 0.646220 0.250000
vt 0.681098 0.318902
vt 0.676616 0.323383
vt 0.807612 0.307612
vt 0.750000 0.331476
vt 0.831476 0.250000
vt 0.807612 0.192388
vt 0.750000 0.168524
vt 0.692388 0.192388
vt 0.668524 0.250000
vt 0.692388 0.307612
vt 0.802525 0.302525
vt 0.750000 0.324282
vt 0.824282 0.250000
vt 0.802525 0.197475
vt 0.750000 0.175718
vt 0.697475 0.197475
vt 0.675718 0.250000
vt 0.697475 0.302525
vt 0.375000 0.000000
vt 0.375000 0.005656
vt 0.375000 0.005445
vt 0.375000 0.000000
vt 0.375000 0.000000
vt 0.375000 0.005475
vt 0.375000 -0.000073
vt 0.375000 0.005602
vt 0.375000 0.675782
vt 0.375000 0.675942
vt 0.375000 0.005739
vt 0.375000 0.000000
vt 0.375000 0.669722
vt 0.375000 0.669722
vt 0.375000 0.669684
vt 0.375000 0.675903
vt 0.375000 0.675803
vt 0.375000 0.669722
vt 0.375000 0.675920
vt 0.375000 0.669722
vt 0.375000 0.005575
vt 0.375000 0.074146
vt 0.375000 0.669722
vt 0.375000 0.675854
vt 0.375000 0.744425
vt 0.375000 0.000000
vt 0.375000 0.080278
vt 0.375000 0.750000
vt 0.375000 0.169722
vt 0.625000 0.169722
vt 0.625000 0.250000
vt 0.375000 0.250000
vt 0.625000 0.744425
vt 0.625000 0.750000
vt 0.875000 0.744425
vt 0.875000 0.750000
vt 0.625000 0.500000
vt 0.875000 0.500000
vt 0.875000 0.580278
vt 0.625000 0.580278
vt 0.875000 0.669722
vt 0.625000 0.669722
vt 0.375000 0.500000
vt 0.375000 0.500000
vt 0.375000 0.250000
vt 0.375000 0.580278
vt 0.625000 0.074146
vt 0.625000 0.080278
vt 0.125000 0.580278
vt 0.125000 0.580278
vt 0.375000 0.580278
vt 0.375000 0.169722
vt 0.125000 0.744425
vt 0.125000 0.750000
vt 0.125000 0.669722
vt 0.125000 0.669722
vt 0.375000 1.000000
vt 0.375000 1.000000
vt 0.125000 0.500000
vt 0.125000 0.669722
vt 0.375000 1.000000
vt 0.375000 1.000000
vt 0.125000 0.669722
vt 0.125000 0.669722
vt 0.375000 1.000000
vt 0.375000 0.080278
vt 0.375000 0.080278
vt 0.375000 0.080278
vt 0.375000 0.080278
vt 0.125000 0.669722
vt 0.375000 0.669722
vt 0.375000 0.669722
vt 0.125000 0.669722
vt 0.375000 0.669722
vt 0.375000 0.669722
vt 0.375000 0.080278
vt 0.375000 0.080278
vt 0.125000 0.669722
vt 0.375000 0.669722
vt 0.125000 0.669722
vt 0.375000 0.080278
vt 0.375000 0.080278
vt 0.375000 0.669722
vt 0.125000 0.669722
vt 0.125000 0.669722
vt 0.125000 0.669722
vt 0.375000 0.669722
vt 0.375000 0.669722
vt 0.125000 0.669722
vt 0.125000 0.669722
vt 0.400674 0.959631
vt 0.599326 0.959631
vt 0.625000 1.000000
vt 0.375000 1.000000
vt 0.599326 0.790368
vt 0.400674 0.790368
vt 0.599326 0.959631
vt 0.599326 0.790368
vt 0.400674 0.790368
vt 0.400674 0.959631
vt 1.000000 0.500000
vt 1.000000 1.000000
vt 0.875000 1.000000
vt 0.875000 0.500000
vt 0.750000 1.000000
vt 0.750000 0.500000
vt 0.625000 1.000000
vt 0.625000 0.500000
vt 0.500000 1.000000
vt 0.500000 0.500000
vt 0.375000 1.000000
vt 0.375000 0.500000
vt 0.250000 1.000000
vt 0.250000 0.500000
vt 0.419706 0.419706
vt 0.250000 0.490000
vt 0.080294 0.419706
vt 0.010000 0.250000
vt 0.080294 0.080294
vt 0.250000 0.010000
vt 0.419706 0.080294
vt 0.490000 0.250000
vt 0.125000 1.000000
vt 0.125000 0.500000
vt 0.000000 1.000000
vt 0.000000 0.500000
vt 0.750000 0.490000
vt 0.919706 0.419706
vt 0.990000 0.250000
vt 0.919706 0.080294
vt 0.750000 0.010000
vt 0.580294 0.080294
vt 0.510000 0.250000
vt 0.580294 0.419706
vt 0.125000 0.675854
vt 0.625000 0.000000
vt 0.625000 0.005575
vt 0.625000 0.675854
vt 0.875000 0.675854
vn 1.0000 0.0000 0.0000
vn 0.0000 -1.0000 0.0000
vn -0.9992 -0.0082 0.0385
vn 0.0000 -0.2635 -0.9647
vn 0.0000 -0.9875 -0.1578
vn 0.9988 -0.0317 -0.0364
vn 0.0000 0.2224 -0.9750
vn 0.9999 -0.0127 -0.0015
vn -0.9999 -0.0127 -0.0015
vn 0.0000 -0.1954 0.9807
vn 0.0000 -0.3019 0.9533
vn -1.0000 -0.0000 0.0000
vn 0.0000 0.2635 0.9647
vn 0.0000 -0.9789 -0.2041
vn 0.0000 0.3172 -0.9484
vn 0.9978 -0.0611 -0.0263
vn -0.9987 -0.0402 0.0298
vn 0.9970 -0.0646 -0.0431
vn -0.9983 -0.0339 0.0475
vn 0.0000 1.0000 0.0000
vn 0.3827 0.9239 -0.0060
vn 0.9239 0.3827 -0.0060
vn 0.9239 -0.3827 -0.0060
vn 0.3827 -0.9239 -0.0060
vn -0.3827 -0.9239 -0.0060
vn -0.9239 -0.3827 -0.0060
vn -0.9239 0.3827 -0.0060
vn -0.3827 0.9239 -0.0060
vn 0.0000 0.0000 -1.0000
vn -0.3827 -0.9239 -0.0076
vn -0.9239 -0.3827 -0.0076
vn -0.9239 0.3827 -0.0076
vn -0.3827 0.9239 -0.0076
vn 0.3827 0.9239 -0.0076
vn 0.9239 0.3827 -0.0076
vn 0.9239 -0.3827 -0.0076
vn 0.3827 -0.9239 -0.0076
vn 0.9960 -0.0678 -0.0587
vn -0.9976 -0.0281 0.0638
vn -0.9960 -0.0678 -0.0587
vn -0.9970 -0.0646 -0.0431
vn -0.9978 -0.0611 -0.0263
vn 1.0000 0.0043 -0.0006
vn -0.9988 -0.0317 -0.0364
vn 0.9992 -0.0082 0.0385
vn 0.9987 -0.0402 0.0298
vn 0.9983 -0.0339 0.0475
vn 0.9976 -0.0281 0.0638
vn -1.0000 0.0043 -0.0006
vn -0.9980 -0.0626 0.0002
vn 0.9986 -0.0525 0.0077
vn 0.9980 -0.0626 0.0002
vn -0.9982 -0.0600 -0.0064
vn -0.9986 -0.0525 0.0077
vn 0.9982 -0.0600 -0.0064
vn 0.0000 0.1057 -0.9944
vn 0.0000 -0.1249 0.9922
vn 0.0000 -0.9888 0.1493
vn 0.0000 -0.3407 -0.9402
vn 0.0000 0.2020 0.9794
vn 0.0000 -0.9966 -0.0819
vn 0.0000 -0.9974 -0.0722
vn 0.0000 0.1117 -0.9937
vn 0.9999 -0.0163 -0.0004
vn -0.9999 -0.0163 -0.0004
vn 0.0000 -0.9998 -0.0208
vn 0.0000 -1.0000 -0.0072
vn -0.9998 -0.0098 0.0151
vn 0.9998 -0.0098 0.0151
vn 0.0000 1.0000 0.0072
vn 0.0000 0.9997 0.0254
vn 0.0000 -0.0199 -0.9998
vn 0.0000 0.0199 0.9998
vn 0.0000 0.9997 0.0235
vn 0.0958 -0.3417 -0.9349
vn -0.0958 -0.3417 -0.9349
vn 0.0000 -0.9997 -0.0235
vn 0.0000 0.0000 1.0000
vn 0.0000 0.9987 -0.0518
vn 0.9998 0.0000 -0.0181
vn 0.0000 -0.7277 -0.6859
vn -0.9998 0.0000 -0.0181
vn 0.3827 0.9239 0.0000
vn 0.9239 0.3827 0.0000
vn 0.9239 -0.3827 -0.0000
vn 0.3827 -0.9239 0.0000
vn -0.3827 -0.9239 0.0000
vn -0.9239 -0.3827 -0.0000
vn -0.9239 0.3827 0.0000
vn -0.3827 0.9239 0.0000
vn 0.9985 -0.0551 0.0058
vn 0.9984 -0.0556 0.0039
vn 0.9984 -0.0562 0.0020
vn -0.9985 -0.0551 0.0058
vn -0.9984 -0.0556 0.0039
vn -0.9984 -0.0562 0.0020
usemtl Material.001
s off
f 8/1/1 7/2/1 75/3/1 76/4/1
f 138/5/2 137/6/2 84/7/2 81/8/2
f 168/9/3 141/10/3 21/11/3 165/12/3
f 9/13/4 14/14/4 40/15/4 37/16/4
f 18/17/5 17/18/5 19/19/5 20/20/5
f 155/21/6 142/22/6 23/23/6 150/24/6
f 17/18/7 18/17/7 30/25/7 29/26/7
f 19/19/8 17/18/8 29/26/8 31/27/8
f 18/17/9 20/20/9 32/28/9 30/25/9
f 20/20/10 19/19/10 31/27/10 32/28/10
f 39/29/11 38/30/11 42/31/11 43/32/11
f 10/33/12 9/13/12 37/16/12 38/30/12
f 13/34/13 10/33/13 38/30/13 39/29/13
f 14/14/1 13/34/1 39/29/1 40/15/1
f 41/35/14 44/36/14 43/32/14 42/31/14
f 40/15/1 39/29/1 43/32/1 44/36/1
f 37/16/15 40/15/15 44/36/15 41/35/15
f 38/30/12 37/16/12 41/35/12 42/31/12
f 174/37/16 172/38/16 47/39/16 151/40/16
f 176/41/17 171/42/17 45/43/17 166/44/17
f 151/40/18 47/39/18 50/45/18 153/46/18
f 166/44/19 45/43/19 49/47/19 167/48/19
f 7/2/2 3/49/2 74/50/2 75/3/2
f 4/51/20 8/1/20 76/4/20 73/52/20
f 3/49/12 4/51/12 73/52/12 74/50/12
f 139/53/12 138/5/12 81/8/12 82/54/12
f 140/55/20 139/53/20 82/54/20 83/56/20
f 137/6/1 140/55/1 83/56/1 84/7/1
f 122/57/21 121/58/21 113/59/21 114/60/21
f 123/61/22 122/57/22 114/60/22 115/62/22
f 124/63/23 123/61/23 115/62/23 116/64/23
f 125/65/24 124/63/24 116/64/24 117/66/24
f 126/67/25 125/65/25 117/66/25 118/68/25
f 127/69/26 126/67/26 118/68/26 119/70/26
f 128/71/27 127/69/27 119/70/27 120/72/27
f 121/58/28 128/71/28 120/72/28 113/59/28
f 130/73/29 129/74/29 121/58/29 122/57/29
f 131/75/29 130/73/29 122/57/29 123/61/29
f 132/76/29 131/75/29 123/61/29 124/63/29
f 133/77/29 132/76/29 124/63/29 125/65/29
f 134/78/29 133/77/29 125/65/29 126/67/29
f 135/79/29 134/78/29 126/67/29 127/69/29
f 136/80/29 135/79/29 127/69/29 128/71/29
f 129/74/29 136/80/29 128/71/29 121/58/29
f 91/81/30 89/82/30 129/74/30 130/73/30
f 93/83/31 91/81/31 130/73/31 131/75/31
f 95/84/32 93/83/32 131/75/32 132/76/32
f 97/85/33 95/84/33 132/76/33 133/77/33
f 99/86/34 97/85/34 133/77/34 134/78/34
f 101/87/35 99/86/35 134/78/35 135/79/35
f 103/88/36 101/87/36 135/79/36 136/80/36
f 89/82/37 103/88/37 136/80/37 129/74/37
f 153/46/38 50/45/38 142/22/38 155/21/38
f 167/48/39 49/47/39 141/10/39 168/9/39
f 51/89/40 154/90/40 156/91/40 143/92/40
f 46/93/41 152/94/41 154/90/41 51/89/41
f 169/95/42 173/96/42 152/94/42 46/93/42
f 162/97/43 155/21/43 150/24/43 159/98/43
f 143/92/44 156/91/44 149/99/44 22/100/44
f 144/101/45 162/97/45 159/98/45 24/102/45
f 170/103/46 175/104/46 160/105/46 48/106/46
f 48/106/47 160/105/47 161/107/47 52/108/47
f 52/108/48 161/107/48 162/97/48 144/101/48
f 156/91/49 168/9/49 165/12/49 149/99/49
f 145/109/50 163/110/50 176/41/50 173/96/50
f 35/111/51 158/112/51 175/104/51 170/103/51
f 158/112/52 148/113/52 174/37/52 175/104/52
f 77/114/53 145/109/53 173/96/53 169/95/53
f 163/110/54 34/115/54 171/42/54 176/41/54
f 148/113/55 80/116/55 172/38/55 174/37/55
usemtl Material.002
f 33/117/12 12/118/12 69/119/12 70/120/12
f 148/113/1 146/121/1 79/122/1 80/116/1
f 146/121/20 147/123/20 78/124/20 79/122/20
f 72/125/20 69/126/20 12/127/20 15/128/20
f 15/128/20 12/127/20 11/129/20 16/130/20
f 70/120/56 71/131/56 25/132/56 26/133/56
f 71/131/1 72/125/1 15/128/1 36/134/1
f 36/134/1 15/128/1 16/130/1 35/111/1
f 163/110/12 157/135/12 11/136/12 34/115/12
f 34/115/12 11/136/12 12/118/12 33/117/12
f 36/134/57 33/137/57 28/138/57 27/139/57
f 71/131/1 36/134/1 27/139/1 25/132/1
f 33/117/12 70/120/12 26/133/12 28/140/12
f 149/141/58 150/24/58 23/23/58 22/142/58
f 141/143/59 144/101/59 24/102/59 21/144/59
f 142/22/60 143/145/60 22/146/60 23/23/60
f 29/26/61 30/25/61 26/147/61 25/132/61
f 31/27/62 29/26/62 25/132/62 27/139/62
f 30/25/62 32/28/62 28/138/62 26/147/62
f 32/28/61 31/27/61 27/139/61 28/138/61
f 9/13/2 10/33/2 34/148/2 33/137/2
f 13/34/2 14/14/2 36/134/2 35/111/2
f 14/14/2 9/13/2 33/137/2 36/134/2
f 10/33/2 13/34/2 35/111/2 34/148/2
f 172/38/60 169/149/60 46/150/60 47/39/60
f 171/151/59 170/103/59 48/106/59 45/152/59
f 47/39/60 46/150/60 51/153/60 50/45/60
f 55/154/12 58/155/12 64/156/12 62/157/12
f 55/158/63 54/159/63 53/160/63 56/161/63
f 57/162/64 59/163/64 53/160/64 54/159/64
f 60/164/65 58/155/65 55/154/65 56/165/65
f 59/163/66 60/166/66 56/161/66 53/160/66
f 68/167/67 66/168/67 60/166/67 59/163/67
f 66/169/68 65/170/68 58/155/68 60/164/68
f 67/171/69 68/167/69 59/163/69 57/162/69
f 65/172/70 67/171/70 57/162/70 58/173/70
f 64/174/71 63/175/71 61/176/71 62/177/71
f 54/159/72 55/158/72 62/177/72 61/176/72
f 57/162/1 54/159/1 61/176/1 63/175/1
f 58/173/73 57/162/73 63/175/73 64/174/73
f 45/152/74 48/106/74 67/171/74 65/172/74
f 48/106/75 52/108/75 68/167/75 67/171/75
f 49/47/76 45/43/76 65/170/76 66/169/76
f 52/108/77 49/178/77 66/168/77 68/167/77
f 4/51/29 3/49/29 70/120/29 69/119/29
f 3/49/29 7/2/29 71/131/29 70/120/29
f 8/1/29 4/51/29 69/119/29 72/125/29
f 7/2/29 8/1/29 72/125/29 71/131/29
f 74/50/29 73/52/29 76/4/29 75/3/29
f 1/179/78 2/180/78 78/181/78 77/182/78
f 6/183/78 5/184/78 80/116/78 79/122/78
f 5/184/78 1/179/78 77/182/78 80/116/78
f 2/180/78 6/183/78 79/122/78 78/181/78
f 83/56/79 82/54/79 86/185/79 87/186/79
f 88/187/78 87/186/78 86/185/78 85/188/78
f 84/7/80 83/56/80 87/186/80 88/187/80
f 81/8/81 84/7/81 88/187/81 85/188/81
f 82/54/82 81/8/82 85/188/82 86/185/82
f 105/189/83 90/190/83 92/191/83 106/192/83
f 106/192/84 92/191/84 94/193/84 107/194/84
f 107/194/85 94/193/85 96/195/85 108/196/85
f 108/196/86 96/195/86 98/197/86 109/198/86
f 109/198/87 98/197/87 100/199/87 110/200/87
f 110/200/88 100/199/88 102/201/88 111/202/88
f 92/203/78 90/204/78 104/205/78 102/206/78 100/207/78 98/208/78 96/209/78 94/210/78
f 111/202/89 102/201/89 104/211/89 112/212/89
f 112/212/90 104/211/90 90/213/90 105/214/90
f 89/82/29 91/81/29 93/83/29 95/84/29 97/85/29 99/86/29 101/87/29 103/88/29
f 114/60/29 113/59/29 105/215/29 106/216/29
f 115/62/29 114/60/29 106/216/29 107/217/29
f 116/64/29 115/62/29 107/217/29 108/218/29
f 117/66/29 116/64/29 108/218/29 109/219/29
f 118/68/29 117/66/29 109/219/29 110/220/29
f 119/70/29 118/68/29 110/220/29 111/221/29
f 120/72/29 119/70/29 111/221/29 112/222/29
f 113/59/29 120/72/29 112/222/29 105/215/29
f 5/184/1 6/183/1 140/55/1 137/6/1
f 6/183/20 2/180/20 139/53/20 140/55/20
f 2/180/12 1/179/12 138/5/12 139/53/12
f 1/179/2 5/184/2 137/6/2 138/5/2
f 50/45/60 51/153/60 143/145/60 142/22/60
f 49/178/59 52/108/59 144/101/59 141/143/59
f 161/107/91 153/46/91 155/21/91 162/97/91
f 160/105/92 151/40/92 153/46/92 161/107/92
f 175/104/93 174/37/93 151/40/93 160/105/93
f 165/223/58 159/98/58 150/24/58 149/141/58
f 77/114/12 78/224/12 147/225/12 145/109/12
f 164/226/20 157/227/20 147/123/20 146/121/20
f 158/112/1 164/226/1 146/121/1 148/113/1
f 35/111/1 16/130/1 164/226/1 158/112/1
f 16/130/20 11/129/20 157/227/20 164/226/20
f 21/144/58 24/102/58 159/98/58 165/223/58
f 154/90/94 167/48/94 168/9/94 156/91/94
f 152/94/95 166/44/95 167/48/95 154/90/95
f 173/96/96 176/41/96 166/44/96 152/94/96
f 145/109/12 147/225/12 157/135/12 163/110/12
f 34/148/59 35/111/59 170/103/59 171/151/59
f 80/116/60 77/182/60 169/149/60 172/38/60
