# Blender v3.3.0 OBJ File: ''
# www.blender.org
mtllib radio_backpack.mtl
o Cube_Cube.001
v -0.178902 0.240365 -0.022186
v -0.178902 0.283630 -0.070473
v -0.178902 0.283630 -0.098829
v -0.178902 0.240365 -0.098829
v 0.198217 0.240365 -0.022186
v 0.198217 0.283630 -0.070473
v -0.178902 -0.191229 -0.098829
v 0.198217 -0.191229 -0.098829
v 0.198217 -0.191229 -0.022186
v -0.178902 -0.191229 -0.022186
v 0.198217 0.283630 -0.098829
v 0.198217 0.240365 -0.098829
v 0.198217 -0.159839 -0.098829
v -0.178902 -0.159839 -0.098829
v 0.198217 -0.191229 0.199436
v -0.178902 -0.191229 0.199436
v 0.198217 -0.159839 -0.022186
v -0.178902 -0.159839 -0.022186
v 0.198217 -0.159839 0.199436
v -0.178902 -0.159839 0.199436
v 0.169496 0.124233 -0.019343
v 0.169496 0.233653 -0.019343
v 0.169496 0.233653 0.190708
v 0.169496 0.124233 0.190708
v 0.169496 -0.045881 0.190708
v -0.150181 -0.045881 0.190708
v -0.150181 -0.156156 0.190708
v 0.169496 -0.156156 0.190708
v 0.151519 0.214187 0.172731
v 0.151519 0.214187 -0.001365
v -0.132204 0.214187 -0.001365
v -0.132204 0.214187 0.172731
v 0.169496 -0.156156 -0.019343
v 0.169496 -0.045881 -0.019343
v -0.150181 0.233653 -0.019343
v -0.150181 0.124233 -0.019343
v -0.150181 0.124233 0.190708
v -0.150181 0.233653 0.190708
v -0.150181 -0.045881 -0.019343
v -0.150181 -0.156156 -0.019343
v 0.153743 0.233653 0.174955
v 0.153743 0.233653 -0.003589
v -0.134428 0.233653 0.174955
v -0.134428 0.233653 -0.003589
v -0.150181 0.103717 -0.019343
v -0.150181 -0.026219 -0.019343
v -0.150181 -0.026219 0.190708
v -0.150181 0.103717 0.190708
v 0.169496 0.103717 0.190708
v 0.169496 -0.026219 0.190708
v 0.169496 -0.026219 -0.019343
v 0.169496 0.103717 -0.019343
v -0.093947 0.841163 0.141469
v -0.097145 0.841163 0.138271
v -0.090506 0.848052 0.126772
v -0.082448 0.848052 0.134830
v -0.101514 0.841163 0.137100
v -0.105882 0.841163 0.138271
v -0.112521 0.848052 0.126772
v -0.101514 0.848052 0.123823
v -0.092776 0.841163 0.145838
v -0.079499 0.848052 0.145838
v -0.101514 0.841163 0.154575
v -0.097145 0.841163 0.153405
v -0.090506 0.848052 0.164903
v -0.101514 0.848052 0.167853
v -0.110251 0.841163 0.145838
v -0.109081 0.841163 0.150207
v -0.120579 0.848052 0.156845
v -0.123528 0.848052 0.145838
v -0.109081 0.841163 0.141469
v -0.120579 0.848052 0.134830
v -0.101514 0.201070 0.120659
v -0.101514 0.251427 0.120659
v -0.088924 0.251427 0.124033
v -0.088924 0.201070 0.124033
v -0.079708 0.251427 0.133249
v -0.079708 0.201070 0.133249
v -0.076335 0.251427 0.145838
v -0.076335 0.201070 0.145838
v -0.079708 0.251427 0.158427
v -0.079708 0.201070 0.158427
v -0.088924 0.251427 0.167643
v -0.088924 0.201070 0.167643
v -0.101514 0.251427 0.171016
v -0.101514 0.201070 0.171016
v -0.114103 0.251427 0.167643
v -0.114103 0.201070 0.167643
v -0.123319 0.251427 0.158427
v -0.123319 0.201070 0.158427
v -0.126692 0.251427 0.145838
v -0.126692 0.201070 0.145838
v -0.123319 0.251427 0.133249
v -0.123319 0.201070 0.133249
v -0.114103 0.251427 0.124033
v -0.114103 0.201070 0.124033
v -0.101514 0.251427 0.128275
v -0.092732 0.251427 0.130628
v -0.086304 0.251427 0.137056
v -0.083951 0.251427 0.145838
v -0.086304 0.251427 0.154619
v -0.092732 0.251427 0.161048
v -0.101514 0.251427 0.163400
v -0.110295 0.251427 0.161048
v -0.116723 0.251427 0.154619
v -0.119076 0.251427 0.145838
v -0.116723 0.251427 0.137056
v -0.110295 0.251427 0.130628
v -0.101514 0.453637 0.131131
v -0.094160 0.453637 0.133101
v -0.088777 0.453637 0.138484
v -0.086807 0.453637 0.145838
v -0.088777 0.453637 0.153191
v -0.094160 0.453637 0.158574
v -0.101514 0.453637 0.160544
v -0.108867 0.453637 0.158574
v -0.114250 0.453637 0.153191
v -0.116220 0.453637 0.145838
v -0.114250 0.453637 0.138484
v -0.108867 0.453637 0.133101
v -0.101514 0.453637 0.135402
v -0.096296 0.453637 0.136800
v -0.092476 0.453637 0.140620
v -0.091078 0.453637 0.145838
v -0.092476 0.453637 0.151055
v -0.096296 0.453637 0.154875
v -0.101514 0.453637 0.156273
v -0.106731 0.453637 0.154875
v -0.110551 0.453637 0.151055
v -0.111949 0.453637 0.145838
v -0.110551 0.453637 0.140620
v -0.106731 0.453637 0.136800
v -0.093947 0.841163 0.150207
v -0.105882 0.841163 0.153405
v -0.109081 0.909883 0.141469
v -0.105882 0.909883 0.138271
v -0.101514 0.909883 0.137100
v -0.097145 0.909883 0.138271
v -0.093947 0.909883 0.141469
v -0.109081 0.909883 0.150207
v -0.110251 0.909883 0.145838
v -0.082448 0.848052 0.156845
v -0.112521 0.848052 0.164903
v -0.101514 0.909883 0.154575
v -0.105882 0.909883 0.153405
v -0.097145 0.909883 0.153405
v -0.093947 0.909883 0.150207
v -0.092776 0.909883 0.145838
v 0.094486 0.215143 0.156337
v 0.094486 0.242090 0.156337
v 0.094486 0.242090 0.129391
v 0.094486 0.215143 0.129391
v 0.121433 0.242090 0.129391
v 0.121433 0.215143 0.129391
v 0.121433 0.242090 0.156337
v 0.121433 0.215143 0.156337
vt 0.603049 0.000000
vt 0.625000 0.000000
vt 0.625000 0.250000
vt 0.603049 0.250000
vt 0.603049 0.750000
vt 0.625000 0.750000
vt 0.625000 1.000000
vt 0.603049 1.000000
vt 0.125000 0.500000
vt 0.375000 0.500000
vt 0.375000 0.750000
vt 0.125000 0.750000
vt 0.625000 0.500000
vt 0.875000 0.500000
vt 0.875000 0.750000
vt 0.375000 0.750000
vt 0.125000 0.750000
vt 0.400000 0.500000
vt 0.400000 0.750000
vt 0.375000 0.000000
vt 0.400000 0.000000
vt 0.400000 0.250000
vt 0.375000 0.250000
vt 0.400000 0.750000
vt 0.400000 1.000000
vt 0.375000 1.000000
vt 0.400000 1.000000
vt 0.375000 0.000000
vt 0.400000 0.000000
vt 0.603049 0.500000
vt 0.089912 0.539474
vt 0.125000 0.750000
vt 0.125000 0.500000
vt 0.089912 0.359649
vt 0.035362 0.141447
vt 0.106086 0.141447
vt 0.000000 0.000000
vt 0.000000 0.000000
vt 0.144764 0.531232
vt 0.144764 0.718768
vt 0.355236 0.718768
vt 0.355236 0.531232
vt 0.000000 0.000000
vt 0.035362 0.212171
vt 0.375000 0.750000
vt 0.269737 0.539474
vt 0.269737 0.359649
vt 0.375000 0.500000
vt 0.106086 0.212171
vt 0.000000 0.000000
vt 0.142319 0.527368
vt 0.142319 0.722632
vt 0.357681 0.527368
vt 0.357681 0.722632
vt 0.250000 0.500000
vt 0.125000 0.250000
vt 0.125000 0.166667
vt 0.250000 0.333333
vt 0.083333 0.333333
vt 0.041667 0.166667
vt 0.041667 0.250000
vt 0.083333 0.500000
vt 0.322128 0.291644
vt 0.291643 0.322129
vt 0.291643 0.322129
vt 0.322128 0.291644
vt 0.250000 0.333287
vt 0.208357 0.322129
vt 0.208357 0.322129
vt 0.250000 0.333287
vt 0.333287 0.250000
vt 0.333287 0.250000
vt 0.250000 0.166713
vt 0.291643 0.177872
vt 0.291643 0.177872
vt 0.250000 0.166713
vt 0.166713 0.250000
vt 0.177872 0.208356
vt 0.177872 0.208356
vt 0.166713 0.250000
vt 0.177872 0.291643
vt 0.177872 0.291643
vt 1.000000 0.500000
vt 1.000000 1.000000
vt 0.916667 1.000000
vt 0.916667 0.500000
vt 0.833333 1.000000
vt 0.833333 0.500000
vt 0.750000 1.000000
vt 0.750000 0.500000
vt 0.666667 1.000000
vt 0.666667 0.500000
vt 0.583333 1.000000
vt 0.583333 0.500000
vt 0.500000 1.000000
vt 0.500000 0.500000
vt 0.416667 1.000000
vt 0.416667 0.500000
vt 0.333333 1.000000
vt 0.333333 0.500000
vt 0.250000 1.000000
vt 0.250000 0.500000
vt 0.166667 1.000000
vt 0.166667 0.500000
vt 0.083333 1.000000
vt 0.083333 0.500000
vt 0.000000 1.000000
vt 0.000000 0.500000
vt 0.250000 0.417407
vt 0.333704 0.394979
vt 0.370000 0.457846
vt 0.250000 0.490000
vt 0.394979 0.333704
vt 0.457846 0.370000
vt 0.417407 0.250000
vt 0.490000 0.250000
vt 0.394979 0.166296
vt 0.457846 0.130000
vt 0.333704 0.105021
vt 0.370000 0.042154
vt 0.250000 0.082593
vt 0.250000 0.010000
vt 0.166296 0.105021
vt 0.130000 0.042154
vt 0.105021 0.166296
vt 0.042154 0.130000
vt 0.082593 0.250000
vt 0.010000 0.250000
vt 0.105021 0.333704
vt 0.042154 0.370000
vt 0.166296 0.394979
vt 0.130000 0.457846
vt 0.250000 0.390183
vt 0.320092 0.371402
vt 0.371402 0.320092
vt 0.390183 0.250000
vt 0.371402 0.179908
vt 0.320092 0.128598
vt 0.250000 0.109817
vt 0.179908 0.128598
vt 0.128598 0.179908
vt 0.109817 0.250000
vt 0.128598 0.320092
vt 0.179908 0.371402
vt 0.250000 0.349470
vt 0.299735 0.336143
vt 0.336143 0.299735
vt 0.349469 0.250000
vt 0.336143 0.200265
vt 0.299735 0.163857
vt 0.250000 0.150531
vt 0.200265 0.163857
vt 0.163857 0.200265
vt 0.150531 0.250000
vt 0.163857 0.299735
vt 0.200265 0.336143
vt 0.322128 0.208357
vt 0.208357 0.177872
vt 0.177872 0.291643
vt 0.208357 0.322129
vt 0.250000 0.333287
vt 0.291643 0.322129
vt 0.322128 0.291644
vt 0.177872 0.208356
vt 0.166713 0.250000
vt 0.322128 0.208357
vt 0.208357 0.177872
vt 0.250000 0.166713
vt 0.208357 0.177872
vt 0.291643 0.177872
vt 0.322128 0.208357
vt 0.333287 0.250000
vt 0.375000 0.000000
vt 0.625000 0.000000
vt 0.625000 0.250000
vt 0.375000 0.250000
vt 0.625000 0.500000
vt 0.375000 0.500000
vt 0.625000 0.750000
vt 0.375000 0.750000
vt 0.625000 1.000000
vt 0.375000 1.000000
vt 0.875000 0.500000
vt 0.875000 0.750000
vn -1.0000 0.0000 0.0000
vn 0.0000 0.4079 0.9130
vn 0.0000 0.7448 0.6673
vn 0.0000 -1.0000 -0.0000
vn 0.0000 1.0000 0.0000
vn 1.0000 -0.0000 0.0000
vn 0.0000 0.0000 1.0000
vn -0.9935 0.1135 0.0000
vn 0.0000 -0.1135 0.9935
vn 0.9935 0.1135 0.0000
vn 0.0000 0.1135 0.9935
vn 0.3346 -0.8810 -0.3346
vn -0.1225 -0.8809 -0.4571
vn 0.4571 -0.8810 -0.1225
vn 0.1225 -0.8810 0.4571
vn -0.4571 -0.8809 0.1225
vn -0.4571 -0.8809 -0.1224
vn 0.2589 0.0000 -0.9659
vn 0.7071 0.0000 -0.7071
vn 0.9659 0.0000 -0.2588
vn 0.9659 -0.0000 0.2588
vn 0.7071 -0.0000 0.7071
vn 0.2588 -0.0000 0.9659
vn -0.2588 -0.0000 0.9659
vn -0.7071 -0.0000 0.7071
vn -0.9659 -0.0000 0.2588
vn -0.9659 0.0000 -0.2588
vn -0.7071 0.0000 -0.7071
vn -0.2589 0.0000 -0.9659
vn 0.2588 0.0136 -0.9658
vn 0.7070 0.0136 -0.7070
vn 0.9658 0.0136 -0.2588
vn 0.9658 0.0136 0.2588
vn 0.7071 0.0136 0.7070
vn 0.2587 0.0136 0.9659
vn -0.2587 0.0136 0.9659
vn -0.7071 0.0136 0.7070
vn -0.9658 0.0136 0.2588
vn -0.9658 0.0136 -0.2588
vn -0.7070 0.0136 -0.7070
vn -0.2588 0.0136 -0.9658
vn 0.2588 0.0042 -0.9659
vn 0.7071 0.0042 -0.7071
vn 0.9659 0.0042 -0.2588
vn 0.9659 0.0042 0.2589
vn 0.7071 0.0042 0.7071
vn 0.2587 0.0042 0.9659
vn -0.2588 0.0042 0.9659
vn -0.7070 0.0042 0.7072
vn -0.9659 0.0042 0.2588
vn -0.9659 0.0042 -0.2587
vn -0.7070 0.0042 -0.7072
vn -0.2589 0.0042 -0.9659
vn -0.6923 0.2031 -0.6924
vn 0.2534 0.2031 -0.9458
vn -0.2534 0.2031 -0.9458
vn 0.6924 0.2031 -0.6924
vn -0.9458 0.2031 0.2534
vn -0.9458 0.2031 -0.2534
vn 0.3346 -0.8809 0.3346
vn -0.3346 -0.8809 0.3346
vn 0.1225 -0.8810 -0.4571
vn -0.3346 -0.8810 -0.3346
vn 0.4571 -0.8809 0.1225
vn -0.1225 -0.8809 0.4571
vn -0.2534 0.2031 0.9458
vn 0.9458 0.2031 0.2534
vn -0.6923 0.2031 0.6924
vn 0.6924 0.2031 0.6924
vn 0.2534 0.2031 0.9458
vn 0.9458 0.2031 -0.2534
vn 0.0000 0.0000 -1.0000
usemtl Material.002
s 1
f 1/1/1 2/2/1 3/3/1 4/4/1
f 5/5/2 6/6/3 2/7/3 1/8/2
f 7/9/4 8/10/4 9/11/4 10/12/4
f 11/13/5 3/14/5 2/15/5 6/6/5
f 10/12/4 9/11/4 15/16/4 16/17/4
f 8/10/6 13/18/6 17/19/6 9/11/6
f 10/20/1 18/21/1 14/22/1 7/23/1
f 15/16/7 19/24/7 20/25/7 16/26/7
f 17/19/5 18/27/5 20/25/5 19/24/5
f 18/21/1 10/20/1 16/28/1 20/29/1
f 9/11/6 17/19/6 19/24/6 15/16/6
f 5/5/6 17/19/6 13/18/6 12/30/6
f 6/6/6 5/5/6 12/30/6 11/13/6
f 17/19/7 5/5/2 1/8/2 18/27/7
f 18/21/1 1/1/1 4/4/1 14/22/1
usemtl Material.008
f 21/31/6 22/32/6 23/33/6 24/34/6
f 25/35/7 26/36/7 27/37/7 28/38/7
f 29/39/5 30/40/5 31/41/5 32/42/5
f 33/43/6 34/44/6 25/35/6 28/38/6
f 35/45/1 36/46/1 37/47/1 38/48/1
f 23/33/7 38/48/7 37/47/7 24/34/7
f 39/49/1 40/50/1 27/37/1 26/36/1
f 29/39/8 41/51/8 42/52/8 30/40/8
f 32/42/9 29/39/9 41/51/9 43/53/9
f 31/41/10 44/54/10 43/53/10 32/42/10
f 30/40/11 42/52/11 44/54/11 31/41/11
f 45/55/1 46/56/1 47/57/1 48/58/1
f 49/59/7 48/58/7 47/57/7 50/60/7
f 51/61/6 52/62/6 49/59/6 50/60/6
usemtl Material.003
f 46/56/1 39/49/1 26/36/1 47/57/1
f 50/60/7 47/57/7 26/36/7 25/35/7
f 52/62/6 21/31/6 24/34/6 49/59/6
f 41/51/5 23/33/5 22/32/5 42/52/5
f 43/53/5 38/48/5 23/33/5 41/51/5
f 44/54/5 35/45/5 38/48/5 43/53/5
f 42/52/5 22/32/5 35/45/5 44/54/5
f 34/44/6 51/61/6 50/60/6 25/35/6
f 36/46/1 45/55/1 48/58/1 37/47/1
f 24/34/7 37/47/7 48/58/7 49/59/7
usemtl Material.004
f 53/63/12 54/64/12 55/65/12 56/66/12
f 57/67/13 58/68/13 59/69/13 60/70/13
f 61/71/14 53/63/14 56/66/14 62/72/14
f 63/73/15 64/74/15 65/75/15 66/76/15
f 67/77/16 68/78/16 69/79/16 70/80/16
f 71/81/17 67/77/17 70/80/17 72/82/17
f 73/83/18 74/84/18 75/85/18 76/86/18
f 76/86/19 75/85/19 77/87/19 78/88/19
f 78/88/20 77/87/20 79/89/20 80/90/20
f 80/90/21 79/89/21 81/91/21 82/92/21
f 82/92/22 81/91/22 83/93/22 84/94/22
f 84/94/23 83/93/23 85/95/23 86/96/23
f 86/96/24 85/95/24 87/97/24 88/98/24
f 88/98/25 87/97/25 89/99/25 90/100/25
f 90/100/26 89/99/26 91/101/26 92/102/26
f 92/102/27 91/101/27 93/103/27 94/104/27
f 94/104/28 93/103/28 95/105/28 96/106/28
f 96/106/29 95/105/29 74/107/29 73/108/29
f 97/109/5 98/110/5 75/111/5 74/112/5
f 98/110/5 99/113/5 77/114/5 75/111/5
f 99/113/5 100/115/5 79/116/5 77/114/5
f 100/115/5 101/117/5 81/118/5 79/116/5
f 101/117/5 102/119/5 83/120/5 81/118/5
f 102/119/5 103/121/5 85/122/5 83/120/5
f 103/121/5 104/123/5 87/124/5 85/122/5
f 104/123/5 105/125/5 89/126/5 87/124/5
f 105/125/5 106/127/5 91/128/5 89/126/5
f 106/127/5 107/129/5 93/130/5 91/128/5
f 107/129/5 108/131/5 95/132/5 93/130/5
f 108/131/5 97/109/5 74/112/5 95/132/5
f 109/133/30 110/134/30 98/110/30 97/109/30
f 110/134/31 111/135/31 99/113/31 98/110/31
f 111/135/32 112/136/32 100/115/32 99/113/32
f 112/136/33 113/137/33 101/117/33 100/115/33
f 113/137/34 114/138/34 102/119/34 101/117/34
f 114/138/35 115/139/35 103/121/35 102/119/35
f 115/139/36 116/140/36 104/123/36 103/121/36
f 116/140/37 117/141/37 105/125/37 104/123/37
f 117/141/38 118/142/38 106/127/38 105/125/38
f 118/142/39 119/143/39 107/129/39 106/127/39
f 119/143/40 120/144/40 108/131/40 107/129/40
f 120/144/41 109/133/41 97/109/41 108/131/41
f 121/145/5 122/146/5 110/134/5 109/133/5
f 122/146/5 123/147/5 111/135/5 110/134/5
f 123/147/5 124/148/5 112/136/5 111/135/5
f 124/148/5 125/149/5 113/137/5 112/136/5
f 125/149/5 126/150/5 114/138/5 113/137/5
f 126/150/5 127/151/5 115/139/5 114/138/5
f 127/151/5 128/152/5 116/140/5 115/139/5
f 128/152/5 129/153/5 117/141/5 116/140/5
f 129/153/5 130/154/5 118/142/5 117/141/5
f 130/154/5 131/155/5 119/143/5 118/142/5
f 131/155/5 132/156/5 120/144/5 119/143/5
f 132/156/5 121/145/5 109/133/5 120/144/5
f 57/67/42 54/64/42 122/146/42 121/145/42
f 54/64/43 53/63/43 123/147/43 122/146/43
f 53/63/44 61/71/44 124/148/44 123/147/44
f 61/71/45 133/157/45 125/149/45 124/148/45
f 133/157/46 64/74/46 126/150/46 125/149/46
f 64/74/47 63/73/47 127/151/47 126/150/47
f 63/73/48 134/158/48 128/152/48 127/151/48
f 134/158/49 68/78/49 129/153/49 128/152/49
f 68/78/50 67/77/50 130/154/50 129/153/50
f 67/77/51 71/81/51 131/155/51 130/154/51
f 71/81/52 58/68/52 132/156/52 131/155/52
f 58/68/53 57/67/53 121/145/53 132/156/53
f 59/69/54 72/82/54 135/159/54 136/160/54
f 55/65/55 60/70/55 137/161/55 138/162/55
f 60/70/56 59/69/56 136/160/56 137/161/56
f 56/66/57 55/65/57 138/162/57 139/163/57
f 70/80/58 69/79/58 140/164/58 141/165/58
f 72/82/59 70/80/59 141/165/59 135/159/59
f 64/74/60 133/157/60 142/166/60 65/75/60
f 68/78/61 134/158/61 143/167/61 69/79/61
f 54/64/62 57/67/62 60/70/62 55/65/62
f 58/68/63 71/81/63 72/82/63 59/69/63
f 133/157/64 61/71/64 62/72/64 142/166/64
f 134/158/65 63/73/65 66/76/65 143/167/65
usemtl Material.007
f 143/167/66 66/76/66 144/168/66 145/169/66
f 138/162/5 137/161/5 136/160/5 135/159/5 141/165/5 140/164/5 145/169/5 144/168/5 146/170/5 147/171/5 148/172/5 139/163/5
f 142/166/67 62/72/67 148/172/67 147/171/67
f 69/79/68 143/167/68 145/169/68 140/164/68
f 65/75/69 142/166/69 147/171/69 146/170/69
f 66/76/70 65/75/70 146/170/70 144/168/70
f 62/72/71 56/66/71 139/163/71 148/172/71
f 149/173/1 150/174/1 151/175/1 152/176/1
f 152/176/72 151/175/72 153/177/72 154/178/72
f 154/178/6 153/177/6 155/179/6 156/180/6
f 156/180/7 155/179/7 150/181/7 149/182/7
f 153/177/5 151/183/5 150/184/5 155/179/5
