# Blender v3.3.0 OBJ File: ''
# www.blender.org
mtllib heavy_helm.mtl
o Cube_Cube.001
v 0.276163 -0.113814 -0.045920
v 0.264592 0.098520 -0.265139
v -0.264592 -0.179416 -0.287835
v -0.264592 0.098520 -0.265139
v 0.264592 -0.179416 -0.287835
v 0.276163 0.057005 -0.043149
v -0.276163 0.057086 -0.043837
v -0.222285 0.007645 -0.132153
v -0.212647 0.212638 -0.132153
v -0.224457 0.152870 -0.205799
v -0.222285 0.006007 -0.209428
v 0.130048 0.005722 -0.260146
v 0.130048 0.149560 -0.238369
v 0.224457 0.152870 -0.205799
v 0.222285 0.006007 -0.209428
v 0.260097 -0.143345 0.035642
v 0.224457 0.186623 0.185538
v 0.239482 0.099248 0.284604
v 0.232312 -0.126918 0.263493
v -0.130048 -0.126918 0.266166
v -0.130048 0.099248 0.315586
v -0.239482 0.099248 0.284604
v -0.232312 -0.126918 0.263493
v -0.130048 0.210464 0.197454
v -0.224457 0.186623 0.185538
v -0.130048 0.149560 -0.238369
v -0.130048 0.232311 -0.132153
v -0.224457 0.232311 -0.002105
v -0.130048 0.270063 -0.002105
v 0.212647 0.212638 -0.132153
v 0.222285 0.008765 -0.132153
v 0.224457 0.232311 -0.002105
v 0.260097 0.006762 0.092080
v -0.260097 -0.143345 0.035642
v -0.260097 0.006762 0.092080
v 0.130048 0.270063 -0.002105
v 0.130048 0.210464 0.197454
v 0.000000 0.270063 -0.002105
v 0.000000 0.210464 0.197454
v 0.130048 0.232311 -0.132153
v 0.000000 0.239174 -0.139017
v 0.000000 0.149560 -0.238369
v 0.130048 0.099248 0.315586
v 0.000000 0.099248 0.315586
v 0.130048 -0.126918 0.266166
v 0.000000 -0.126918 0.266166
v -0.130048 0.005722 -0.260146
v 0.000000 0.005722 -0.260146
v -0.276163 -0.115741 -0.046621
v 0.210906 -0.163530 0.018348
v 0.260097 -0.163530 0.018348
v 0.232312 -0.148267 0.261501
v 0.197360 -0.148267 0.261501
v 0.130048 -0.007856 -0.262201
v 0.222285 -0.007856 -0.209771
v 0.222285 -0.007856 -0.132153
v 0.210906 -0.007856 -0.194558
v 0.260097 -0.005473 0.076541
v 0.210906 -0.005473 0.076541
v -0.260097 -0.005473 0.076541
v -0.210906 -0.005473 0.076541
v -0.210906 -0.163530 0.018348
v -0.260097 -0.163530 0.018348
v -0.222285 -0.007856 -0.132153
v -0.210906 -0.007856 -0.194558
v -0.222285 -0.007856 -0.209771
v -0.130048 -0.007856 -0.262201
v 0.000000 -0.007856 -0.262201
v 0.000000 -0.007856 -0.215027
v -0.197360 -0.148267 0.261501
v -0.232312 -0.148267 0.261501
v 0.000000 -0.148267 0.261501
v 0.199802 0.098520 -0.199041
v -0.209877 0.098520 -0.199041
v -0.214958 0.069814 -0.285863
v 0.214958 0.069814 -0.285863
v -0.243759 -0.179416 -0.272794
v 0.243759 -0.179416 -0.272794
v 0.214958 -0.150710 -0.303871
v -0.214958 -0.150710 -0.303871
v -0.209877 0.098520 0.116662
v -0.276163 0.057086 0.073894
v 0.276163 0.057005 0.073810
v 0.276163 -0.114212 0.068382
v -0.276163 -0.114288 0.068461
v 0.243759 -0.153040 0.108687
v 0.199802 0.098520 0.116662
v -0.243759 -0.153040 0.108687
v -0.243759 0.098520 -0.283519
v 0.243759 0.098520 -0.283519
v 0.243759 -0.179416 -0.306215
v -0.243759 -0.179416 -0.306215
v 0.276163 0.098520 -0.250098
v 0.276163 -0.179416 -0.272794
v 0.276163 0.098520 0.116662
v 0.276163 -0.153040 0.108687
v -0.276163 -0.179416 -0.272794
v -0.276163 0.098520 -0.250098
v -0.276163 -0.153040 0.108687
v -0.276163 0.098520 0.116662
v -0.319409 -0.115741 -0.046621
v -0.319409 0.057086 -0.043837
v -0.319409 -0.114288 0.068461
v -0.319409 0.057086 0.073894
v 0.320681 0.057005 -0.043149
v 0.320681 -0.113814 -0.045920
v 0.320681 0.057005 0.073810
v 0.320681 -0.114212 0.068382
v 0.310036 0.057005 0.073810
v 0.310036 0.057005 -0.043149
v 0.310036 -0.113814 -0.045920
v 0.310036 -0.114212 0.068382
v -0.309165 0.057086 -0.043837
v -0.309165 0.057086 0.073894
v -0.309165 -0.114288 0.068461
v -0.309165 -0.115741 -0.046621
vt 0.836962 0.500000
vt 0.663140 0.500000
vt 0.665537 0.500000
vt 0.834539 0.500000
vt 0.413215 0.750000
vt 0.586887 0.750000
vt 0.584460 0.750000
vt 0.415616 0.750000
vt 0.584460 0.750000
vt 0.415616 0.750000
vt 0.415616 0.750000
vt 0.584460 0.750000
vt 0.413215 0.750000
vt 0.413215 0.750000
vt 0.586887 0.750000
vt 0.586887 0.750000
vt 0.836962 0.500000
vt 0.663140 0.500000
vt 0.663140 0.500000
vt 0.836962 0.500000
vt 0.665537 0.500000
vt 0.665537 0.500000
vt 0.834539 0.500000
vt 0.834539 0.500000
vt 0.396563 0.187500
vt 0.625000 0.187500
vt 0.625000 0.250000
vt 0.396563 0.250000
vt 0.396563 0.437500
vt 0.625000 0.437500
vt 0.625000 0.500000
vt 0.396563 0.500000
vt 0.396563 0.687500
vt 0.625000 0.687500
vt 0.625000 0.750000
vt 0.396563 0.750000
vt 0.396563 0.937500
vt 0.625000 0.937500
vt 0.625000 1.000000
vt 0.396563 1.000000
vt 0.812500 0.687500
vt 0.875000 0.687500
vt 0.875000 0.750000
vt 0.812500 0.750000
vt 0.812500 0.500000
vt 0.875000 0.500000
vt 0.875000 0.562500
vt 0.812500 0.562500
vt 0.875000 0.625000
vt 0.812500 0.625000
vt 0.625000 0.562500
vt 0.396563 0.562500
vt 0.625000 0.625000
vt 0.396563 0.625000
vt 0.396563 0.000000
vt 0.625000 0.000000
vt 0.625000 0.062500
vt 0.396563 0.062500
vt 0.625000 0.125000
vt 0.396563 0.125000
vt 0.687500 0.625000
vt 0.687500 0.687500
vt 0.750000 0.625000
vt 0.750000 0.687500
vt 0.687500 0.562500
vt 0.750000 0.562500
vt 0.687500 0.500000
vt 0.750000 0.500000
vt 0.687500 0.750000
vt 0.750000 0.750000
vt 0.625000 0.812500
vt 0.396563 0.812500
vt 0.625000 0.875000
vt 0.396563 0.875000
vt 0.625000 0.312500
vt 0.396563 0.312500
vt 0.625000 0.375000
vt 0.396563 0.375000
vt 0.610333 0.250000
vt 0.625000 0.250000
vt 0.625000 0.500000
vt 0.610333 0.500000
vt 0.375000 0.500000
vt 0.625000 0.500000
vt 0.625000 0.750000
vt 0.375000 0.750000
vt 0.610333 0.750000
vt 0.625000 0.750000
vt 0.625000 1.000000
vt 0.610333 1.000000
vt 0.125000 0.735333
vt 0.375000 0.735333
vt 0.375000 0.750000
vt 0.125000 0.750000
vt 0.625000 0.500000
vt 0.875000 0.500000
vt 0.875000 0.750000
vt 0.625000 0.750000
vt 0.125000 0.500000
vt 0.375000 0.500000
vt 0.375000 0.514667
vt 0.125000 0.514667
vt 0.389667 0.750000
vt 0.389667 1.000000
vt 0.375000 1.000000
vt 0.375000 0.250000
vt 0.389667 0.250000
vt 0.389667 0.500000
vt 0.375000 0.500000
vt 0.375000 0.235333
vt 0.625000 0.235333
vt 0.625000 0.250000
vt 0.375000 0.250000
vt 0.375000 0.000000
vt 0.625000 0.000000
vt 0.625000 0.014667
vt 0.375000 0.014667
vt 0.625000 0.500000
vt 0.610333 0.500000
vt 0.389667 0.500000
vt 0.375000 0.500000
vt 0.389667 1.000000
vt 0.375000 1.000000
vt 0.625000 1.000000
vt 0.610333 1.000000
vt 0.349180 0.722296
vt 0.349180 0.527704
vt 0.150820 0.527703
vt 0.150820 0.722297
vt 0.625000 0.750000
vt 0.375000 0.750000
vt 0.625000 0.500000
vt 0.875000 0.500000
vt 0.312500 0.687500
vt 0.375000 0.687500
vt 0.375000 0.750000
vt 0.312500 0.750000
vt 0.312500 0.500000
vt 0.375000 0.500000
vt 0.375000 0.562500
vt 0.312500 0.562500
vt 0.375000 0.625000
vt 0.312500 0.625000
vt 0.125000 0.625000
vt 0.187500 0.625000
vt 0.187500 0.687500
vt 0.125000 0.687500
vt 0.125000 0.562500
vt 0.187500 0.562500
vt 0.125000 0.500000
vt 0.187500 0.500000
vt 0.250000 0.500000
vt 0.250000 0.562500
vt 0.187500 0.750000
vt 0.125000 0.750000
vt 0.375000 0.375000
vt 0.375000 0.437500
vt 0.375000 0.312500
vt 0.375000 0.250000
vt 0.375000 0.875000
vt 0.375000 0.937500
vt 0.375000 0.812500
vt 0.375000 0.125000
vt 0.375000 0.187500
vt 0.375000 0.062500
vt 0.375000 0.000000
vt 0.375000 1.000000
vn -1.0000 -0.0000 0.0000
vn 1.0000 -0.0000 0.0000
vn 0.0000 -0.0317 0.9995
vn 0.0000 -1.0000 -0.0035
vn 0.0000 0.0162 -0.9999
vn 0.0000 1.0000 0.0000
vn 0.0000 0.0161 -0.9999
vn 0.0000 -0.9999 0.0126
vn -0.9974 0.0204 0.0697
vn 0.4051 0.0766 -0.9111
vn 0.9982 0.0367 0.0469
vn -0.1551 -0.1546 0.9757
vn -0.2218 0.7272 0.6496
vn -0.1828 0.7764 -0.6032
vn -0.3011 0.9282 -0.2186
vn -0.3145 0.9160 0.2491
vn 0.9974 0.0205 0.0695
vn 0.9872 0.0730 -0.1419
vn 0.9805 0.1094 0.1633
vn -0.9982 0.0367 0.0469
vn -0.9805 0.1094 0.1633
vn -0.9872 0.0727 -0.1421
vn 0.3145 0.9160 0.2491
vn 0.0000 0.9582 0.2862
vn 0.3011 0.9282 -0.2186
vn 0.0321 0.9680 -0.2489
vn -0.0321 0.9680 -0.2489
vn 0.1828 0.7764 -0.6032
vn 0.0371 0.7657 -0.6421
vn -0.0371 0.7657 -0.6421
vn 0.2218 0.7272 0.6496
vn 0.0000 0.7281 0.6855
vn 0.1551 -0.1546 0.9757
vn 0.0000 -0.2135 0.9769
vn -0.4051 0.0766 -0.9111
vn 0.0000 0.1497 -0.9887
vn 0.0000 -1.0000 0.0000
vn 0.7916 0.0497 -0.6090
vn 0.6603 0.0611 -0.7485
vn -0.7916 0.0497 -0.6090
vn -0.6603 0.0611 -0.7485
vn 0.0000 -0.9976 0.0690
vn 0.0000 0.0814 -0.9967
vn 0.0000 -0.9980 0.0626
vn -0.0071 -1.0000 0.0044
vn -0.0038 -1.0000 0.0056
vn -0.0111 -0.9999 0.0108
vn 0.0000 0.3455 -0.9384
vn 0.0071 -1.0000 0.0044
vn 0.0038 -1.0000 0.0056
vn 0.0111 -0.9999 0.0108
vn 0.0000 0.1496 -0.9887
vn -0.4865 0.0761 -0.8703
vn 0.0193 -0.1242 0.9921
vn -0.9953 0.0471 -0.0841
vn -0.9939 0.0540 -0.0963
vn -0.9950 0.0486 -0.0867
vn -0.9951 0.0481 -0.0859
vn -0.9911 -0.0560 0.1207
vn 0.9954 0.0452 -0.0840
vn 0.9940 0.0520 -0.0965
vn 0.9952 0.0462 -0.0858
vn 0.9951 0.0468 -0.0869
vn -0.0193 -0.1242 0.9921
vn 0.9911 -0.0560 0.1207
vn 0.4865 0.0761 -0.8703
usemtl Material.005
s off
f 102/1/1 101/2/1 103/3/1 104/4/1
f 106/5/2 105/6/2 107/7/2 108/8/2
f 83/9/3 84/10/3 112/11/3 109/12/3
f 84/10/4 1/13/4 111/14/4 112/11/4
f 1/13/5 6/15/5 110/16/5 111/14/5
f 6/15/6 83/9/6 109/12/6 110/16/6
f 7/17/7 49/18/7 116/19/7 113/20/7
f 49/18/8 85/21/8 115/22/8 116/19/8
f 85/21/3 82/23/3 114/24/3 115/22/3
f 82/23/6 7/17/6 113/20/6 114/24/6
s 1
f 8/25/9 9/26/9 10/27/9 11/28/9
f 12/29/10 13/30/10 14/31/10 15/32/10
f 16/33/11 17/34/11 18/35/11 19/36/11
f 20/37/12 21/38/12 22/39/12 23/40/12
f 24/41/13 25/42/13 22/43/13 21/44/13
f 26/45/14 10/46/14 9/47/14 27/48/14
f 27/48/15 9/47/15 28/49/15 29/50/15
f 29/50/16 28/49/16 25/42/16 24/41/16
f 15/32/17 14/31/17 30/51/17 31/52/17
f 31/52/18 30/51/18 32/53/18 33/54/18
f 33/54/19 32/53/19 17/34/19 16/33/19
f 23/55/20 22/56/20 25/57/20 34/58/20
f 34/58/21 25/57/21 28/59/21 35/60/21
f 35/60/22 28/59/22 9/26/22 8/25/22
f 32/53/23 36/61/23 37/62/23 17/34/23
f 36/61/24 38/63/24 39/64/24 37/62/24
f 38/63/24 29/50/24 24/41/24 39/64/24
f 30/51/25 40/65/25 36/61/25 32/53/25
f 40/65/26 41/66/26 38/63/26 36/61/26
f 41/66/27 27/48/27 29/50/27 38/63/27
f 14/31/28 13/67/28 40/65/28 30/51/28
f 13/67/29 42/68/29 41/66/29 40/65/29
f 42/68/30 26/45/30 27/48/30 41/66/30
f 17/34/31 37/62/31 43/69/31 18/35/31
f 37/62/32 39/64/32 44/70/32 43/69/32
f 39/64/32 24/41/32 21/44/32 44/70/32
f 19/36/33 18/35/33 43/71/33 45/72/33
f 45/72/34 43/71/34 44/73/34 46/74/34
f 46/74/34 44/73/34 21/38/34 20/37/34
f 11/28/35 10/27/35 26/75/35 47/76/35
f 47/76/36 26/75/36 42/77/36 48/78/36
f 48/78/36 42/77/36 13/30/36 12/29/36
usemtl Material.006
s off
f 110/16/6 109/12/6 107/7/6 105/6/6
f 91/79/37 5/80/37 94/81/37 78/82/37
f 5/83/38 2/84/38 93/85/38 94/86/38
f 89/87/6 4/88/6 98/89/6 74/90/6
f 91/91/39 90/92/39 2/93/39 5/94/39
f 97/95/40 98/96/40 4/97/40 3/98/40
f 3/99/41 4/100/41 89/101/41 92/102/41
f 2/93/6 90/103/6 73/104/6 93/105/6
f 90/103/6 89/87/6 74/90/6 73/104/6
f 3/106/37 92/107/37 77/108/37 97/109/37
f 92/107/37 91/79/37 78/82/37 77/108/37
f 88/110/3 81/111/3 100/112/3 99/113/3
f 96/114/3 95/115/3 87/116/3 86/117/3
f 78/82/42 94/81/42 96/118/42 86/119/42
f 97/109/42 77/108/42 88/120/42 99/121/42
f 114/24/6 113/20/6 102/1/6 104/4/6
f 93/105/6 73/104/6 87/122/6 95/123/6
f 74/90/6 98/89/6 100/124/6 81/125/6
f 76/126/43 75/127/43 89/101/43 90/92/43
f 80/128/43 79/129/43 91/91/43 92/102/43
f 75/127/43 80/128/43 92/102/43 89/101/43
f 79/129/43 76/126/43 90/92/43 91/91/43
f 6/15/2 1/13/2 94/86/2 93/85/2
f 84/10/2 83/9/2 95/130/2 96/131/2
f 83/9/2 6/15/2 93/85/2 95/130/2
f 1/13/2 84/10/2 96/131/2 94/86/2
f 49/18/1 7/17/1 98/96/1 97/95/1
f 82/23/1 85/21/1 99/132/1 100/133/1
f 85/21/1 49/18/1 97/95/1 99/132/1
f 7/17/1 82/23/1 100/133/1 98/96/1
f 115/22/3 114/24/3 104/4/3 103/3/3
f 116/19/8 115/22/8 103/3/8 101/2/8
f 113/20/7 116/19/7 101/2/7 102/1/7
f 111/14/5 110/16/5 105/6/5 106/5/5
f 112/11/4 111/14/4 106/5/4 108/8/4
f 109/12/3 112/11/3 108/8/3 107/7/3
s 1
f 50/134/44 51/135/44 52/136/44 53/137/44
f 54/138/37 55/139/37 56/140/45 57/141/46
f 57/141/46 56/140/45 58/142/47 59/143/47
f 59/143/48 58/142/48 51/135/48 50/134/48
f 60/144/48 61/145/48 62/146/48 63/147/48
f 64/148/49 65/149/50 61/145/51 60/144/51
f 66/150/37 67/151/37 65/149/50 64/148/49
f 67/151/37 68/152/37 69/153/37 65/149/50
f 68/152/37 54/138/37 57/141/46 69/153/37
f 63/147/44 62/146/44 70/154/44 71/155/44
f 68/156/52 48/78/36 12/29/36 54/157/52
f 67/158/52 47/76/36 48/78/36 68/156/52
f 66/159/53 11/28/53 47/76/53 67/158/53
f 72/160/34 46/74/34 20/37/34 70/161/34
f 53/162/34 45/72/34 46/74/34 72/160/34
f 52/136/54 19/36/54 45/72/54 53/162/54
f 60/163/55 35/60/56 8/25/57 64/164/58
f 63/165/1 34/58/1 35/60/56 60/163/55
f 71/166/59 23/55/59 34/58/59 63/165/59
f 58/142/60 33/54/61 16/33/2 51/135/2
f 56/140/62 31/52/63 33/54/61 58/142/60
f 55/139/2 15/32/2 31/52/63 56/140/62
f 70/161/64 20/37/64 23/40/64 71/167/64
f 51/135/65 16/33/65 19/36/65 52/136/65
f 54/157/66 12/29/66 15/32/66 55/139/66
f 64/164/58 8/25/57 11/28/1 66/159/1
usemtl Material.001
s off
f 80/128/43 75/127/43 76/126/43 79/129/43
