# Blender v3.3.0 OBJ File: ''
# www.blender.org
mtllib googles.mtl
o Cube_Cube.001
v -0.215037 0.041524 -0.175752
v -0.215037 0.087989 -0.175752
v -0.215288 -0.011115 -0.207600
v -0.214867 0.104254 -0.207600
v 0.217577 0.038895 -0.175752
v 0.217577 0.090619 -0.175752
v 0.215807 -0.016268 -0.207600
v 0.216382 0.104254 -0.207600
v 0.039787 -0.018176 -0.207600
v -0.039137 -0.017653 -0.207600
v -0.034583 0.089654 -0.207600
v 0.035716 0.090177 -0.207600
v -0.033694 -0.026573 -0.175752
v 0.033843 -0.026573 -0.175752
v 0.024417 0.104254 -0.175752
v -0.024154 0.104254 -0.175752
v 0.008227 0.032314 -0.207600
v -0.007964 0.032314 -0.207600
v -0.007964 0.098631 -0.207600
v 0.008227 0.098631 -0.207600
v -0.007964 0.032314 -0.175752
v 0.008227 0.032314 -0.175752
v 0.008227 0.098631 -0.175752
v -0.007964 0.098631 -0.175752
v -0.189577 -0.018008 -0.207600
v -0.205004 0.087989 -0.175752
v -0.191582 0.093204 -0.207600
v -0.205004 0.041524 -0.175752
v 0.193182 0.092307 -0.207600
v 0.206003 0.038895 -0.175752
v 0.190175 -0.017821 -0.207600
v 0.206003 0.090619 -0.175752
v -0.215288 -0.011115 -0.175752
v -0.214867 0.104254 -0.175752
v -0.196424 0.104254 -0.175752
v -0.196424 -0.026573 -0.175752
v 0.216382 0.104254 -0.175752
v 0.215807 -0.016268 -0.175752
v 0.199793 -0.026573 -0.175752
v 0.199793 0.104254 -0.175752
v -0.228517 0.041524 0.073339
v -0.228517 0.087989 0.073339
v -0.217858 0.087989 0.073339
v -0.217858 0.041524 0.073339
v 0.231096 0.090619 0.073339
v 0.231096 0.038895 0.073339
v 0.218800 0.038895 0.073339
v 0.218800 0.090619 0.073339
v -0.223412 0.042068 0.248579
v -0.223412 0.074732 0.248579
v -0.212991 0.074732 0.248579
v -0.212991 0.042068 0.248579
v 0.225973 0.077361 0.248579
v 0.225973 0.039439 0.248579
v 0.213950 0.039439 0.248579
v 0.213950 0.077361 0.248579
v -0.196424 0.104254 -0.207600
v -0.024154 0.104254 -0.207600
v -0.033694 -0.026573 -0.207600
v -0.196424 -0.026573 -0.207600
v 0.199793 -0.026573 -0.207600
v 0.033843 -0.026573 -0.207600
v 0.024417 0.104254 -0.207600
v 0.199793 0.104254 -0.207600
v -0.214887 0.099508 -0.175752
v -0.214887 0.099508 -0.207600
v 0.216354 0.099262 -0.207600
v 0.216354 0.099262 -0.175752
v -0.024610 0.089313 -0.207600
v 0.024867 0.091798 -0.207600
v -0.007964 0.092980 -0.207600
v 0.008227 0.092980 -0.207600
v -0.196424 0.098770 -0.207600
v 0.199793 0.098770 -0.207600
v -0.215037 0.085771 -0.175752
v 0.217577 0.088149 -0.175752
v -0.228517 0.085771 0.073339
v 0.231096 0.088149 0.073339
v -0.223412 0.073172 0.248579
v -0.212991 0.073172 0.248579
v 0.225973 0.075551 0.248579
v 0.213950 0.075551 0.248579
v -0.027037 0.089678 -0.207600
v -0.191582 0.088233 -0.207600
v 0.028181 0.090388 -0.207600
v 0.193182 0.087523 -0.207600
v -0.215255 -0.003404 -0.207600
v 0.215852 -0.008157 -0.207600
v 0.215852 -0.008157 -0.175752
v -0.035084 -0.014113 -0.207600
v 0.034532 -0.016598 -0.207600
v -0.012934 0.037457 -0.207600
v 0.013849 0.037457 -0.207600
v -0.196424 -0.017663 -0.207600
v 0.199793 -0.017663 -0.207600
v 0.217577 0.042907 -0.175752
v 0.231096 0.042907 0.073339
v -0.212991 0.044601 0.248579
v 0.225973 0.042380 0.248579
v 0.213950 0.042380 0.248579
v -0.036520 -0.016519 -0.207600
v -0.191582 -0.013126 -0.207600
v 0.037153 -0.017346 -0.207600
v 0.193182 -0.011468 -0.207600
v -0.215255 -0.003404 -0.175752
v -0.215037 0.045128 -0.175752
v -0.228517 0.045128 0.073339
v -0.223412 0.044601 0.248579
vt 0.613065 0.000000
vt 0.625000 0.000000
vt 0.625000 0.250000
vt 0.613065 0.250000
vt 0.613066 0.486592
vt 0.625000 0.486592
vt 0.625000 0.500000
vt 0.613065 0.500000
vt 0.625000 0.750000
vt 0.613065 0.750000
vt 0.599507 0.753470
vt 0.610010 0.753470
vt 0.610010 0.753470
vt 0.599507 0.753470
vt 0.361592 0.500000
vt 0.375000 0.500000
vt 0.375000 0.750000
vt 0.361592 0.750000
vt 0.859805 0.500000
vt 0.875000 0.500000
vt 0.875000 0.750000
vt 0.859805 0.750000
vt 0.638408 0.500000
vt 0.722428 0.500000
vt 0.722428 0.750000
vt 0.638408 0.750000
vt 0.759190 0.500000
vt 0.777572 0.500000
vt 0.777572 0.750000
vt 0.759191 0.750000
vt 0.140195 0.500000
vt 0.222428 0.500000
vt 0.222428 0.750000
vt 0.140195 0.750000
vt 0.259191 0.500000
vt 0.277572 0.500000
vt 0.277572 0.750000
vt 0.259191 0.750000
vt 0.613065 0.384191
vt 0.625000 0.384191
vt 0.625000 0.402572
vt 0.613065 0.402572
vt 0.613065 0.347428
vt 0.625000 0.347428
vt 0.625000 0.365809
vt 0.613065 0.365809
vt 0.240809 0.500000
vt 0.240809 0.750000
vt 0.740809 0.500000
vt 0.740809 0.750000
vt 0.625000 0.265195
vt 0.613065 0.265195
vt 0.125000 0.500000
vt 0.125000 0.750000
vt 0.610010 0.759938
vt 0.610010 0.759938
vt 0.594358 0.995210
vt 0.604289 0.995205
vt 0.625000 1.000000
vt 0.568336 0.992077
vt 0.604289 0.989599
vt 0.395711 0.989599
vt 0.375000 0.984805
vt 0.625000 0.984805
vt 0.407054 0.753470
vt 0.389990 0.753470
vt 0.394389 0.750000
vt 0.389990 0.759937
vt 0.625000 0.763408
vt 0.375000 0.763408
vt 0.389990 0.759937
vt 0.389990 0.753470
vt 0.389990 0.753470
vt 0.389990 0.759937
vt 0.395711 0.995205
vt 0.395711 0.989599
vt 0.395711 0.995205
vt 0.407286 0.994387
vt 0.411888 0.995205
vt 0.604289 0.995205
vt 0.604289 0.989599
vt 0.594332 0.989599
vt 0.604289 0.989599
vt 0.604289 0.995205
vt 0.594332 0.995205
vt 0.599507 0.753470
vt 0.610010 0.753470
vt 0.610010 0.759938
vt 0.599507 0.759938
vt 0.395711 0.989599
vt 0.395711 0.995205
vt 0.411888 0.995205
vt 0.613313 0.344723
vt 0.613313 0.267901
vt 0.602495 0.344723
vt 0.386687 0.267901
vt 0.386687 0.344723
vt 0.375000 0.347428
vt 0.375000 0.265195
vt 0.404263 0.267901
vt 0.394389 0.265195
vt 0.390957 0.406266
vt 0.390957 0.482899
vt 0.375000 0.486592
vt 0.375000 0.402572
vt 0.407871 0.406266
vt 0.394389 0.402572
vt 0.609043 0.482899
vt 0.609043 0.406266
vt 0.598632 0.482898
vt 0.411888 0.989599
vt 0.407054 0.759937
vt 0.407871 0.482899
vt 0.394389 0.486593
vt 0.598632 0.406266
vt 0.602495 0.267901
vt 0.594332 0.995205
vt 0.407054 0.753470
vt 0.407054 0.753470
vt 0.390747 0.999355
vt 0.394389 0.250000
vt 0.394389 0.500000
vt 0.394389 0.000000
vt 0.375000 0.000000
vt 0.375000 0.250000
vt 0.375000 0.384191
vt 0.394389 0.384191
vt 0.394389 0.347428
vt 0.394389 0.365809
vt 0.375000 0.365809
vt 0.375000 1.000000
vt 0.404263 0.344723
vn -1.0000 0.0042 0.0000
vn 0.0000 0.0000 -1.0000
vn 1.0000 -0.0055 0.0000
vn 0.9985 0.0000 -0.0542
vn 0.5411 -0.8409 0.0000
vn 0.0000 1.0000 0.0000
vn 0.3281 0.9447 0.0000
vn 0.0000 -1.0000 -0.0000
vn -0.9170 -0.3989 0.0000
vn 0.9163 -0.4004 -0.0000
vn -0.3281 0.9447 0.0000
vn -0.6338 -0.7735 0.0000
vn 0.0003 0.0000 -1.0000
vn 0.0000 0.0000 1.0000
vn 0.0000 -1.0000 0.0031
vn -0.9985 0.0000 -0.0540
vn 0.0000 0.9972 0.0754
vn 0.9996 0.0000 0.0292
vn -0.9996 0.0000 0.0291
vn 1.0000 -0.0047 0.0000
vn -1.0000 0.0036 0.0000
vn -0.0005 0.0000 1.0000
usemtl Material.005
s off
f 65/1/1 34/2/1 4/3/1 66/4/1
f 74/5/2 64/6/2 8/7/2 67/8/2
f 67/8/3 8/7/3 37/9/3 68/10/3
f 76/11/4 6/12/4 45/13/4 78/14/4
f 61/15/5 7/16/5 38/17/5 39/18/5
f 57/19/6 4/20/6 34/21/6 35/22/6
f 64/23/6 63/24/6 15/25/6 40/26/6
f 19/27/7 58/28/7 16/29/7 24/30/7
f 60/31/8 59/32/8 13/33/8 36/34/8
f 17/35/9 62/36/9 14/37/9 22/38/9
f 72/39/2 20/40/2 63/41/2 70/42/2
f 69/43/2 58/44/2 19/45/2 71/46/2
f 71/46/2 19/45/2 20/40/2 72/39/2
f 59/32/10 18/47/10 21/48/10 13/33/10
f 18/47/8 17/35/8 22/38/8 21/48/8
f 63/24/11 20/49/11 23/50/11 15/25/11
f 20/49/6 19/27/6 24/30/6 23/50/6
f 66/4/2 4/3/2 57/51/2 73/52/2
f 3/53/12 60/31/12 36/34/12 33/54/12
f 58/28/6 57/19/6 35/22/6 16/29/6
f 6/12/6 32/55/6 48/56/6 45/13/6
f 8/7/6 64/23/6 40/26/6 37/9/6
f 62/36/8 61/15/8 39/18/8 14/37/8
f 75/57/13 2/58/13 34/59/13 65/60/13
f 26/61/14 28/62/14 36/63/14 35/64/14
f 96/65/2 5/66/2 38/17/2 89/67/2
f 30/68/14 32/55/14 40/69/14 39/70/14
f 47/71/15 46/72/15 54/73/15 55/74/15
f 1/75/8 28/62/8 44/76/8 41/77/8
f 106/78/16 1/75/16 41/77/16 107/79/16
f 30/68/8 5/66/8 46/72/8 47/71/8
f 26/61/6 2/58/6 42/80/6 43/81/6
f 80/82/14 51/83/14 50/84/14 79/85/14
f 81/86/14 53/87/14 56/88/14 82/89/14
f 43/81/17 42/80/17 50/84/17 51/83/17
f 45/13/17 48/56/17 56/88/17 53/87/17
f 78/14/18 45/13/18 53/87/18 81/86/18
f 41/77/15 44/76/15 52/90/15 49/91/15
f 107/79/19 41/77/19 49/91/19 108/92/19
f 11/93/2 27/94/2 57/51/2 58/44/2
f 83/95/2 11/93/2 58/44/2 69/43/2
f 25/96/2 10/97/2 59/98/2 60/99/2
f 102/100/2 25/96/2 60/99/2 94/101/2
f 9/102/2 31/103/2 61/104/2 62/105/2
f 103/106/2 9/102/2 62/105/2 91/107/2
f 29/108/2 12/109/2 63/41/2 64/6/2
f 86/110/2 29/108/2 64/6/2 74/5/2
f 80/82/14 82/89/14 56/88/14 51/83/14
f 98/111/14 100/112/14 82/89/14 80/82/14
f 104/113/2 86/110/2 74/5/2 95/114/2
f 12/109/2 85/115/2 70/42/2 63/41/2
f 27/94/2 84/116/2 73/52/2 57/51/2
f 42/80/19 77/117/19 79/85/19 50/84/19
f 97/118/18 78/14/18 81/86/18 99/119/18
f 99/119/14 81/86/14 82/89/14 100/112/14
f 98/111/14 80/82/14 79/85/14 108/92/14
f 2/58/16 75/57/16 77/117/16 42/80/16
f 6/12/2 76/11/2 68/10/2 37/9/2
f 106/78/2 75/57/2 65/60/2 105/120/2
f 87/121/2 66/4/2 73/52/2 94/101/2
f 96/65/4 76/11/4 78/14/4 97/118/4
f 88/122/20 67/8/20 68/10/20 89/67/20
f 95/114/2 74/5/2 67/8/2 88/122/2
f 105/123/21 65/1/21 66/4/21 87/121/21
f 33/124/1 105/123/1 87/121/1 3/125/1
f 61/104/2 95/114/2 88/122/2 7/16/2
f 7/16/3 88/122/3 89/67/3 38/17/3
f 5/66/4 96/65/4 97/118/4 46/72/4
f 17/126/2 93/127/2 91/107/2 62/105/2
f 59/98/2 90/128/2 92/129/2 18/130/2
f 18/130/2 92/129/2 93/127/2 17/126/2
f 3/125/2 87/121/2 94/101/2 60/99/2
f 1/75/22 106/78/22 105/120/22 33/131/22
f 52/90/14 98/111/14 108/92/14 49/91/14
f 54/73/14 99/119/14 100/112/14 55/74/14
f 46/72/18 97/118/18 99/119/18 54/73/18
f 10/97/2 101/132/2 90/128/2 59/98/2
f 31/103/2 104/113/2 95/114/2 61/104/2
f 52/90/14 55/74/14 100/112/14 98/111/14
f 84/116/2 102/100/2 94/101/2 73/52/2
f 77/117/19 107/79/19 108/92/19 79/85/19
f 75/57/16 106/78/16 107/79/16 77/117/16
f 76/11/2 96/65/2 89/67/2 68/10/2
usemtl Material.006
f 84/116/2 27/94/2 11/93/2 83/95/2
f 85/115/2 12/109/2 29/108/2 86/110/2
f 101/132/2 83/95/2 69/43/2 90/128/2
f 103/106/2 85/115/2 86/110/2 104/113/2
f 92/129/2 71/46/2 72/39/2 93/127/2
f 90/128/2 69/43/2 71/46/2 92/129/2
f 93/127/2 72/39/2 70/42/2 91/107/2
f 102/100/2 84/116/2 83/95/2 101/132/2
f 25/96/2 102/100/2 101/132/2 10/97/2
f 9/102/2 103/106/2 104/113/2 31/103/2
f 85/115/2 103/106/2 91/107/2 70/42/2
