# Blender v3.3.0 OBJ File: ''
# www.blender.org
mtllib mp_x.mtl
o Cube_Cube.001
v 0.022084 -0.027686 -0.099257
v 0.022084 -0.037404 -0.042827
v 0.022084 -0.083391 -0.061525
v 0.022084 -0.070095 -0.114887
v -0.022084 -0.083391 -0.061525
v -0.022084 -0.143633 -0.097540
v 0.022084 -0.143633 -0.097540
v -0.022084 -0.037404 -0.042827
v -0.022084 -0.027686 -0.099257
v -0.022084 -0.070095 -0.114887
v -0.022084 -0.125736 -0.148346
v 0.022084 -0.125736 -0.148346
v 0.019111 0.085738 -0.089854
v 0.019111 0.040987 -0.089854
v 0.019111 0.040987 -0.110835
v 0.019111 0.085738 -0.110835
v -0.011804 0.060461 0.170725
v 0.011804 0.060461 0.170725
v 0.011804 0.060461 0.184537
v -0.011804 0.060461 0.184537
v -0.023529 -0.049879 0.083831
v -0.023875 -0.055893 0.077705
v -0.023578 -0.062119 0.079961
v -0.023578 -0.061473 0.084236
v -0.008817 0.031946 0.010962
v 0.008817 0.031946 0.010962
v 0.008817 0.011645 0.016507
v -0.008817 0.011645 0.016507
v 0.023529 -0.044023 0.110266
v 0.023875 -0.048002 0.118853
v 0.023578 -0.053669 0.120022
v 0.023578 -0.054256 0.116136
v -0.023939 0.004550 -0.090381
v 0.023939 0.004550 -0.090381
v 0.023939 -0.001960 -0.033494
v -0.023939 -0.001960 -0.033494
v 0.008817 0.011645 0.032161
v -0.008817 0.011645 0.032161
v -0.008817 -0.008056 0.025923
v 0.008817 -0.008056 0.025923
v -0.008817 0.031946 0.026616
v 0.008817 0.031946 0.026616
v -0.008817 -0.004936 0.010962
v 0.008817 -0.004936 0.010962
v 0.027401 0.021392 0.095998
v 0.027804 0.026779 0.103426
v 0.025827 -0.010861 0.111191
v 0.025452 -0.011534 0.103180
v -0.027401 0.021014 0.058916
v -0.027804 0.026269 0.047931
v -0.025827 -0.015086 0.062918
v -0.025452 -0.014670 0.071456
v 0.025582 -0.015512 0.112151
v 0.025211 -0.015603 0.104068
v -0.025582 -0.020196 0.064769
v -0.025211 -0.019079 0.073006
v -0.019111 0.040987 -0.089854
v -0.019111 0.040987 -0.110835
v -0.019111 0.085738 -0.089854
v -0.019111 0.085738 -0.110835
v -0.011804 0.083691 0.170725
v -0.011804 0.083691 0.184537
v 0.011804 0.083691 0.170725
v 0.011804 0.083691 0.184537
v 0.011100 0.076020 -0.326703
v 0.000000 0.080617 -0.326703
v 0.000000 0.081638 -0.283026
v 0.011822 0.076742 -0.283026
v 0.015697 0.064920 -0.326703
v 0.016718 0.064920 -0.283026
v 0.011100 0.053821 -0.326703
v 0.011822 0.053099 -0.283026
v 0.000000 0.049223 -0.326703
v 0.000000 0.048202 -0.283026
v -0.011100 0.053821 -0.326703
v -0.011822 0.053099 -0.283026
v -0.015697 0.064920 -0.326703
v -0.016718 0.064920 -0.283026
v -0.011100 0.076020 -0.326703
v -0.011822 0.076742 -0.283026
v 0.009281 0.074201 -0.326703
v 0.000000 0.078045 -0.326703
v 0.013125 0.064920 -0.326703
v 0.009281 0.055639 -0.326703
v 0.000000 0.051795 -0.326703
v -0.009281 0.055639 -0.326703
v -0.013125 0.064920 -0.326703
v -0.009281 0.074201 -0.326703
v 0.008461 0.073382 -0.300784
v 0.000000 0.076887 -0.300784
v 0.011966 0.064920 -0.300784
v 0.008461 0.056459 -0.300784
v 0.000000 0.052954 -0.300784
v -0.008461 0.056459 -0.300784
v -0.011966 0.064920 -0.300784
v -0.008461 0.073382 -0.300784
v -0.025582 -0.015512 0.112151
v -0.025211 -0.015603 0.104068
v -0.023529 -0.044023 0.110266
v -0.023875 -0.048002 0.118853
v -0.025827 -0.010861 0.111191
v -0.025452 -0.011534 0.103180
v -0.027804 0.026779 0.103426
v -0.027401 0.021392 0.095998
v 0.023529 -0.049879 0.083831
v 0.023578 -0.061473 0.084236
v -0.023578 -0.054256 0.116136
v -0.023578 -0.053669 0.120022
v 0.023875 -0.055893 0.077705
v 0.023578 -0.062119 0.079961
v 0.027804 0.026269 0.047931
v 0.027401 0.021014 0.058916
v 0.025452 -0.014670 0.071456
v 0.025827 -0.015086 0.062918
v 0.025211 -0.019079 0.073006
v 0.025582 -0.020196 0.064769
v -0.028076 0.031946 0.097334
v -0.028076 0.031946 0.051404
v 0.028076 0.031946 0.045874
v 0.028076 0.031946 0.051404
v 0.028076 0.031946 0.097334
v -0.028076 0.031946 0.102361
v -0.028076 0.031946 0.045874
v 0.028076 0.031946 0.102361
v -0.028076 0.031946 -0.025058
v -0.028076 0.093736 -0.025058
v -0.028076 0.093736 -0.089854
v -0.028076 0.031946 -0.089854
v 0.028076 0.093736 0.097334
v 0.028076 0.093736 0.102361
v -0.028076 0.093736 0.097334
v -0.028076 0.093736 0.102361
v 0.028076 0.093736 -0.089854
v 0.028076 0.093736 -0.025058
v -0.028076 0.093736 0.045874
v 0.028076 0.093736 0.045874
v 0.028076 0.031946 -0.089854
v 0.028076 0.004889 -0.094504
v -0.028076 0.004889 -0.094504
v 0.028076 0.031946 -0.025058
v -0.028076 0.093736 0.051404
v -0.028076 -0.002298 -0.029371
v 0.028076 -0.002298 -0.029371
v -0.008790 -0.014219 -0.010185
v -0.008790 -0.014501 0.000944
v -0.008790 0.031997 -0.005520
v -0.008790 0.032279 -0.016648
v 0.008790 -0.014219 -0.010185
v 0.008707 -0.019329 -0.010759
v -0.008707 -0.019329 -0.010759
v 0.008790 -0.014501 0.000944
v 0.008707 -0.019611 0.002795
v -0.008707 -0.019611 0.002795
v 0.007572 -0.020152 0.062899
v -0.007572 -0.020152 0.062899
v -0.007645 -0.015043 0.061048
v 0.007645 -0.015043 0.061048
v 0.008790 0.031997 -0.005520
v 0.008790 0.032279 -0.016648
v -0.011804 0.060632 0.122619
v -0.011804 0.083691 0.122619
v 0.011804 0.083691 0.122619
v 0.011804 0.060632 0.122619
v -0.012925 0.084265 0.284266
v 0.012925 0.084265 0.284266
v 0.012925 -0.040172 0.284266
v -0.012925 -0.040172 0.284266
v 0.000000 0.095631 -0.283026
v 0.000000 0.098283 -0.106404
v 0.027339 0.086959 -0.106404
v 0.021716 0.086636 -0.283026
v 0.038663 0.059620 -0.106404
v 0.030711 0.064920 -0.283026
v 0.027339 0.032282 -0.106404
v 0.021716 0.043205 -0.283026
v 0.000000 0.020958 -0.106404
v 0.000000 0.034210 -0.283026
v -0.027339 0.032282 -0.106404
v -0.021716 0.043205 -0.283026
v -0.038663 0.059620 -0.106404
v -0.030711 0.064920 -0.283026
v -0.027339 0.086959 -0.106404
v -0.021716 0.086636 -0.283026
v 0.028076 0.093736 0.051404
v 0.014997 0.079917 -0.336508
v 0.000000 0.086128 -0.336508
v 0.021208 0.064920 -0.336508
v 0.014997 0.049924 -0.336508
v 0.000000 0.043712 -0.336508
v -0.014997 0.049924 -0.336508
v -0.021208 0.064920 -0.336508
v -0.014997 0.079917 -0.336508
v 0.012539 0.077459 -0.336508
v 0.000000 0.082653 -0.336508
v 0.017733 0.064920 -0.336508
v 0.012539 0.052380 -0.336508
v 0.000000 0.047187 -0.336508
v -0.012539 0.052380 -0.336508
v -0.017733 0.064920 -0.336508
v -0.012539 0.077459 -0.336508
v 0.014997 0.079917 -0.390212
v 0.000000 0.086128 -0.390212
v 0.021208 0.064920 -0.390212
v 0.014997 0.049924 -0.390212
v 0.000000 0.043712 -0.390212
v -0.014997 0.049924 -0.390212
v -0.021208 0.064920 -0.390212
v -0.014997 0.079917 -0.390212
v 0.012539 0.077459 -0.390212
v 0.000000 0.082653 -0.390212
v 0.017733 0.064920 -0.390212
v 0.012539 0.052380 -0.390212
v 0.000000 0.047187 -0.390212
v -0.012539 0.052380 -0.390212
v -0.017733 0.064920 -0.390212
v -0.012539 0.077459 -0.390212
vt 0.348322 0.505480
vt 0.348322 0.574798
vt 0.348322 0.574798
vt 0.348322 0.505480
vt 0.151678 0.574798
vt 0.151678 0.574798
vt 0.348322 0.574798
vt 0.151678 0.574798
vt 0.151678 0.505480
vt 0.151678 0.505480
vt 0.151678 0.505480
vt 0.348322 0.505480
vt 0.606204 0.470446
vt 0.393796 0.470446
vt 0.393796 0.470446
vt 0.606204 0.470446
vt 0.400674 0.959631
vt 0.400674 0.790368
vt 0.400674 0.790368
vt 0.400674 0.959631
vt 0.375000 0.074212
vt 0.375000 0.080278
vt 0.375000 0.080278
vt 0.375000 0.074023
vt 0.210744 0.601637
vt 0.289256 0.601637
vt 0.289256 0.601637
vt 0.210744 0.601637
vt 0.375000 0.744555
vt 0.375000 0.750000
vt 0.375000 0.750000
vt 0.375000 0.744316
vt 0.143418 0.503784
vt 0.356582 0.503784
vt 0.356582 0.576495
vt 0.143418 0.576495
vt 0.289256 0.648363
vt 0.210744 0.648363
vt 0.210744 0.648363
vt 0.289256 0.648363
vt 0.210744 0.648363
vt 0.289256 0.648363
vt 0.210744 0.601637
vt 0.289256 0.601637
vt 0.375000 0.744398
vt 0.375000 0.750048
vt 0.375000 0.750000
vt 0.375000 0.744525
vt 0.375000 0.074096
vt 0.375000 0.080335
vt 0.375000 0.080278
vt 0.375000 0.074196
vt 0.375000 0.750000
vt 0.375000 0.744344
vt 0.375000 0.080278
vt 0.375000 0.074080
vt 0.393796 0.279554
vt 0.393796 0.279554
vt 0.606204 0.279554
vt 0.606204 0.279554
vt 0.599326 0.959631
vt 0.599326 0.959631
vt 0.599326 0.790368
vt 0.599326 0.790368
vt 0.818902 0.318902
vt 0.750000 0.347442
vt 0.750000 0.353780
vt 0.823383 0.323383
vt 0.847442 0.250000
vt 0.853780 0.250000
vt 0.818902 0.181098
vt 0.823383 0.176616
vt 0.750000 0.152558
vt 0.750000 0.146220
vt 0.681098 0.181098
vt 0.676617 0.176617
vt 0.652558 0.250000
vt 0.646220 0.250000
vt 0.681098 0.318902
vt 0.676616 0.323383
vt 0.807612 0.307612
vt 0.750000 0.331476
vt 0.750000 0.331476
vt 0.807612 0.307612
vt 0.847442 0.250000
vt 0.818902 0.318902
vt 0.807612 0.192388
vt 0.831476 0.250000
vt 0.831476 0.250000
vt 0.807612 0.192388
vt 0.692388 0.307612
vt 0.692388 0.307612
vt 0.668524 0.250000
vt 0.692388 0.192388
vt 0.692388 0.192388
vt 0.668524 0.250000
vt 0.681098 0.318902
vt 0.652558 0.250000
vt 0.681098 0.181098
vt 0.802525 0.302525
vt 0.750000 0.324282
vt 0.824282 0.250000
vt 0.802525 0.197475
vt 0.750000 0.175718
vt 0.750000 0.168524
vt 0.697475 0.197475
vt 0.675718 0.250000
vt 0.697475 0.302525
vt 0.375000 0.000000
vt 0.375000 0.005656
vt 0.375000 0.005445
vt 0.375000 0.000000
vt 0.375000 0.000000
vt 0.375000 0.005475
vt 0.375000 -0.000073
vt 0.375000 0.005602
vt 0.375000 0.675782
vt 0.375000 0.675942
vt 0.375000 0.005739
vt 0.375000 0.000000
vt 0.375000 0.669722
vt 0.375000 0.669722
vt 0.375000 0.669684
vt 0.375000 0.675903
vt 0.375000 0.675803
vt 0.375000 0.669722
vt 0.375000 0.675920
vt 0.375000 0.669722
vt 0.375000 0.005575
vt 0.375000 0.074146
vt 0.375000 0.669722
vt 0.375000 0.675854
vt 0.375000 0.744425
vt 0.375000 0.000000
vt 0.375000 0.080278
vt 0.375000 0.750000
vt 0.750000 0.168524
vt 0.750000 0.168524
vt 0.692388 0.192388
vt 0.831476 0.250000
vt 0.807612 0.192388
vt 0.750000 0.347442
vt 0.818902 0.318902
vt 0.750000 0.347442
vt 0.692388 0.307612
vt 0.750000 0.331476
vt 0.668524 0.250000
vt 0.807612 0.307612
vt 0.818902 0.181098
vt 0.750000 0.152558
vt 0.847442 0.250000
vt 0.818902 0.181098
vt 0.750000 0.152558
vt 0.681098 0.181098
vt 0.652558 0.250000
vt 0.681098 0.318902
vt 0.375000 0.169722
vt 0.625000 0.169722
vt 0.625000 0.250000
vt 0.375000 0.250000
vt 0.625000 0.744425
vt 0.625000 0.750000
vt 0.875000 0.744425
vt 0.875000 0.750000
vt 0.625000 0.500000
vt 0.875000 0.500000
vt 0.875000 0.580278
vt 0.625000 0.580278
vt 0.875000 0.669722
vt 0.625000 0.669722
vt 0.375000 0.500000
vt 0.375000 0.500000
vt 0.375000 0.250000
vt 0.375000 0.580278
vt 0.625000 0.074146
vt 0.625000 0.080278
vt 0.125000 0.580278
vt 0.125000 0.580278
vt 0.375000 0.580278
vt 0.375000 0.169722
vt 0.125000 0.744425
vt 0.125000 0.750000
vt 0.125000 0.669722
vt 0.125000 0.669722
vt 0.375000 1.000000
vt 0.375000 1.000000
vt 0.125000 0.500000
vt 0.125000 0.669722
vt 0.375000 1.000000
vt 0.375000 1.000000
vt 0.125000 0.669722
vt 0.125000 0.669722
vt 0.375000 1.000000
vt 0.375000 0.080278
vt 0.375000 0.080278
vt 0.375000 0.080278
vt 0.375000 0.080278
vt 0.125000 0.669722
vt 0.375000 0.669722
vt 0.375000 0.669722
vt 0.125000 0.669722
vt 0.375000 0.669722
vt 0.375000 0.669722
vt 0.375000 0.080278
vt 0.375000 0.080278
vt 0.125000 0.669722
vt 0.375000 0.669722
vt 0.125000 0.669722
vt 0.375000 0.080278
vt 0.375000 0.080278
vt 0.375000 0.669722
vt 0.125000 0.669722
vt 0.125000 0.669722
vt 0.125000 0.669722
vt 0.375000 0.669722
vt 0.375000 0.669722
vt 0.125000 0.669722
vt 0.125000 0.669722
vt 0.400674 0.959631
vt 0.599326 0.959631
vt 0.625000 1.000000
vt 0.375000 1.000000
vt 0.599326 0.790368
vt 0.400674 0.790368
vt 0.599326 0.959631
vt 0.599326 0.790368
vt 0.400674 0.790368
vt 0.400674 0.959631
vt 1.000000 0.500000
vt 1.000000 1.000000
vt 0.875000 1.000000
vt 0.875000 0.500000
vt 0.750000 1.000000
vt 0.750000 0.500000
vt 0.625000 1.000000
vt 0.625000 0.500000
vt 0.500000 1.000000
vt 0.500000 0.500000
vt 0.375000 1.000000
vt 0.375000 0.500000
vt 0.250000 1.000000
vt 0.250000 0.500000
vt 0.419706 0.419706
vt 0.250000 0.490000
vt 0.080294 0.419706
vt 0.010000 0.250000
vt 0.080294 0.080294
vt 0.250000 0.010000
vt 0.419706 0.080294
vt 0.490000 0.250000
vt 0.125000 1.000000
vt 0.125000 0.500000
vt 0.000000 1.000000
vt 0.000000 0.500000
vt 0.750000 0.490000
vt 0.919706 0.419706
vt 0.990000 0.250000
vt 0.919706 0.080294
vt 0.750000 0.010000
vt 0.580294 0.080294
vt 0.510000 0.250000
vt 0.580294 0.419706
vt 0.125000 0.675854
vt 0.625000 0.000000
vt 0.625000 0.005575
vt 0.625000 0.675854
vt 0.875000 0.675854
vn 1.0000 0.0000 0.0000
vn 0.0000 -0.5131 0.8583
vn 0.0000 -0.3766 0.9264
vn 0.0000 0.3458 -0.9383
vn -1.0000 0.0000 0.0000
vn 0.0000 -0.9432 -0.3323
vn 0.0000 0.5153 -0.8570
vn 0.0000 -1.0000 -0.0018
vn 0.0000 -1.0000 -0.0000
vn -0.9992 -0.0082 0.0385
vn 0.0000 -0.2635 -0.9647
vn 0.9988 -0.0317 -0.0363
vn 0.0000 0.2655 -0.9641
vn 0.9986 -0.0527 -0.0075
vn -0.9986 -0.0527 -0.0075
vn 0.0000 -0.2546 0.9670
vn 0.0000 -0.3019 0.9534
vn 0.0000 0.2635 0.9647
vn 0.0000 -0.9789 -0.2042
vn 0.0000 0.3172 -0.9484
vn 0.9978 -0.0611 -0.0263
vn -0.9987 -0.0402 0.0298
vn 0.9970 -0.0647 -0.0431
vn -0.9983 -0.0340 0.0475
vn 0.0000 1.0000 0.0000
vn 0.0000 1.0000 -0.0029
vn 0.3825 0.9237 -0.0216
vn 0.9237 0.3825 -0.0216
vn 0.9237 -0.3826 -0.0216
vn 0.3826 -0.9237 -0.0216
vn -0.3826 -0.9237 -0.0216
vn -0.9237 -0.3826 -0.0216
vn -0.9237 0.3825 -0.0216
vn -0.3825 0.9237 -0.0216
vn -0.6400 -0.6400 -0.4253
vn 0.0000 -0.9050 -0.4253
vn 0.6164 0.6164 0.4900
vn 0.8717 -0.0000 0.4900
vn -0.6400 0.6400 -0.4253
vn -0.9050 -0.0000 -0.4253
vn 0.6400 -0.6400 -0.4253
vn 0.9050 -0.0000 -0.4253
vn 0.6400 0.6400 -0.4253
vn -0.8717 -0.0000 0.4900
vn -0.6164 0.6164 0.4900
vn -0.6164 -0.6164 0.4900
vn -0.3824 -0.9231 -0.0413
vn -0.9231 -0.3823 -0.0413
vn -0.9231 0.3824 -0.0413
vn -0.3824 0.9231 -0.0413
vn 0.3824 0.9231 -0.0413
vn 0.9231 0.3824 -0.0413
vn 0.9231 -0.3823 -0.0413
vn 0.3824 -0.9231 -0.0413
vn 0.9960 -0.0678 -0.0587
vn -0.9976 -0.0281 0.0637
vn -0.9960 -0.0678 -0.0587
vn -0.9970 -0.0647 -0.0431
vn -0.9978 -0.0611 -0.0263
vn 1.0000 0.0042 -0.0009
vn -0.9988 -0.0317 -0.0363
vn 0.9992 -0.0082 0.0385
vn 0.9987 -0.0402 0.0298
vn 0.9983 -0.0340 0.0475
vn 0.9976 -0.0281 0.0637
vn -1.0000 0.0042 -0.0009
vn -0.9981 -0.0623 0.0001
vn -0.9981 -0.0610 0.0014
vn -0.9985 -0.0544 0.0055
vn -0.9982 -0.0599 -0.0045
vn 0.9986 -0.0525 0.0077
vn 0.9981 -0.0610 0.0014
vn 0.9985 -0.0544 0.0055
vn 0.9981 -0.0623 0.0001
vn 0.9982 -0.0599 -0.0045
vn -0.9982 -0.0600 -0.0063
vn -0.9986 -0.0525 0.0077
vn 0.9982 -0.0600 -0.0063
vn 0.7071 0.7071 0.0000
vn -0.7071 0.7071 0.0000
vn 0.7071 -0.7071 -0.0000
vn -0.7071 -0.7071 -0.0000
vn 0.6164 -0.6164 0.4900
vn 0.0000 0.8717 0.4900
vn 0.0000 0.9050 -0.4253
vn 0.0000 -0.8717 0.4900
vn 0.0000 0.0000 -1.0000
vn 0.0000 0.1694 -0.9856
vn 0.0000 -0.1250 0.9922
vn 0.0000 -0.9827 0.1851
vn 0.0000 -0.9888 0.1494
vn 0.0000 -0.3407 -0.9402
vn 0.0000 0.2020 0.9794
vn 0.0001 -0.9953 -0.0968
vn -0.0001 -0.9953 -0.0968
vn 0.0001 -0.9953 -0.0966
vn -0.0001 -0.9953 -0.0966
vn 0.0000 0.2021 0.9794
vn 0.0000 0.1116 -0.9938
vn 0.9999 -0.0163 -0.0004
vn -0.9999 -0.0163 -0.0004
vn 0.0000 -0.9999 -0.0149
vn 0.0000 -0.9998 -0.0208
vn 0.0000 -1.0000 -0.0090
vn -0.9998 -0.0084 0.0189
vn 0.9998 -0.0084 0.0189
vn 0.0000 1.0000 0.0090
vn 0.0000 0.9997 0.0253
vn 0.0000 -0.1377 -0.9905
vn 0.0000 0.1377 0.9905
vn -0.0000 0.9997 0.0235
vn 0.0958 -0.3417 -0.9349
vn -0.0958 -0.3417 -0.9349
vn 0.0000 -0.9997 -0.0235
vn -0.4885 -0.3012 0.8189
vn -0.4571 0.5942 0.6618
vn -0.5433 0.4919 0.6803
vn -0.3498 -0.3998 0.8472
vn 0.4571 0.5942 0.6618
vn 0.4885 -0.3012 0.8189
vn 0.3498 -0.3998 0.8472
vn 0.5433 0.4919 0.6803
vn 0.0000 1.0000 -0.0058
vn 0.0000 0.0000 1.0000
vn 0.9999 0.0000 -0.0112
vn 0.0000 -0.7039 -0.7103
vn -0.9999 0.0000 -0.0112
vn 0.3826 0.9238 -0.0139
vn 0.9235 0.3825 -0.0301
vn 0.9226 -0.3822 -0.0530
vn 0.3818 -0.9217 -0.0692
vn -0.3818 -0.9217 -0.0692
vn -0.9226 -0.3822 -0.0530
vn -0.9235 0.3825 -0.0301
vn -0.3826 0.9238 -0.0139
vn 0.0000 -1.0000 -0.0036
vn 0.9985 -0.0545 0.0077
vn 0.9985 -0.0546 0.0074
vn 0.9985 -0.0542 0.0088
vn 0.9985 -0.0553 0.0051
vn 0.9985 -0.0555 0.0044
vn 0.0000 -0.9827 0.1852
vn -0.9985 -0.0546 0.0074
vn -0.9985 -0.0545 0.0079
vn -0.9985 -0.0542 0.0088
vn -0.9985 -0.0555 0.0044
vn -0.9985 -0.0553 0.0051
vn 0.0000 0.2019 0.9794
usemtl Material.003
s off
f 1/1/1 2/2/1 3/3/1 4/4/1
f 3/3/2 5/5/2 6/6/2 7/7/2
f 2/2/3 8/8/3 5/5/3 3/3/3
f 9/9/4 1/1/4 4/4/4 10/10/4
f 8/8/5 9/9/5 10/10/5 5/5/5
f 11/11/6 12/12/6 7/7/6 6/6/6
f 5/5/5 10/10/5 11/11/5 6/6/5
f 4/4/1 3/3/1 7/7/1 12/12/1
f 10/10/7 4/4/7 12/12/7 11/11/7
s 1
f 13/13/1 14/14/1 15/15/1 16/16/1
f 17/17/8 18/18/8 19/19/9 20/20/9
f 21/21/10 22/22/10 23/23/10 24/24/10
f 25/25/11 26/26/11 27/27/11 28/28/11
f 29/29/12 30/30/12 31/31/12 32/32/12
f 1/1/13 9/9/13 33/33/13 34/34/13
f 2/2/14 1/1/14 34/34/14 35/35/14
f 9/9/15 8/8/15 36/36/15 33/33/15
f 8/8/16 2/2/16 35/35/16 36/36/16
f 37/37/17 38/38/17 39/39/17 40/40/17
f 41/41/5 25/25/5 28/28/5 38/38/5
f 42/42/18 41/41/18 38/38/18 37/37/18
f 26/26/1 42/42/1 37/37/1 27/27/1
f 43/43/19 44/44/19 40/40/19 39/39/19
f 27/27/1 37/37/1 40/40/1 44/44/1
f 28/28/20 27/27/20 44/44/20 43/43/20
f 38/38/5 28/28/5 43/43/5 39/39/5
f 45/45/21 46/46/21 47/47/21 48/48/21
f 49/49/22 50/50/22 51/51/22 52/52/22
f 48/48/23 47/47/23 53/53/23 54/54/23
f 52/52/24 51/51/24 55/55/24 56/56/24
f 14/14/9 57/57/9 58/58/9 15/15/9
f 59/59/25 13/13/25 16/16/25 60/60/25
f 57/57/5 59/59/5 60/60/5 58/58/5
f 61/61/5 17/17/5 20/20/5 62/62/5
f 63/63/25 61/61/25 62/62/26 64/64/26
f 18/18/1 63/63/1 64/64/1 19/19/1
f 65/65/27 66/66/27 67/67/27 68/68/27
f 69/69/28 65/65/28 68/68/28 70/70/28
f 71/71/29 69/69/29 70/70/29 72/72/29
f 73/73/30 71/71/30 72/72/30 74/74/30
f 75/75/31 73/73/31 74/74/31 76/76/31
f 77/77/32 75/75/32 76/76/32 78/78/32
f 79/79/33 77/77/33 78/78/33 80/80/33
f 66/66/34 79/79/34 80/80/34 67/67/34
f 81/81/35 82/82/36 194/83/36 193/84/35
f 65/65/37 69/69/38 187/85/38 185/86/37
f 84/87/39 83/88/40 195/89/40 196/90/39
f 82/82/36 88/91/41 200/92/41 194/83/36
f 87/93/42 86/94/43 198/95/43 199/96/42
f 77/77/44 79/79/45 192/97/45 191/98/44
f 83/88/40 81/81/35 193/84/35 195/89/40
f 75/75/46 77/77/44 191/98/44 190/99/46
f 89/100/47 90/101/47 82/82/47 81/81/47
f 91/102/48 89/100/48 81/81/48 83/88/48
f 92/103/49 91/102/49 83/88/49 84/87/49
f 93/104/50 92/103/50 84/87/50 85/105/50
f 94/106/51 93/104/51 85/105/51 86/94/51
f 95/107/52 94/106/52 86/94/52 87/93/52
f 96/108/53 95/107/53 87/93/53 88/91/53
f 90/101/54 96/108/54 88/91/54 82/82/54
f 54/54/55 53/53/55 30/30/55 29/29/55
f 56/56/56 55/55/56 22/22/56 21/21/56
f 97/109/57 98/110/57 99/111/57 100/112/57
f 101/113/58 102/114/58 98/110/58 97/109/58
f 103/115/59 104/116/59 102/114/59 101/113/59
f 105/117/60 29/29/60 32/32/60 106/118/60
f 100/112/61 99/111/61 107/119/61 108/120/61
f 109/121/62 105/117/62 106/118/62 110/122/62
f 111/123/63 112/124/63 113/125/63 114/126/63
f 114/126/64 113/125/64 115/127/64 116/128/64
f 116/128/65 115/127/65 105/117/65 109/121/65
f 99/111/66 21/21/66 24/24/66 107/119/66
f 117/129/67 118/130/68 49/49/69 104/116/70
f 119/131/71 120/132/72 112/124/73 111/123/71
f 120/132/72 121/133/74 45/45/75 112/124/73
f 122/134/76 117/129/67 104/116/70 103/115/76
f 118/130/68 123/135/77 50/50/77 49/49/69
f 121/133/74 124/136/78 46/46/78 45/45/75
f 198/95/79 197/137/25 213/138/25 214/139/79
f 196/90/80 195/89/5 211/140/5 212/141/80
f 186/142/25 185/86/79 201/143/79 202/144/25
f 197/137/25 196/90/80 212/141/80 213/138/25
f 194/83/9 200/92/81 216/145/81 210/146/9
f 200/92/81 199/96/1 215/147/1 216/145/81
f 199/96/1 198/95/79 214/139/79 215/147/1
f 193/84/82 194/83/9 210/146/9 209/148/82
f 69/69/38 71/71/83 188/149/83 187/85/38
f 88/91/41 87/93/42 199/96/42 200/92/41
f 79/79/45 66/66/84 186/142/84 192/97/45
f 85/105/85 84/87/39 196/90/39 197/137/85
f 71/71/83 73/73/86 189/150/86 188/149/83
f 86/94/43 85/105/85 197/137/85 198/95/43
f 73/73/86 75/75/46 190/99/46 189/150/86
f 66/66/84 65/65/37 185/86/37 186/142/84
f 209/148/87 210/146/87 202/144/87 201/143/87
f 211/140/87 209/148/87 201/143/87 203/151/87
f 212/141/87 211/140/87 203/151/87 204/152/87
f 213/138/87 212/141/87 204/152/87 205/153/87
f 214/139/87 213/138/87 205/153/87 206/154/87
f 215/147/87 214/139/87 206/154/87 207/155/87
f 216/145/87 215/147/87 207/155/87 208/156/87
f 210/146/87 216/145/87 208/156/87 202/144/87
f 191/98/5 192/97/80 208/156/80 207/155/5
f 185/86/79 187/85/1 203/151/1 201/143/79
f 188/149/81 189/150/9 205/153/9 204/152/81
f 187/85/1 188/149/81 204/152/81 203/151/1
f 190/99/82 191/98/5 207/155/5 206/154/82
f 195/89/5 193/84/82 209/148/82 211/140/5
f 189/150/9 190/99/82 206/154/82 205/153/9
f 192/97/80 186/142/25 202/144/25 208/156/80
usemtl Material.004
f 125/157/5 126/158/5 127/159/5 128/160/5
f 121/133/1 129/161/1 130/162/1 124/136/1
f 129/161/25 131/163/25 132/164/25 130/162/25
f 133/165/25 127/166/25 126/167/25 134/168/25
f 134/168/25 126/167/25 135/169/25 136/170/25
f 128/160/88 137/171/88 138/172/88 139/173/88
f 137/171/1 133/165/1 134/168/1 140/174/1
f 140/174/1 134/168/1 136/170/1 119/131/1
f 118/130/5 141/175/5 135/176/5 123/135/5
f 123/135/5 135/176/5 126/158/5 125/157/5
f 140/174/89 125/177/89 142/178/89 143/179/89
f 137/171/1 140/174/1 143/179/1 138/172/1
f 125/157/5 128/160/5 139/173/5 142/180/5
f 107/181/90 32/32/90 31/31/91 108/182/91
f 22/183/92 109/121/92 110/122/92 23/184/92
f 30/30/93 100/185/93 108/186/93 31/31/93
f 34/34/94 33/33/95 139/187/95 138/172/94
f 35/35/96 34/34/94 138/172/94 143/179/96
f 33/33/95 36/36/97 142/178/97 139/187/95
f 36/36/97 35/35/96 143/179/96 142/178/97
f 25/25/9 41/41/9 123/188/9 125/177/9
f 42/42/9 26/26/9 140/174/9 119/131/9
f 26/26/9 25/25/9 125/177/9 140/174/9
f 41/41/9 42/42/9 119/131/9 123/188/9
f 46/46/93 103/189/93 101/190/98 47/47/98
f 50/191/92 111/123/92 114/126/92 51/192/92
f 47/47/98 101/190/98 97/193/98 53/53/98
f 144/194/5 145/195/5 146/196/5 147/197/5
f 144/198/99 148/199/99 149/200/99 150/201/99
f 151/202/100 152/203/100 149/200/100 148/199/100
f 153/204/101 145/195/101 144/194/101 150/205/101
f 152/203/102 153/206/102 150/201/103 149/200/103
f 154/207/104 155/208/104 153/206/102 152/203/102
f 155/209/105 156/210/105 145/195/105 153/204/105
f 157/211/106 154/207/106 152/203/106 151/202/106
f 156/212/107 157/211/107 151/202/107 145/213/107
f 146/214/108 158/215/108 159/216/108 147/217/108
f 148/199/109 144/198/109 147/217/109 159/216/109
f 151/202/1 148/199/1 159/216/1 158/215/1
f 145/213/110 151/202/110 158/215/110 146/214/110
f 51/192/111 114/126/111 157/211/111 156/212/111
f 114/126/112 116/128/112 154/207/112 157/211/112
f 55/55/113 51/51/113 156/210/113 155/209/113
f 116/128/114 55/218/114 155/208/114 154/207/114
f 59/59/87 57/57/87 128/160/87 127/159/87
f 57/57/87 14/14/87 137/171/87 128/160/87
f 13/13/87 59/59/87 127/159/87 133/165/87
f 14/14/87 13/13/87 133/165/87 137/171/87
f 58/58/87 60/60/87 16/16/87 15/15/87
f 160/219/115 161/220/116 132/221/117 122/222/118
f 162/223/119 163/224/120 124/136/121 130/162/122
f 163/224/120 160/219/115 122/222/118 124/136/121
f 161/220/116 162/223/119 130/162/122 132/221/117
f 64/64/26 62/62/26 164/225/123 165/226/123
f 166/227/124 165/226/124 164/225/124 167/228/124
f 19/19/125 64/64/125 165/226/125 166/227/125
f 20/20/126 19/19/126 166/227/126 167/228/126
f 62/62/127 20/20/127 167/228/127 164/225/127
f 168/229/128 169/230/128 170/231/128 171/232/128
f 171/232/129 170/231/129 172/233/129 173/234/129
f 173/234/130 172/233/130 174/235/130 175/236/130
f 175/236/131 174/235/131 176/237/131 177/238/131
f 177/238/132 176/237/132 178/239/132 179/240/132
f 179/240/133 178/239/133 180/241/133 181/242/133
f 170/243/124 169/244/124 182/245/124 180/246/124 178/247/124 176/248/124 174/249/124 172/250/124
f 181/242/134 180/241/134 182/251/134 183/252/134
f 183/252/135 182/251/135 169/253/135 168/254/135
f 90/101/87 89/100/87 91/102/87 92/103/87 93/104/87 94/106/87 95/107/87 96/108/87
f 68/68/87 67/67/87 168/255/87 171/256/87
f 70/70/87 68/68/87 171/256/87 173/257/87
f 72/72/87 70/70/87 173/257/87 175/258/87
f 74/74/87 72/72/87 175/258/87 177/259/87
f 76/76/87 74/74/87 177/259/87 179/260/87
f 78/78/87 76/76/87 179/260/87 181/261/87
f 80/80/87 78/78/87 181/261/87 183/262/87
f 67/67/87 80/80/87 183/262/87 168/255/87
f 163/224/1 162/223/1 63/63/1 18/18/1
f 162/223/25 161/220/25 61/61/25 63/63/25
f 161/220/5 160/219/5 17/17/5 61/61/5
f 160/219/136 163/224/136 18/18/8 17/17/8
f 53/53/98 97/193/98 100/185/93 30/30/93
f 55/218/92 116/128/92 109/121/92 22/183/92
f 115/127/137 54/54/138 29/29/139 105/117/139
f 113/125/140 48/48/141 54/54/138 115/127/137
f 112/124/73 45/45/75 48/48/141 113/125/140
f 24/263/142 106/118/142 32/32/90 107/181/90
f 122/134/5 132/264/5 131/265/5 117/129/5
f 184/266/25 141/267/25 131/163/25 129/161/25
f 120/132/1 184/266/1 129/161/1 121/133/1
f 119/131/1 136/170/1 184/266/1 120/132/1
f 136/170/25 135/169/25 141/267/25 184/266/25
f 23/184/91 110/122/91 106/118/142 24/263/142
f 98/110/143 56/56/144 21/21/145 99/111/145
f 102/114/146 52/52/147 56/56/144 98/110/143
f 104/116/70 49/49/69 52/52/147 102/114/146
f 117/129/5 131/265/5 141/175/5 118/130/5
f 123/188/92 119/131/92 111/123/92 50/191/92
f 124/136/148 122/222/148 103/189/93 46/46/93
