# Blender v3.3.0 OBJ File: 'human_small_rig.blend'
# www.blender.org
mtllib pistol_m9.mtl
o Cube
v -0.016052 -0.088300 0.092929
v -0.013934 0.059518 0.064880
v -0.016052 -0.088300 0.018068
v -0.013934 0.059518 0.000839
v 0.016052 -0.088300 0.092929
v 0.013934 0.059518 0.064880
v 0.016052 -0.088300 0.018068
v 0.013934 0.059518 0.000839
v -0.019568 0.000504 0.065419
v -0.019568 0.000504 0.011862
v 0.019568 0.000504 0.011862
v 0.019568 0.000504 0.065419
v -0.013934 0.059518 -0.067605
v 0.013934 0.059518 -0.067605
v -0.020083 0.008964 -0.082965
v 0.020083 0.008964 -0.082965
v -0.016566 -0.064280 0.026467
v 0.016566 -0.064280 0.026467
v 0.016566 -0.064280 0.080025
v -0.016566 -0.064280 0.080025
v -0.020083 0.034241 0.071936
v -0.020083 0.034241 0.000839
v 0.020083 0.034241 0.000839
v 0.020083 0.034241 0.071936
v -0.020083 0.034241 -0.094602
v 0.020083 0.034241 -0.094602
v -0.001938 0.008964 -0.027272
v 0.001938 0.008964 -0.027272
v 0.013934 0.059518 -0.045417
v -0.013934 0.059518 -0.045417
v -0.020083 0.034241 -0.045417
v 0.020083 0.034241 -0.045417
v -0.013934 0.059518 -0.128544
v 0.013934 0.059518 -0.128544
v -0.020083 0.034241 -0.128544
v 0.020083 0.034241 -0.128544
v 0.000000 0.056225 -0.135889
v 0.001782 0.056050 -0.135889
v 0.003496 0.055530 -0.135889
v 0.005075 0.054686 -0.135889
v 0.006459 0.053550 -0.135889
v 0.007595 0.052165 -0.135889
v 0.008440 0.050586 -0.135889
v 0.008959 0.048872 -0.135889
v 0.009135 0.047090 -0.135889
v 0.008959 0.045308 -0.135889
v 0.008440 0.043594 -0.135889
v 0.007595 0.042015 -0.135889
v 0.006459 0.040631 -0.135889
v 0.005075 0.039495 -0.135889
v 0.003496 0.038651 -0.135889
v 0.001782 0.038131 -0.135889
v 0.000000 0.037955 -0.135889
v -0.001782 0.038131 -0.135889
v -0.003496 0.038651 -0.135889
v -0.005075 0.039495 -0.135889
v -0.006459 0.040631 -0.135889
v -0.007595 0.042015 -0.135889
v -0.008440 0.043594 -0.135889
v -0.008959 0.045308 -0.135889
v -0.009135 0.047090 -0.135889
v -0.008959 0.048872 -0.135889
v -0.008440 0.050586 -0.135889
v -0.007595 0.052165 -0.135889
v -0.006459 0.053550 -0.135889
v -0.005075 0.054686 -0.135889
v -0.003496 0.055530 -0.135889
v -0.001782 0.056050 -0.135889
v 0.000000 0.058753 -0.164051
v 0.002275 0.058529 -0.164051
v 0.004463 0.057865 -0.164051
v 0.006479 0.056787 -0.164051
v 0.008247 0.055337 -0.164051
v 0.009697 0.053570 -0.164051
v 0.010775 0.051553 -0.164051
v 0.011438 0.049365 -0.164051
v 0.011662 0.047090 -0.164051
v 0.011438 0.044815 -0.164051
v 0.010775 0.042627 -0.164051
v 0.009697 0.040611 -0.164051
v 0.008247 0.038844 -0.164051
v 0.006479 0.037393 -0.164051
v 0.004463 0.036316 -0.164051
v 0.002275 0.035652 -0.164051
v 0.000000 0.035428 -0.164051
v -0.002275 0.035652 -0.164051
v -0.004463 0.036316 -0.164051
v -0.006479 0.037393 -0.164051
v -0.008247 0.038844 -0.164051
v -0.009697 0.040611 -0.164051
v -0.010775 0.042627 -0.164051
v -0.011438 0.044815 -0.164051
v -0.011662 0.047090 -0.164051
v -0.011438 0.049365 -0.164051
v -0.010775 0.051553 -0.164051
v -0.009697 0.053570 -0.164051
v -0.008247 0.055337 -0.164051
v -0.006479 0.056787 -0.164051
v -0.004463 0.057865 -0.164051
v -0.002275 0.058529 -0.164051
v 0.000000 0.056781 -0.164051
v 0.001891 0.056595 -0.164051
v 0.003709 0.056043 -0.164051
v 0.005384 0.055148 -0.164051
v 0.006852 0.053943 -0.164051
v 0.008058 0.052474 -0.164051
v 0.008953 0.050799 -0.164051
v 0.009505 0.048981 -0.164051
v 0.009691 0.047090 -0.164051
v 0.009505 0.045200 -0.164051
v 0.008953 0.043382 -0.164051
v 0.008058 0.041706 -0.164051
v 0.006852 0.040238 -0.164051
v 0.005384 0.039033 -0.164051
v 0.003709 0.038137 -0.164051
v 0.001891 0.037586 -0.164051
v 0.000000 0.037399 -0.164051
v -0.001891 0.037586 -0.164051
v -0.003709 0.038137 -0.164051
v -0.005384 0.039033 -0.164051
v -0.006852 0.040238 -0.164051
v -0.008058 0.041706 -0.164051
v -0.008953 0.043382 -0.164051
v -0.009505 0.045200 -0.164051
v -0.009691 0.047090 -0.164051
v -0.009505 0.048981 -0.164051
v -0.008953 0.050799 -0.164051
v -0.008058 0.052474 -0.164051
v -0.006852 0.053943 -0.164051
v -0.005384 0.055148 -0.164051
v -0.003709 0.056043 -0.164051
v -0.001891 0.056595 -0.164051
v -0.020083 0.030655 0.000839
v 0.020083 0.030655 0.000839
v 0.020083 0.030655 0.071936
v -0.020083 0.030655 -0.092951
v 0.020083 0.030655 -0.092951
v -0.020083 0.030655 0.071936
v -0.020083 0.030655 -0.045417
v 0.020083 0.030655 -0.045417
v -0.016052 -0.072739 0.091047
v -0.020083 0.008964 0.071936
v 0.001938 0.008964 -0.017305
v 0.020083 0.008964 0.071936
v -0.001938 0.008964 -0.017305
v -0.016052 -0.072739 0.019950
v 0.016052 -0.072739 0.019950
v 0.016052 -0.072739 0.091047
v -0.020083 0.008964 0.000839
v 0.020083 0.008964 0.000839
v 0.020083 0.008964 -0.045417
v -0.020083 0.008964 -0.045417
v -0.001938 -0.005361 -0.014566
v 0.001938 -0.005361 -0.014566
v 0.001938 -0.005361 -0.024533
v -0.001938 -0.005361 -0.024533
v -0.001938 -0.018451 -0.017402
v 0.001938 -0.018451 -0.017402
v 0.001938 -0.016500 -0.027176
v -0.001938 -0.016500 -0.027176
v 0.000000 0.058753 -0.128236
v 0.002275 0.058529 -0.128236
v 0.004463 0.057865 -0.128236
v 0.006479 0.056787 -0.128236
v 0.008247 0.055337 -0.128236
v 0.009697 0.053570 -0.128236
v 0.010775 0.051553 -0.128236
v 0.011438 0.049365 -0.128236
v 0.011662 0.047090 -0.128236
v 0.011438 0.044815 -0.128236
v 0.010775 0.042627 -0.128236
v 0.009697 0.040611 -0.128236
v 0.008247 0.038844 -0.128236
v 0.006479 0.037393 -0.128236
v 0.004463 0.036316 -0.128236
v 0.002275 0.035652 -0.128236
v 0.000000 0.035428 -0.128236
v -0.002275 0.035652 -0.128236
v -0.004463 0.036316 -0.128236
v -0.006479 0.037393 -0.128236
v -0.008247 0.038844 -0.128236
v -0.009697 0.040611 -0.128236
v -0.010775 0.042627 -0.128236
v -0.011438 0.044815 -0.128236
v -0.011662 0.047090 -0.128236
v -0.011438 0.049365 -0.128236
v -0.010775 0.051553 -0.128236
v -0.009697 0.053570 -0.128236
v -0.008247 0.055337 -0.128236
v -0.006479 0.056787 -0.128236
v -0.004463 0.057865 -0.128236
v -0.002275 0.058529 -0.128236
v -0.020083 0.008964 -0.050471
v 0.013934 0.059518 -0.048403
v -0.020083 0.034241 -0.052037
v 0.020083 0.034241 -0.052037
v 0.020083 0.008964 -0.050471
v -0.013934 0.059518 -0.048403
v -0.020083 0.030655 -0.051815
v 0.020083 0.030655 -0.051815
v 0.005918 -0.023758 -0.041596
v 0.005918 -0.023758 -0.036542
v -0.005918 -0.023758 -0.036542
v -0.005918 -0.023758 -0.041596
v 0.005918 -0.029468 -0.041596
v 0.005918 -0.029468 -0.036542
v -0.005918 -0.029468 -0.036542
v -0.005918 -0.029468 -0.041596
v -0.005918 0.006947 -0.044870
v 0.005918 0.006947 -0.044870
v 0.005918 0.006947 -0.049924
v -0.005918 0.006947 -0.049924
v -0.005918 -0.023758 0.010117
v 0.005918 -0.023758 0.010117
v -0.005918 -0.029468 0.010117
v 0.005918 -0.029468 0.010117
vt 0.404391 0.750000
vt 0.529514 0.750000
vt 0.529514 1.000000
vt 0.404391 1.000000
vt 0.404391 0.250000
vt 0.529514 0.250000
vt 0.529514 0.500000
vt 0.404391 0.500000
vt 0.577257 0.500000
vt 0.577257 0.250000
vt 0.577257 0.250000
vt 0.577257 0.500000
vt 0.375000 0.250000
vt 0.375000 0.500000
vt 0.375000 0.750000
vt 0.375000 1.000000
vt 0.570484 0.250000
vt 0.577257 0.250000
vt 0.570484 0.250000
vt 0.570484 0.500000
vt 0.570484 0.750000
vt 0.577257 0.750000
vt 0.577257 1.000000
vt 0.570484 1.000000
vt 0.570484 0.500000
vt 0.577257 0.500000
vt 0.570484 0.000000
vt 0.577257 0.000000
vt 0.577257 0.250000
vt 0.570483 0.250000
vt 0.625000 0.500000
vt 0.577257 0.500000
vt 0.625000 0.500000
vt 0.577257 0.250000
vt 0.570484 0.250000
vt 0.625000 0.250000
vt 0.625000 0.250000
vt 0.875000 0.500000
vt 0.875000 0.500000
vt 0.529514 0.387062
vt 0.529514 0.387062
vt 0.529514 0.387062
vt 0.529514 0.387062
vt 0.750000 0.437989
vt 0.786675 0.434376
vt 0.821940 0.423679
vt 0.854441 0.406307
vt 0.882928 0.382928
vt 0.906307 0.354441
vt 0.923679 0.321940
vt 0.934376 0.286675
vt 0.937988 0.250000
vt 0.934376 0.213325
vt 0.923678 0.178060
vt 0.906307 0.145559
vt 0.882928 0.117072
vt 0.854441 0.093693
vt 0.821940 0.076321
vt 0.786675 0.065624
vt 0.750000 0.062011
vt 0.713325 0.065623
vt 0.678060 0.076321
vt 0.645559 0.093693
vt 0.617072 0.117072
vt 0.593693 0.145559
vt 0.576321 0.178060
vt 0.565624 0.213325
vt 0.562011 0.250000
vt 0.565624 0.286675
vt 0.576321 0.321940
vt 0.593693 0.354441
vt 0.617072 0.382928
vt 0.645559 0.406307
vt 0.678060 0.423679
vt 0.713325 0.434376
vt 0.788906 0.445595
vt 0.750000 0.449427
vt 0.750000 0.490000
vt 0.796822 0.485388
vt 0.826317 0.434246
vt 0.841844 0.471731
vt 0.860796 0.415817
vt 0.883337 0.449553
vt 0.891016 0.391016
vt 0.919706 0.419706
vt 0.915817 0.360796
vt 0.949553 0.383337
vt 0.934246 0.326317
vt 0.971731 0.341844
vt 0.945595 0.288906
vt 0.985388 0.296822
vt 0.949426 0.250000
vt 0.990000 0.250000
vt 0.945595 0.211094
vt 0.985388 0.203178
vt 0.934246 0.173683
vt 0.971731 0.158156
vt 0.915817 0.139204
vt 0.949553 0.116663
vt 0.891016 0.108984
vt 0.919706 0.080294
vt 0.860795 0.084183
vt 0.883337 0.050447
vt 0.826317 0.065754
vt 0.841844 0.028269
vt 0.788906 0.054405
vt 0.796822 0.014612
vt 0.750000 0.050573
vt 0.750000 0.010000
vt 0.711094 0.054405
vt 0.703178 0.014612
vt 0.673683 0.065754
vt 0.658156 0.028269
vt 0.639204 0.084183
vt 0.616663 0.050447
vt 0.608984 0.108984
vt 0.580294 0.080294
vt 0.584183 0.139204
vt 0.550447 0.116663
vt 0.565754 0.173683
vt 0.528269 0.158156
vt 0.554405 0.211094
vt 0.514612 0.203178
vt 0.550573 0.250000
vt 0.510000 0.250000
vt 0.554405 0.288906
vt 0.514612 0.296822
vt 0.565754 0.326317
vt 0.528269 0.341844
vt 0.584183 0.360796
vt 0.550447 0.383337
vt 0.608984 0.391016
vt 0.580294 0.419706
vt 0.639205 0.415817
vt 0.616663 0.449553
vt 0.673683 0.434246
vt 0.658156 0.471731
vt 0.711094 0.445595
vt 0.703178 0.485388
vt 0.570484 0.500000
vt 0.577257 0.500000
vt 0.570484 0.500000
vt 0.513535 0.030837
vt 0.420370 0.030837
vt 0.404391 0.000000
vt 0.529514 0.000000
vt 0.513535 0.719163
vt 0.513535 0.530837
vt 0.513535 0.219163
vt 0.420370 0.219163
vt 0.420370 0.530837
vt 0.420370 0.719163
vt 0.529514 0.362938
vt 0.529514 0.500000
vt 0.529514 0.362938
vt 0.529514 0.250000
vt 0.529514 0.362938
vt 0.529514 0.362938
vt 0.529514 0.362938
vt 0.529514 0.362938
vt 0.529514 0.387062
vt 0.529514 0.387062
vt 0.031250 0.500000
vt 0.031250 0.750000
vt 0.000000 0.750000
vt 0.000000 0.500000
vt 0.062500 0.500000
vt 0.062500 0.750000
vt 0.093750 0.500000
vt 0.093750 0.750000
vt 0.125000 0.500000
vt 0.125000 0.750000
vt 0.156250 0.500000
vt 0.156250 0.750000
vt 0.187500 0.500000
vt 0.187500 0.750000
vt 0.218750 0.500000
vt 0.218750 0.750000
vt 0.250000 0.500000
vt 0.250000 0.750000
vt 0.281250 0.500000
vt 0.281250 0.750000
vt 0.312500 0.500000
vt 0.312500 0.750000
vt 0.343750 0.500000
vt 0.343750 0.750000
vt 0.375000 0.500000
vt 0.375000 0.750000
vt 0.406250 0.500000
vt 0.406250 0.750000
vt 0.437500 0.500000
vt 0.437500 0.750000
vt 0.468750 0.500000
vt 0.468750 0.750000
vt 0.500000 0.500000
vt 0.500000 0.750000
vt 0.531250 0.500000
vt 0.531250 0.750000
vt 0.562500 0.500000
vt 0.562500 0.750000
vt 0.593750 0.500000
vt 0.593750 0.750000
vt 0.625000 0.500000
vt 0.625000 0.750000
vt 0.656250 0.500000
vt 0.656250 0.750000
vt 0.687500 0.500000
vt 0.687500 0.750000
vt 0.718750 0.500000
vt 0.718750 0.750000
vt 0.750000 0.500000
vt 0.750000 0.750000
vt 0.781250 0.500000
vt 0.781250 0.750000
vt 0.812500 0.500000
vt 0.812500 0.750000
vt 0.843750 0.500000
vt 0.843750 0.750000
vt 0.875000 0.500000
vt 0.875000 0.750000
vt 0.906250 0.500000
vt 0.906250 0.750000
vt 0.937500 0.500000
vt 0.937500 0.750000
vt 0.968750 0.500000
vt 0.968750 0.750000
vt 1.000000 0.500000
vt 1.000000 0.750000
vt 0.529514 0.500000
vt 0.529514 0.250000
vt 0.529514 0.250000
vt 0.529514 0.500000
vt 0.529514 0.250000
vt 0.529514 0.500000
vt 0.529514 0.250000
vt 0.529514 0.500000
vt 0.625000 0.000000
vt 0.529514 0.500000
vt 0.529514 0.250000
vt 0.529514 0.250000
vt 0.529514 0.500000
vt 0.625000 0.750000
vt 0.625000 1.000000
vt 0.125000 0.500000
vt 0.125000 0.750000
vt 0.875000 0.750000
vt 0.875000 0.500000
vt 0.625000 0.500000
vt 0.625000 0.500000
vt 0.875000 0.500000
vt 0.625000 0.250000
vt 0.625000 0.250000
vt 0.375000 0.000000
vt 0.625000 0.250000
vt 0.625000 0.500000
vt 0.875000 0.500000
vt 0.529514 0.250000
vt 0.529514 0.500000
vt 0.529514 0.500000
vt 0.529514 0.250000
vt 0.529514 0.250000
vt 0.529514 0.500000
vt 0.529514 0.500000
vt 0.529514 0.250000
vn 0.0000 0.2278 0.9737
vn 0.0000 -0.2278 -0.9737
vn 0.0000 -1.0000 0.0000
vn 0.0000 0.1201 -0.9928
vn 0.0000 0.1201 0.9928
vn -1.0000 -0.0000 0.0000
vn 0.0000 -0.4182 -0.9084
vn -0.0000 0.0000 1.0000
vn 1.0000 0.0000 0.0000
vn 0.9717 0.2364 0.0000
vn -0.9717 0.2364 0.0000
vn 0.0000 1.0000 0.0000
vn -0.0000 0.0000 -1.0000
vn -0.0980 -0.9950 -0.0196
vn -0.2902 -0.9568 -0.0196
vn -0.4713 -0.8818 -0.0196
vn -0.6343 -0.7729 -0.0196
vn -0.7729 -0.6343 -0.0196
vn -0.8818 -0.4713 -0.0196
vn -0.9568 -0.2902 -0.0196
vn -0.9950 -0.0980 -0.0196
vn -0.9950 0.0980 -0.0196
vn -0.9568 0.2902 -0.0196
vn -0.8818 0.4713 -0.0196
vn -0.7729 0.6343 -0.0196
vn -0.6343 0.7729 -0.0196
vn -0.4713 0.8818 -0.0196
vn -0.2902 0.9568 -0.0196
vn -0.0980 0.9950 -0.0196
vn 0.0980 0.9950 -0.0196
vn 0.2902 0.9568 -0.0196
vn 0.4713 0.8818 -0.0196
vn 0.6343 0.7729 -0.0196
vn 0.7729 0.6343 -0.0196
vn 0.8818 0.4713 -0.0196
vn 0.9568 0.2902 -0.0196
vn 0.9950 0.0980 -0.0196
vn 0.9950 -0.0980 -0.0196
vn 0.9568 -0.2902 -0.0196
vn 0.8818 -0.4713 -0.0196
vn 0.7729 -0.6343 -0.0196
vn 0.6343 -0.7729 -0.0196
vn 0.4713 -0.8818 -0.0196
vn 0.2902 -0.9568 -0.0196
vn 0.0980 -0.9950 -0.0196
vn -0.9988 -0.0480 0.0000
vn 0.9982 -0.0607 0.0000
vn -0.9982 -0.0607 0.0000
vn 0.9988 -0.0480 -0.0000
vn 0.0000 0.1878 0.9822
vn 0.0000 -0.1878 -0.9822
vn 0.0000 -0.9807 -0.1957
vn 0.0000 -0.2117 0.9773
vn 0.0000 0.2308 -0.9730
vn -0.0980 0.9952 0.0000
vn -0.2903 0.9569 0.0000
vn -0.4714 0.8819 0.0000
vn -0.6344 0.7730 0.0000
vn -0.7730 0.6344 0.0000
vn -0.8819 0.4714 0.0000
vn -0.9569 0.2903 0.0000
vn -0.9952 0.0980 0.0000
vn -0.9952 -0.0980 0.0000
vn -0.9569 -0.2903 0.0000
vn -0.8819 -0.4714 -0.0000
vn -0.7730 -0.6344 0.0000
vn -0.6344 -0.7730 0.0000
vn -0.4714 -0.8819 -0.0000
vn -0.2903 -0.9569 -0.0000
vn -0.0980 -0.9952 -0.0000
vn 0.0980 -0.9952 -0.0000
vn 0.2903 -0.9569 -0.0000
vn 0.4714 -0.8819 -0.0000
vn 0.6344 -0.7730 0.0000
vn 0.7730 -0.6344 0.0000
vn 0.8819 -0.4714 -0.0000
vn 0.9569 -0.2903 0.0000
vn 0.9952 -0.0980 0.0000
vn 0.9952 0.0980 0.0000
vn 0.9569 0.2903 0.0000
vn 0.8819 0.4714 0.0000
vn 0.7730 0.6344 0.0000
vn 0.6344 0.7730 0.0000
vn 0.4714 0.8819 0.0000
vn 0.2903 0.9569 0.0000
vn 0.0980 0.9952 0.0000
vn -0.0000 0.2618 0.9651
vn 0.0000 0.2688 0.9632
vn 0.9989 -0.0463 0.0000
vn -0.9989 -0.0463 0.0000
vn 0.0000 -0.2618 -0.9651
vn 0.1409 -0.9900 -0.0000
vn -0.1409 -0.9900 0.0000
usemtl Material
s off
f 148/1/1 144/2/1 142/3/1 141/4/1
f 146/5/2 149/6/2 150/7/2 147/8/2
f 26/9/3 25/10/3 35/11/3 36/12/3
f 3/13/4 146/5/4 147/8/4 7/14/4
f 5/15/5 148/1/5 141/4/5 1/16/5
f 199/17/6 195/18/6 25/10/6 136/19/6
f 136/19/7 25/10/7 26/9/7 137/20/7
f 135/21/8 24/22/8 21/23/8 138/24/8
f 134/25/9 23/26/9 24/22/9 135/21/9
f 138/27/6 21/28/6 22/29/6 133/30/6
f 8/31/10 23/26/10 32/32/10 29/33/10
f 133/30/6 22/29/6 31/34/6 139/35/6
f 22/29/11 4/36/11 30/37/11 31/34/11
f 4/38/12 8/31/12 29/33/12 30/39/12
f 28/40/9 143/41/9 154/42/9 155/43/9
f 37/44/13 38/45/13 39/46/13 40/47/13 41/48/13 42/49/13 43/50/13 44/51/13 45/52/13 46/53/13 47/54/13 48/55/13 49/56/13 50/57/13 51/58/13 52/59/13 53/60/13 54/61/13 55/62/13 56/63/13 57/64/13 58/65/13 59/66/13 60/67/13 61/68/13 62/69/13 63/70/13 64/71/13 65/72/13 66/73/13 67/74/13 68/75/13
f 102/76/13 101/77/13 69/78/13 70/79/13
f 103/80/13 102/76/13 70/79/13 71/81/13
f 104/82/13 103/80/13 71/81/13 72/83/13
f 105/84/13 104/82/13 72/83/13 73/85/13
f 106/86/13 105/84/13 73/85/13 74/87/13
f 107/88/13 106/86/13 74/87/13 75/89/13
f 108/90/13 107/88/13 75/89/13 76/91/13
f 109/92/13 108/90/13 76/91/13 77/93/13
f 110/94/13 109/92/13 77/93/13 78/95/13
f 111/96/13 110/94/13 78/95/13 79/97/13
f 112/98/13 111/96/13 79/97/13 80/99/13
f 113/100/13 112/98/13 80/99/13 81/101/13
f 114/102/13 113/100/13 81/101/13 82/103/13
f 115/104/13 114/102/13 82/103/13 83/105/13
f 116/106/13 115/104/13 83/105/13 84/107/13
f 117/108/13 116/106/13 84/107/13 85/109/13
f 118/110/13 117/108/13 85/109/13 86/111/13
f 119/112/13 118/110/13 86/111/13 87/113/13
f 120/114/13 119/112/13 87/113/13 88/115/13
f 121/116/13 120/114/13 88/115/13 89/117/13
f 122/118/13 121/116/13 89/117/13 90/119/13
f 123/120/13 122/118/13 90/119/13 91/121/13
f 124/122/13 123/120/13 91/121/13 92/123/13
f 125/124/13 124/122/13 92/123/13 93/125/13
f 126/126/13 125/124/13 93/125/13 94/127/13
f 127/128/13 126/126/13 94/127/13 95/129/13
f 128/130/13 127/128/13 95/129/13 96/131/13
f 129/132/13 128/130/13 96/131/13 97/133/13
f 130/134/13 129/132/13 97/133/13 98/135/13
f 131/136/13 130/134/13 98/135/13 99/137/13
f 132/138/13 131/136/13 99/137/13 100/139/13
f 101/77/13 132/138/13 100/139/13 69/78/13
f 38/45/14 37/44/14 101/77/14 102/76/14
f 39/46/15 38/45/15 102/76/15 103/80/15
f 40/47/16 39/46/16 103/80/16 104/82/16
f 41/48/17 40/47/17 104/82/17 105/84/17
f 42/49/18 41/48/18 105/84/18 106/86/18
f 43/50/19 42/49/19 106/86/19 107/88/19
f 44/51/20 43/50/20 107/88/20 108/90/20
f 45/52/21 44/51/21 108/90/21 109/92/21
f 46/53/22 45/52/22 109/92/22 110/94/22
f 47/54/23 46/53/23 110/94/23 111/96/23
f 48/55/24 47/54/24 111/96/24 112/98/24
f 49/56/25 48/55/25 112/98/25 113/100/25
f 50/57/26 49/56/26 113/100/26 114/102/26
f 51/58/27 50/57/27 114/102/27 115/104/27
f 52/59/28 51/58/28 115/104/28 116/106/28
f 53/60/29 52/59/29 116/106/29 117/108/29
f 54/61/30 53/60/30 117/108/30 118/110/30
f 55/62/31 54/61/31 118/110/31 119/112/31
f 56/63/32 55/62/32 119/112/32 120/114/32
f 57/64/33 56/63/33 120/114/33 121/116/33
f 58/65/34 57/64/34 121/116/34 122/118/34
f 59/66/35 58/65/35 122/118/35 123/120/35
f 60/67/36 59/66/36 123/120/36 124/122/36
f 61/68/37 60/67/37 124/122/37 125/124/37
f 62/69/38 61/68/38 125/124/38 126/126/38
f 63/70/39 62/69/39 126/126/39 127/128/39
f 64/71/40 63/70/40 127/128/40 128/130/40
f 65/72/41 64/71/41 128/130/41 129/132/41
f 66/73/42 65/72/42 129/132/42 130/134/42
f 67/74/43 66/73/43 130/134/43 131/136/43
f 68/75/44 67/74/44 131/136/44 132/138/44
f 37/44/45 68/75/45 132/138/45 101/77/45
f 23/26/9 134/25/9 140/140/9 32/32/9
f 196/141/9 200/142/9 137/20/9 26/9/9
f 9/143/46 20/144/46 141/145/46 142/146/46
f 12/147/47 11/148/47 150/7/47 144/2/47
f 10/149/48 9/143/48 142/146/48 149/6/48
f 17/150/46 10/149/46 149/6/46 146/5/46
f 11/148/49 18/151/49 147/8/49 150/7/49
f 19/152/49 12/147/49 144/2/49 148/1/49
f 20/144/48 17/150/48 146/5/48 141/145/48
f 18/151/47 19/152/47 148/1/47 147/8/47
f 145/153/3 143/41/3 150/7/3 149/6/3
f 143/41/3 28/40/3 151/154/3 150/7/3
f 27/155/3 145/153/3 149/6/3 152/156/3
f 28/40/3 27/155/3 152/156/3 151/154/3
f 153/157/6 156/158/6 160/159/6 157/160/6
f 145/153/6 27/155/6 156/158/6 153/157/6
f 143/41/50 145/153/50 153/157/50 154/42/50
f 27/155/51 28/40/51 155/43/51 156/158/51
f 158/161/52 157/160/52 160/159/52 159/162/52
f 154/42/53 153/157/53 157/160/53 158/161/53
f 156/158/54 155/43/54 159/162/54 160/159/54
f 155/43/9 154/42/9 158/161/9 159/162/9
f 100/163/55 192/164/55 161/165/55 69/166/55
f 99/167/56 191/168/56 192/164/56 100/163/56
f 98/169/57 190/170/57 191/168/57 99/167/57
f 97/171/58 189/172/58 190/170/58 98/169/58
f 96/173/59 188/174/59 189/172/59 97/171/59
f 95/175/60 187/176/60 188/174/60 96/173/60
f 94/177/61 186/178/61 187/176/61 95/175/61
f 93/179/62 185/180/62 186/178/62 94/177/62
f 92/181/63 184/182/63 185/180/63 93/179/63
f 91/183/64 183/184/64 184/182/64 92/181/64
f 90/185/65 182/186/65 183/184/65 91/183/65
f 89/187/66 181/188/66 182/186/66 90/185/66
f 88/189/67 180/190/67 181/188/67 89/187/67
f 87/191/68 179/192/68 180/190/68 88/189/68
f 86/193/69 178/194/69 179/192/69 87/191/69
f 85/195/70 177/196/70 178/194/70 86/193/70
f 84/197/71 176/198/71 177/196/71 85/195/71
f 83/199/72 175/200/72 176/198/72 84/197/72
f 82/201/73 174/202/73 175/200/73 83/199/73
f 81/203/74 173/204/74 174/202/74 82/201/74
f 80/205/75 172/206/75 173/204/75 81/203/75
f 79/207/76 171/208/76 172/206/76 80/205/76
f 78/209/77 170/210/77 171/208/77 79/207/77
f 77/211/78 169/212/78 170/210/78 78/209/78
f 76/213/79 168/214/79 169/212/79 77/211/79
f 75/215/80 167/216/80 168/214/80 76/213/80
f 74/217/81 166/218/81 167/216/81 75/215/81
f 73/219/82 165/220/82 166/218/82 74/217/82
f 72/221/83 164/222/83 165/220/83 73/219/83
f 71/223/84 163/224/84 164/222/84 72/221/84
f 70/225/85 162/226/85 163/224/85 71/223/85
f 69/227/86 161/228/86 162/226/86 70/225/86
f 32/32/9 140/140/9 200/142/9 196/141/9
f 139/35/6 31/34/6 195/18/6 199/17/6
f 210/229/87 209/230/87 203/231/87 202/232/87
f 202/232/12 203/231/12 213/233/12 214/234/12
f 151/154/87 152/156/87 209/230/87 210/229/87
f 214/234/8 213/233/8 215/235/8 216/236/8
usemtl Material.003
f 21/28/11 2/237/11 4/36/11 22/29/11
f 197/238/3 193/239/3 15/240/3 16/241/3
f 23/26/10 8/31/10 6/242/10 24/22/10
f 24/22/88 6/242/88 2/243/88 21/23/88
f 3/244/3 7/14/3 5/15/3 1/245/3
f 8/31/12 4/38/12 2/246/12 6/242/12
f 18/151/89 11/148/89 12/147/89 19/152/89
f 20/144/90 9/143/90 10/149/90 17/150/90
f 198/247/12 194/248/12 14/249/12 13/250/12
f 200/142/9 197/238/9 16/241/9 137/20/9
f 195/18/11 198/251/11 13/252/11 25/10/11
f 1/253/6 141/145/6 146/5/6 3/13/6
f 7/14/9 147/8/9 148/1/9 5/15/9
f 194/248/10 196/141/10 26/9/10 14/249/10
f 134/25/9 150/7/9 151/154/9 140/140/9
f 35/11/13 33/254/13 34/255/13 36/12/13
f 13/250/12 14/249/12 34/255/12 33/256/12
f 25/10/11 13/252/11 33/254/11 35/11/11
f 14/249/10 26/9/10 36/12/10 34/255/10
f 149/6/6 133/30/6 139/35/6 152/156/6
f 142/146/6 138/27/6 133/30/6 149/6/6
f 150/7/9 134/25/9 135/21/9 144/2/9
f 144/2/8 135/21/8 138/24/8 142/3/8
f 15/240/7 136/19/7 137/20/7 16/241/7
f 193/239/6 199/17/6 136/19/6 15/240/6
f 152/156/6 139/35/6 199/17/6 193/239/6
f 29/33/10 32/32/10 196/141/10 194/248/10
f 31/34/11 30/37/11 198/251/11 195/18/11
f 140/140/9 151/154/9 197/238/9 200/142/9
f 30/39/12 29/33/12 194/248/12 198/247/12
f 204/257/13 201/258/13 205/259/13 208/260/13
f 212/261/91 211/262/91 201/258/91 204/257/91
f 209/230/6 212/261/6 204/257/6 203/231/6
f 211/262/9 210/229/9 202/232/9 201/258/9
f 206/263/3 207/264/3 208/260/3 205/259/3
f 203/231/6 204/257/6 208/260/6 207/264/6
f 201/258/9 202/232/9 206/263/9 205/259/9
f 197/238/92 151/154/92 210/229/92 211/262/92
f 152/156/93 193/239/93 212/261/93 209/230/93
f 193/239/91 197/238/91 211/262/91 212/261/91
f 206/263/9 202/232/9 214/234/9 216/236/9
f 207/264/3 206/263/3 216/236/3 215/235/3
f 203/231/6 207/264/6 215/235/6 213/233/6
