# Blender v3.3.0 OBJ File: ''
# www.blender.org
mtllib drone_prop.mtl
o Cube.001_Cube.003
v -0.011209 -0.011385 0.011385
v -0.011209 0.011385 0.011385
v -0.011209 -0.011385 -0.011385
v -0.011209 0.011385 -0.011385
v 0.011561 -0.011385 0.011385
v 0.011561 0.011385 0.011385
v 0.011561 -0.011385 -0.011385
v 0.011561 0.011385 -0.011385
v -0.055995 -0.017708 -0.017708
v -0.055995 -0.017708 0.017708
v -0.055995 0.017708 0.017708
v -0.055995 0.017708 -0.017708
v 0.056947 0.017708 -0.017708
v 0.056947 -0.017708 -0.017708
v 0.056947 -0.017708 0.017708
v 0.056947 0.017708 0.017708
v -0.017597 0.017708 -0.055374
v -0.017597 -0.017708 -0.055374
v 0.017819 -0.017708 -0.055374
v 0.017819 0.017708 -0.055374
v -0.017597 -0.017708 0.055374
v -0.017597 0.017708 0.055374
v 0.017819 0.017708 0.055374
v 0.017819 -0.017708 0.055374
v -0.017597 -0.005464 0.236703
v -0.017597 0.005464 0.236703
v 0.017819 0.005464 0.236703
v 0.017819 -0.005464 0.236703
v 0.238277 0.005809 -0.017708
v 0.238277 -0.005809 -0.017708
v 0.238277 -0.005809 0.017708
v 0.238277 0.005809 0.017708
v -0.017597 0.005464 -0.232308
v -0.017597 -0.005464 -0.232308
v 0.017819 -0.005464 -0.232308
v 0.017819 0.005464 -0.232308
v -0.239522 -0.005809 -0.017708
v -0.239522 -0.005809 0.017708
v -0.239522 0.005809 0.017708
v -0.239522 0.005809 -0.017708
v 0.017819 0.009137 -0.179228
v -0.017597 0.009137 -0.179228
v -0.017597 -0.009137 -0.179228
v 0.017819 -0.009137 -0.179228
v 0.178346 -0.009742 -0.017708
v 0.178346 -0.009742 0.017708
v 0.178346 0.009742 0.017708
v 0.178346 0.009742 -0.017708
v -0.017597 0.009219 0.181086
v 0.017819 0.009219 0.181086
v 0.017819 -0.009219 0.181086
v -0.017597 -0.009219 0.181086
v -0.178852 -0.009743 -0.017708
v -0.178852 0.009743 -0.017708
v -0.178852 0.009743 0.017708
v -0.178852 -0.009743 0.017708
vt 0.125000 0.500000
vt 0.375000 0.500000
vt 0.375000 0.750000
vt 0.125000 0.750000
vt 0.625000 0.500000
vt 0.875000 0.500000
vt 0.875000 0.750000
vt 0.625000 0.750000
vt 0.375000 0.500000
vt 0.125000 0.500000
vt 0.125000 0.500000
vt 0.375000 0.500000
vt 0.625000 0.500000
vt 0.625000 0.500000
vt 0.375000 0.250000
vt 0.625000 0.250000
vt 0.625000 0.250000
vt 0.375000 0.250000
vt 0.875000 0.500000
vt 0.875000 0.500000
vt 0.625000 0.750000
vt 0.375000 0.750000
vt 0.375000 0.750000
vt 0.625000 0.750000
vt 0.375000 0.500000
vt 0.625000 0.500000
vt 0.625000 0.500000
vt 0.375000 0.500000
vt 0.625000 1.000000
vt 0.375000 1.000000
vt 0.375000 1.000000
vt 0.625000 1.000000
vt 0.125000 0.750000
vt 0.375000 0.750000
vt 0.375000 0.750000
vt 0.125000 0.750000
vt 0.625000 0.750000
vt 0.625000 0.750000
vt 0.875000 0.750000
vt 0.875000 0.750000
vt 0.125000 0.500000
vt 0.125000 0.750000
vt 0.125000 0.750000
vt 0.125000 0.500000
vt 0.875000 0.750000
vt 0.875000 0.500000
vt 0.875000 0.500000
vt 0.875000 0.750000
vt 0.375000 1.000000
vt 0.625000 1.000000
vt 0.625000 1.000000
vt 0.375000 1.000000
vt 0.625000 0.250000
vt 0.375000 0.250000
vt 0.375000 0.250000
vt 0.625000 0.250000
vt 0.375000 0.250000
vt 0.625000 0.250000
vt 0.625000 0.250000
vt 0.375000 0.250000
vt 0.375000 1.000000
vt 0.625000 1.000000
vt 0.375000 0.500000
vt 0.375000 0.750000
vt 0.625000 0.500000
vt 0.875000 0.500000
vt 0.875000 0.750000
vt 0.625000 0.750000
vt 0.375000 0.750000
vt 0.625000 1.000000
vt 0.375000 1.000000
vt 0.125000 0.750000
vt 0.625000 0.500000
vt 0.625000 0.750000
vt 0.375000 0.250000
vt 0.625000 0.250000
vt 0.375000 0.500000
vt 0.125000 0.500000
vt 0.375000 0.000000
vt 0.625000 0.000000
vt 0.625000 1.000000
vt 0.375000 1.000000
vt 0.875000 0.500000
vt 0.875000 0.750000
vt 0.125000 0.750000
vt 0.125000 0.500000
vn 0.0000 -1.0000 0.0000
vn 0.0000 1.0000 0.0000
vn 0.0000 -0.9976 -0.0690
vn 1.0000 0.0000 0.0000
vn -1.0000 0.0000 0.0000
vn 0.0000 0.9976 -0.0690
vn 0.0000 0.0000 1.0000
vn 0.0000 0.0000 -1.0000
vn 0.0655 0.9979 0.0000
vn 0.0655 -0.9979 0.0000
vn 0.0000 -0.9977 0.0674
vn 0.0000 0.9977 0.0674
vn -0.0647 -0.9979 0.0000
vn -0.0647 0.9979 0.0000
vn 0.1398 0.9902 0.0000
vn 0.9900 0.0000 0.1408
vn -0.1380 0.9904 0.0000
vn 0.0000 -0.9898 -0.1423
vn 0.1398 -0.9902 0.0000
vn 0.1398 0.0000 -0.9902
vn 0.1398 0.0000 0.9902
vn -0.1380 0.0000 -0.9904
vn -0.1380 0.0000 0.9904
vn -0.1380 -0.9904 0.0000
vn 0.0000 -0.9898 0.1423
vn 0.0000 0.9898 0.1423
vn -0.9896 0.0000 0.1437
vn 0.0000 0.9898 -0.1423
vn 0.9900 0.0000 -0.1408
vn -0.9896 0.0000 -0.1437
usemtl Material.014
s off
f 3/1/1 7/2/1 5/3/1 1/4/1
f 8/5/2 4/6/2 2/7/2 6/8/2
f 19/9/3 18/10/3 43/11/3 44/12/3
f 20/13/4 19/9/4 44/12/4 41/14/4
f 18/15/5 17/16/5 42/17/5 43/18/5
f 17/19/6 20/13/6 41/14/6 42/20/6
f 16/21/7 15/22/7 46/23/7 47/24/7
f 14/25/8 13/26/8 48/27/8 45/28/8
f 13/26/9 16/21/9 47/24/9 48/27/9
f 15/22/10 14/25/10 45/28/10 46/23/10
f 22/29/5 21/30/5 52/31/5 49/32/5
f 21/33/11 24/34/11 51/35/11 52/36/11
f 24/34/4 23/37/4 50/38/4 51/35/4
f 23/37/12 22/39/12 49/40/12 50/38/12
f 9/41/13 10/42/13 56/43/13 53/44/13
f 11/45/14 12/46/14 54/47/14 55/48/14
f 10/49/7 11/50/7 55/51/7 56/52/7
f 12/53/8 9/54/8 53/55/8 54/56/8
usemtl Material.015
f 2/7/15 4/6/15 12/46/15 11/45/15
f 8/5/16 7/2/16 19/9/16 20/13/16
f 8/5/17 6/8/17 16/21/17 13/26/17
f 1/4/18 5/3/18 24/34/18 21/33/18
f 54/56/8 53/55/8 37/57/8 40/58/8
f 3/1/19 1/4/19 10/42/19 9/41/19
f 4/59/20 3/60/20 9/54/20 12/53/20
f 1/61/21 2/62/21 11/50/21 10/49/21
f 46/23/10 45/28/10 30/63/10 31/64/10
f 7/2/22 8/5/22 13/26/22 14/25/22
f 6/8/23 5/3/23 15/22/23 16/21/23
f 5/3/24 7/2/24 14/25/24 15/22/24
f 42/20/6 41/14/6 36/65/6 33/66/6
f 7/2/25 3/1/25 18/10/25 19/9/25
f 4/6/26 8/5/26 20/13/26 17/19/26
f 3/60/27 4/59/27 17/16/27 18/15/27
f 50/38/12 49/40/12 26/67/12 27/68/12
f 6/8/28 2/7/28 22/39/28 23/37/28
f 5/3/29 6/8/29 23/37/29 24/34/29
f 2/62/30 1/61/30 21/30/30 22/29/30
f 28/69/7 27/68/7 26/70/7 25/71/7
f 51/35/4 50/38/4 27/68/4 28/69/4
f 52/36/11 51/35/11 28/69/11 25/72/11
f 49/32/5 52/31/5 25/71/5 26/70/5
f 30/63/4 29/73/4 32/74/4 31/64/4
f 48/27/9 47/24/9 32/74/9 29/73/9
f 45/28/8 48/27/8 29/73/8 30/63/8
f 47/24/7 46/23/7 31/64/7 32/74/7
f 34/75/8 33/76/8 36/65/8 35/77/8
f 43/18/5 42/17/5 33/76/5 34/75/5
f 41/14/4 44/12/4 35/77/4 36/65/4
f 44/12/3 43/11/3 34/78/3 35/77/3
f 38/79/5 39/80/5 40/58/5 37/57/5
f 56/52/7 55/51/7 39/81/7 38/82/7
f 55/48/14 54/47/14 40/83/14 39/84/14
f 53/44/13 56/43/13 38/85/13 37/86/13
