# Blender v3.3.0 OBJ File: ''
# www.blender.org
mtllib ebr.mtl
o Cube_Cube.002
v 0.019111 0.085738 -0.183873
v 0.019111 0.040987 -0.183873
v 0.019111 0.040987 -0.204854
v 0.019111 0.085738 -0.204854
v -0.019009 0.036596 0.171722
v 0.019009 0.036596 0.171722
v 0.019009 0.036596 0.185534
v -0.019009 0.036596 0.185534
v -0.023529 -0.076378 0.067932
v -0.023875 -0.082392 0.061806
v -0.023578 -0.088618 0.064062
v -0.023578 -0.087972 0.068337
v -0.008817 0.005447 -0.004937
v 0.008817 0.005447 -0.004937
v 0.008817 -0.014854 0.000608
v -0.008817 -0.014854 0.000608
v -0.022084 -0.160508 -0.189083
v 0.022084 -0.160508 -0.189083
v 0.022084 -0.163070 -0.063230
v -0.022084 -0.163070 -0.063230
v 0.023529 -0.070522 0.097900
v 0.023875 -0.074501 0.106487
v 0.023578 -0.080168 0.107656
v 0.023578 -0.080755 0.103770
v -0.023939 -0.027470 -0.182625
v 0.023939 -0.027470 -0.182625
v 0.023939 -0.028459 -0.059110
v -0.023939 -0.028459 -0.059110
v 0.008817 -0.014854 0.016262
v -0.008817 -0.014854 0.016262
v -0.008817 -0.034555 0.010024
v 0.008817 -0.034555 0.010024
v -0.008817 0.005447 0.010717
v 0.008817 0.005447 0.010717
v -0.008817 -0.031435 -0.004937
v 0.008817 -0.031435 -0.004937
v 0.027401 -0.005107 0.083632
v 0.027804 0.000280 0.091060
v 0.025827 -0.037360 0.098825
v 0.025452 -0.038033 0.090814
v -0.027401 -0.005485 0.043017
v -0.027804 -0.000230 0.032032
v -0.025827 -0.041585 0.047019
v -0.025452 -0.041169 0.055557
v 0.025582 -0.042011 0.099785
v 0.025211 -0.042102 0.091702
v -0.025582 -0.046695 0.048870
v -0.025211 -0.045578 0.057107
v -0.019111 0.040987 -0.183873
v -0.019111 0.040987 -0.204854
v -0.019111 0.085738 -0.183873
v -0.019111 0.085738 -0.204854
v -0.019009 0.086080 0.171722
v -0.019009 0.086080 0.185534
v 0.019009 0.086080 0.171722
v 0.019009 0.086080 0.185534
v 0.011100 0.074960 -0.594887
v 0.000000 0.079557 -0.594887
v 0.000000 0.080578 -0.450965
v 0.011822 0.075682 -0.450965
v 0.015697 0.063860 -0.594887
v 0.016718 0.063860 -0.450965
v 0.011100 0.052761 -0.594887
v 0.011822 0.052039 -0.450965
v 0.000000 0.048163 -0.594887
v 0.000000 0.047142 -0.450965
v -0.011100 0.052761 -0.594887
v -0.011822 0.052039 -0.450965
v -0.015697 0.063860 -0.594887
v -0.016718 0.063860 -0.450965
v -0.011100 0.074960 -0.594887
v -0.011822 0.075682 -0.450965
v 0.008461 0.072322 -0.468724
v 0.000000 0.075827 -0.468724
v 0.000000 0.076985 -0.594887
v 0.009281 0.073141 -0.594887
v 0.011966 0.063860 -0.468724
v 0.013125 0.063860 -0.594887
v 0.008461 0.055399 -0.468724
v 0.009281 0.054579 -0.594887
v 0.000000 0.051894 -0.468724
v 0.000000 0.050735 -0.594887
v -0.008461 0.055399 -0.468724
v -0.009281 0.054579 -0.594887
v -0.011966 0.063860 -0.468724
v -0.013125 0.063860 -0.594887
v -0.008461 0.072322 -0.468724
v -0.009281 0.073141 -0.594887
v -0.025582 -0.042011 0.099785
v -0.025211 -0.042102 0.091702
v -0.023529 -0.070522 0.097900
v -0.023875 -0.074501 0.106487
v -0.025827 -0.037360 0.098825
v -0.025452 -0.038033 0.090814
v -0.027804 0.000280 0.091060
v -0.027401 -0.005107 0.083632
v 0.023529 -0.076378 0.067932
v 0.023578 -0.087972 0.068337
v -0.023578 -0.080755 0.103770
v -0.023578 -0.080168 0.107656
v 0.023875 -0.082392 0.061806
v 0.023578 -0.088618 0.064062
v 0.027804 -0.000230 0.032032
v 0.027401 -0.005485 0.043017
v 0.025452 -0.041169 0.055557
v 0.025827 -0.041585 0.047019
v 0.025211 -0.045578 0.057107
v 0.025582 -0.046695 0.048870
v -0.028076 0.005447 0.084968
v -0.028076 0.005447 0.035505
v 0.028076 0.005447 0.029975
v 0.028076 0.005447 0.035505
v 0.028076 0.005447 0.084968
v -0.028076 0.005447 0.089995
v -0.028076 0.005447 0.029975
v 0.028076 0.005447 0.089995
v -0.019009 0.044853 -0.606484
v -0.026881 0.063860 -0.606484
v -0.026881 0.063860 -0.693187
v -0.019009 0.044853 -0.693187
v 0.000000 0.036979 -0.606484
v 0.000000 0.036979 -0.693187
v 0.019009 0.044853 -0.606484
v 0.019009 0.044853 -0.693187
v 0.026881 0.063860 -0.606484
v 0.026881 0.063860 -0.693187
v -0.015893 0.047967 -0.606484
v 0.000000 0.041384 -0.606484
v 0.000000 0.041384 -0.693187
v -0.015893 0.047967 -0.693187
v -0.015893 0.079753 -0.606484
v -0.022476 0.063860 -0.606484
v -0.022476 0.063860 -0.693187
v -0.015893 0.079753 -0.693187
v 0.019009 0.082869 -0.606484
v 0.019009 0.082869 -0.693187
v 0.022476 0.063860 -0.606484
v 0.015893 0.079753 -0.606484
v 0.015893 0.079753 -0.693187
v 0.022476 0.063860 -0.693187
v 0.000000 0.086336 -0.693187
v 0.000000 0.090741 -0.693187
v 0.015893 0.047967 -0.693187
v -0.019009 0.082869 -0.693187
v -0.019009 0.082869 -0.606484
v 0.000000 0.090741 -0.606484
v 0.000000 0.086336 -0.606484
v 0.015893 0.047967 -0.606484
v -0.028076 0.005447 -0.050674
v -0.028076 0.093736 -0.050674
v -0.028076 0.093736 -0.183873
v -0.028076 0.005447 -0.183873
v 0.028076 0.093736 0.107885
v 0.028076 0.093736 0.112912
v -0.028076 0.093736 0.107885
v -0.028076 0.093736 0.112912
v 0.028076 0.093736 -0.183873
v 0.028076 0.093736 -0.050674
v -0.028076 0.093736 0.052892
v 0.028076 0.093736 0.052892
v 0.028076 0.005447 -0.183873
v 0.028076 -0.027131 -0.186748
v -0.028076 -0.027131 -0.186748
v 0.028076 0.005447 -0.050674
v -0.028076 0.093736 0.058422
v -0.028076 -0.028797 -0.054987
v 0.028076 -0.028797 -0.054987
v -0.008790 -0.040718 -0.041338
v -0.008790 -0.041000 -0.030209
v -0.008790 0.005498 -0.031136
v -0.008790 0.005780 -0.042264
v 0.008790 -0.040718 -0.041338
v 0.008707 -0.045828 -0.041912
v -0.008707 -0.045828 -0.041912
v 0.008790 -0.041000 -0.030209
v 0.008707 -0.046110 -0.028358
v -0.008707 -0.046110 -0.028358
v 0.007572 -0.046651 0.047000
v -0.007572 -0.046651 0.047000
v -0.007645 -0.041542 0.045149
v 0.007645 -0.041542 0.045149
v 0.008790 0.005498 -0.031136
v 0.008790 0.005780 -0.042264
v -0.019009 0.036596 0.112912
v -0.019009 0.086080 0.112912
v 0.019009 0.086080 0.112912
v 0.019009 0.036596 0.112912
v -0.020815 0.092482 0.324128
v 0.020815 0.092482 0.324128
v 0.020815 -0.057412 0.324128
v -0.020815 -0.057412 0.324128
v 0.000000 0.095298 -0.450965
v 0.000000 0.098283 -0.200423
v 0.027339 0.086959 -0.200423
v 0.022230 0.086090 -0.450965
v 0.038663 0.059620 -0.200423
v 0.031438 0.063860 -0.450965
v 0.027339 0.032282 -0.200423
v 0.022230 0.041630 -0.450965
v 0.000000 0.020958 -0.200423
v 0.000000 0.032423 -0.450965
v -0.027339 0.032282 -0.200423
v -0.022230 0.041630 -0.450965
v -0.038663 0.059620 -0.200423
v -0.031438 0.063860 -0.450965
v -0.027339 0.086959 -0.200423
v -0.022230 0.086090 -0.450965
v 0.028076 0.093736 0.058422
vt 0.606204 0.470446
vt 0.393796 0.470446
vt 0.393796 0.470446
vt 0.606204 0.470446
vt 0.400674 0.959631
vt 0.400674 0.790368
vt 0.400674 0.790368
vt 0.400674 0.959631
vt 0.375000 0.074212
vt 0.375000 0.080278
vt 0.375000 0.080278
vt 0.375000 0.074023
vt 0.210744 0.601637
vt 0.289256 0.601637
vt 0.289256 0.601637
vt 0.210744 0.601637
vt 0.151678 0.505480
vt 0.348322 0.505480
vt 0.348322 0.574798
vt 0.151678 0.574798
vt 0.375000 0.744555
vt 0.375000 0.750000
vt 0.375000 0.750000
vt 0.375000 0.744316
vt 0.143418 0.503784
vt 0.356582 0.503784
vt 0.356582 0.576495
vt 0.143418 0.576495
vt 0.289256 0.648363
vt 0.210744 0.648363
vt 0.210744 0.648363
vt 0.289256 0.648363
vt 0.210744 0.648363
vt 0.289256 0.648363
vt 0.210744 0.601637
vt 0.289256 0.601637
vt 0.375000 0.744398
vt 0.375000 0.750048
vt 0.375000 0.750000
vt 0.375000 0.744525
vt 0.375000 0.074096
vt 0.375000 0.080335
vt 0.375000 0.080278
vt 0.375000 0.074196
vt 0.375000 0.750000
vt 0.375000 0.744344
vt 0.375000 0.080278
vt 0.375000 0.074080
vt 0.393796 0.279554
vt 0.393796 0.279554
vt 0.606204 0.279554
vt 0.606204 0.279554
vt 0.599326 0.959631
vt 0.599326 0.959631
vt 0.599326 0.790368
vt 0.599326 0.790368
vt 0.818902 0.318902
vt 0.750000 0.347442
vt 0.750000 0.353780
vt 0.823383 0.323383
vt 0.847442 0.250000
vt 0.853780 0.250000
vt 0.818902 0.181098
vt 0.823383 0.176616
vt 0.750000 0.152558
vt 0.750000 0.146220
vt 0.681098 0.181098
vt 0.676617 0.176617
vt 0.652558 0.250000
vt 0.646220 0.250000
vt 0.681098 0.318902
vt 0.676616 0.323383
vt 0.802525 0.302525
vt 0.750000 0.324282
vt 0.750000 0.331476
vt 0.807612 0.307612
vt 0.824282 0.250000
vt 0.831476 0.250000
vt 0.802525 0.197475
vt 0.807612 0.192388
vt 0.750000 0.175718
vt 0.750000 0.168524
vt 0.697475 0.197475
vt 0.692388 0.192388
vt 0.675718 0.250000
vt 0.668524 0.250000
vt 0.697475 0.302525
vt 0.692388 0.307612
vt 0.375000 0.000000
vt 0.375000 0.005656
vt 0.375000 0.005445
vt 0.375000 0.000000
vt 0.375000 0.000000
vt 0.375000 0.005475
vt 0.375000 -0.000073
vt 0.375000 0.005602
vt 0.375000 0.675782
vt 0.375000 0.675942
vt 0.375000 0.005739
vt 0.375000 0.000000
vt 0.375000 0.669722
vt 0.375000 0.669722
vt 0.375000 0.669684
vt 0.375000 0.675903
vt 0.375000 0.675803
vt 0.375000 0.669722
vt 0.375000 0.675920
vt 0.375000 0.669722
vt 0.375000 0.005575
vt 0.375000 0.074146
vt 0.375000 0.669722
vt 0.375000 0.675854
vt 0.375000 0.744425
vt 0.375000 0.000000
vt 0.375000 0.080278
vt 0.375000 0.750000
vt 0.681098 0.181098
vt 0.652558 0.250000
vt 0.652558 0.250000
vt 0.681098 0.181098
vt 0.750000 0.152558
vt 0.750000 0.152558
vt 0.818902 0.181098
vt 0.818902 0.181098
vt 0.847442 0.250000
vt 0.847442 0.250000
vt 0.692388 0.192388
vt 0.750000 0.168524
vt 0.750000 0.168524
vt 0.692388 0.192388
vt 0.692388 0.307612
vt 0.668524 0.250000
vt 0.668524 0.250000
vt 0.692388 0.307612
vt 0.818902 0.318902
vt 0.818902 0.318902
vt 0.831476 0.250000
vt 0.807612 0.307612
vt 0.807612 0.307612
vt 0.831476 0.250000
vt 0.750000 0.331476
vt 0.750000 0.347442
vt 0.807612 0.192388
vt 0.681098 0.318902
vt 0.681098 0.318902
vt 0.750000 0.347442
vt 0.750000 0.331476
vt 0.807612 0.192388
vt 0.375000 0.169722
vt 0.625000 0.169722
vt 0.625000 0.250000
vt 0.375000 0.250000
vt 0.625000 0.744425
vt 0.625000 0.750000
vt 0.875000 0.744425
vt 0.875000 0.750000
vt 0.625000 0.500000
vt 0.875000 0.500000
vt 0.875000 0.580278
vt 0.625000 0.580278
vt 0.875000 0.669722
vt 0.625000 0.669722
vt 0.375000 0.500000
vt 0.375000 0.500000
vt 0.375000 0.250000
vt 0.375000 0.580278
vt 0.625000 0.074146
vt 0.625000 0.080278
vt 0.125000 0.580278
vt 0.125000 0.580278
vt 0.375000 0.580278
vt 0.375000 0.169722
vt 0.125000 0.744425
vt 0.125000 0.750000
vt 0.125000 0.669722
vt 0.125000 0.669722
vt 0.375000 1.000000
vt 0.375000 1.000000
vt 0.125000 0.500000
vt 0.125000 0.669722
vt 0.375000 1.000000
vt 0.375000 1.000000
vt 0.125000 0.669722
vt 0.125000 0.669722
vt 0.375000 1.000000
vt 0.375000 0.080278
vt 0.375000 0.080278
vt 0.375000 0.080278
vt 0.375000 0.080278
vt 0.125000 0.669722
vt 0.375000 0.669722
vt 0.375000 0.669722
vt 0.125000 0.669722
vt 0.375000 0.669722
vt 0.375000 0.669722
vt 0.375000 0.080278
vt 0.375000 0.080278
vt 0.125000 0.669722
vt 0.375000 0.669722
vt 0.125000 0.669722
vt 0.375000 0.080278
vt 0.375000 0.080278
vt 0.375000 0.669722
vt 0.125000 0.669722
vt 0.125000 0.669722
vt 0.125000 0.669722
vt 0.375000 0.669722
vt 0.375000 0.669722
vt 0.125000 0.669722
vt 0.125000 0.669722
vt 0.400674 0.959631
vt 0.599326 0.959631
vt 0.625000 1.000000
vt 0.375000 1.000000
vt 0.599326 0.790368
vt 0.400674 0.790368
vt 0.599326 0.959631
vt 0.599326 0.790368
vt 0.400674 0.790368
vt 0.400674 0.959631
vt 1.000000 0.500000
vt 1.000000 1.000000
vt 0.875000 1.000000
vt 0.875000 0.500000
vt 0.750000 1.000000
vt 0.750000 0.500000
vt 0.625000 1.000000
vt 0.625000 0.500000
vt 0.500000 1.000000
vt 0.500000 0.500000
vt 0.375000 1.000000
vt 0.375000 0.500000
vt 0.250000 1.000000
vt 0.250000 0.500000
vt 0.419706 0.419706
vt 0.250000 0.490000
vt 0.080294 0.419706
vt 0.010000 0.250000
vt 0.080294 0.080294
vt 0.250000 0.010000
vt 0.419706 0.080294
vt 0.490000 0.250000
vt 0.125000 1.000000
vt 0.125000 0.500000
vt 0.000000 1.000000
vt 0.000000 0.500000
vt 0.750000 0.490000
vt 0.919706 0.419706
vt 0.990000 0.250000
vt 0.919706 0.080294
vt 0.750000 0.010000
vt 0.580294 0.080294
vt 0.510000 0.250000
vt 0.580294 0.419706
vt 0.125000 0.675854
vt 0.625000 0.000000
vt 0.625000 0.005575
vt 0.625000 0.675854
vt 0.875000 0.675854
vn 1.0000 0.0000 0.0000
vn 0.0000 -1.0000 -0.0000
vn -0.9992 -0.0082 0.0385
vn 0.0000 -0.2635 -0.9647
vn 0.0000 -0.9998 -0.0204
vn 0.9988 -0.0317 -0.0363
vn 0.0000 0.0485 -0.9988
vn 0.9999 -0.0139 -0.0002
vn -0.9999 -0.0139 -0.0002
vn 0.0000 -0.0306 0.9995
vn 0.0000 -0.3019 0.9534
vn -1.0000 0.0000 0.0000
vn 0.0000 0.2635 0.9647
vn 0.0000 -0.9789 -0.2042
vn 0.0000 0.3172 -0.9484
vn 0.9978 -0.0611 -0.0263
vn -0.9987 -0.0402 0.0298
vn 0.9970 -0.0647 -0.0431
vn -0.9983 -0.0340 0.0475
vn 0.0000 1.0000 0.0000
vn -1.0000 0.0000 -0.0010
vn -1.0000 -0.0000 -0.0001
vn 1.0000 0.0000 -0.0001
vn 1.0000 0.0000 -0.0010
vn 0.3826 0.9239 -0.0066
vn 0.9239 0.3826 -0.0066
vn 0.9239 -0.3826 -0.0066
vn 0.3827 -0.9239 -0.0066
vn -0.3827 -0.9239 -0.0066
vn -0.9239 -0.3826 -0.0066
vn -0.9239 0.3826 -0.0066
vn -0.3826 0.9239 -0.0066
vn -0.3827 -0.9238 -0.0085
vn -0.9239 -0.3827 -0.0085
vn -0.9238 0.3827 -0.0085
vn -0.3827 0.9238 -0.0085
vn 0.3827 0.9238 -0.0085
vn 0.9238 0.3827 -0.0085
vn 0.9239 -0.3827 -0.0085
vn 0.3827 -0.9238 -0.0085
vn 0.9960 -0.0678 -0.0587
vn -0.9976 -0.0281 0.0637
vn -0.9960 -0.0678 -0.0587
vn -0.9970 -0.0647 -0.0431
vn -0.9978 -0.0611 -0.0263
vn 1.0000 0.0042 -0.0008
vn -0.9988 -0.0317 -0.0363
vn 0.9992 -0.0082 0.0385
vn 0.9987 -0.0402 0.0298
vn 0.9983 -0.0340 0.0475
vn 0.9976 -0.0281 0.0637
vn -1.0000 0.0042 -0.0008
vn -0.9981 -0.0623 0.0001
vn -0.9981 -0.0610 0.0014
vn -0.9985 -0.0544 0.0054
vn -0.9982 -0.0600 -0.0046
vn 0.9986 -0.0525 0.0077
vn 0.9981 -0.0610 0.0014
vn 0.9985 -0.0544 0.0054
vn 0.9981 -0.0623 0.0001
vn 0.9982 -0.0600 -0.0046
vn -0.9982 -0.0600 -0.0063
vn -0.9986 -0.0525 0.0077
vn 0.9982 -0.0600 -0.0063
vn -0.7071 -0.7071 -0.0000
vn 0.7071 -0.7071 -0.0000
vn 0.7071 0.7071 0.0000
vn 0.0000 0.0000 -1.0000
vn -0.7071 0.7071 0.0000
vn -0.0000 -0.7784 -0.6277
vn 0.5504 -0.5504 -0.6277
vn 0.7784 -0.0000 -0.6277
vn -0.7198 -0.0000 0.6942
vn -0.5090 0.5090 0.6942
vn -0.7784 -0.0000 -0.6277
vn -0.5504 -0.5504 -0.6277
vn 0.5504 0.5504 -0.6277
vn -0.0000 0.7198 0.6942
vn 0.5090 0.5090 0.6942
vn 0.0000 -0.7198 0.6942
vn -0.5090 -0.5090 0.6942
vn 0.7198 -0.0000 0.6942
vn 0.0000 0.7784 -0.6277
vn -0.5504 0.5504 -0.6277
vn 0.5090 -0.5090 0.6942
vn 0.0000 0.0879 -0.9961
vn 0.0000 -0.1250 0.9922
vn 0.0000 -0.9847 0.1745
vn 0.0000 -0.9888 0.1494
vn 0.0000 -0.3407 -0.9402
vn 0.0000 0.2020 0.9794
vn 0.0001 -0.9989 -0.0462
vn -0.0001 -0.9989 -0.0462
vn -0.0001 -0.9989 -0.0461
vn 0.0001 -0.9989 -0.0461
vn 0.0001 -0.9989 -0.0460
vn -0.0001 -0.9989 -0.0460
vn 0.0000 0.2021 0.9794
vn 0.0000 0.1116 -0.9938
vn 0.9999 -0.0163 -0.0004
vn -0.9999 -0.0163 -0.0004
vn 0.0000 -0.9999 -0.0140
vn 0.0000 -0.9998 -0.0208
vn 0.0000 -1.0000 -0.0072
vn -0.9998 -0.0098 0.0151
vn 0.9998 -0.0098 0.0151
vn 0.0000 1.0000 0.0072
vn 0.0000 0.9997 0.0253
vn 0.0000 -0.0199 -0.9998
vn 0.0000 0.0199 0.9998
vn -0.0000 0.9997 0.0235
vn 0.0958 -0.3417 -0.9349
vn -0.0958 -0.3417 -0.9349
vn 0.0000 -0.9997 -0.0235
vn -0.4608 -0.3498 0.8157
vn -0.3775 -0.0599 0.9241
vn -0.4387 -0.0696 0.8959
vn -0.1923 -0.5116 0.8374
vn 0.3775 -0.0599 0.9241
vn 0.4608 -0.3498 0.8157
vn 0.1923 -0.5116 0.8374
vn 0.4387 -0.0696 0.8959
vn 0.0000 0.9989 -0.0461
vn 0.0000 -0.0000 1.0000
vn 0.9999 0.0000 -0.0130
vn 0.0000 -0.8276 -0.5613
vn -0.9999 0.0000 -0.0130
vn 0.3827 0.9238 -0.0110
vn 0.9237 0.3826 -0.0202
vn 0.9234 -0.3825 -0.0331
vn 0.3823 -0.9231 -0.0422
vn -0.3823 -0.9231 -0.0422
vn -0.9234 -0.3825 -0.0331
vn -0.9237 0.3826 -0.0202
vn -0.3827 0.9238 -0.0110
vn 0.9985 -0.0548 0.0070
vn 0.9985 -0.0548 0.0066
vn 0.9985 -0.0545 0.0079
vn 0.9984 -0.0555 0.0046
vn 0.9984 -0.0556 0.0040
vn 0.0000 -0.9846 0.1746
vn -0.9985 -0.0548 0.0066
vn -0.9985 -0.0548 0.0070
vn -0.9985 -0.0545 0.0079
vn -0.9984 -0.0556 0.0040
vn -0.9984 -0.0555 0.0046
vn 0.0000 0.2019 0.9794
usemtl Material.001
s 1
f 1/1/1 2/2/1 3/3/1 4/4/1
f 5/5/2 6/6/2 7/7/2 8/8/2
f 9/9/3 10/10/3 11/11/3 12/12/3
f 13/13/4 14/14/4 15/15/4 16/16/4
f 17/17/5 18/18/5 19/19/5 20/20/5
f 21/21/6 22/22/6 23/23/6 24/24/6
f 18/18/7 17/17/7 25/25/7 26/26/7
f 19/19/8 18/18/8 26/26/8 27/27/8
f 17/17/9 20/20/9 28/28/9 25/25/9
f 20/20/10 19/19/10 27/27/10 28/28/10
f 29/29/11 30/30/11 31/31/11 32/32/11
f 33/33/12 13/13/12 16/16/12 30/30/12
f 34/34/13 33/33/13 30/30/13 29/29/13
f 14/14/1 34/34/1 29/29/1 15/15/1
f 35/35/14 36/36/14 32/32/14 31/31/14
f 15/15/1 29/29/1 32/32/1 36/36/1
f 16/16/15 15/15/15 36/36/15 35/35/15
f 30/30/12 16/16/12 35/35/12 31/31/12
f 37/37/16 38/38/16 39/39/16 40/40/16
f 41/41/17 42/42/17 43/43/17 44/44/17
f 40/40/18 39/39/18 45/45/18 46/46/18
f 44/44/19 43/43/19 47/47/19 48/48/19
f 2/2/2 49/49/2 50/50/2 3/3/2
f 51/51/20 1/1/20 4/4/20 52/52/20
f 49/49/12 51/51/12 52/52/12 50/50/12
f 53/53/12 5/5/12 8/8/21 54/54/22
f 55/55/20 53/53/20 54/54/20 56/56/20
f 6/6/1 55/55/1 56/56/23 7/7/24
f 57/57/25 58/58/25 59/59/25 60/60/25
f 61/61/26 57/57/26 60/60/26 62/62/26
f 63/63/27 61/61/27 62/62/27 64/64/27
f 65/65/28 63/63/28 64/64/28 66/66/28
f 67/67/29 65/65/29 66/66/29 68/68/29
f 69/69/30 67/67/30 68/68/30 70/70/30
f 71/71/31 69/69/31 70/70/31 72/72/31
f 58/58/32 71/71/32 72/72/32 59/59/32
f 73/73/33 74/74/33 75/75/33 76/76/33
f 77/77/34 73/73/34 76/76/34 78/78/34
f 79/79/35 77/77/35 78/78/35 80/80/35
f 81/81/36 79/79/36 80/80/36 82/82/36
f 83/83/37 81/81/37 82/82/37 84/84/37
f 85/85/38 83/83/38 84/84/38 86/86/38
f 87/87/39 85/85/39 86/86/39 88/88/39
f 74/74/40 87/87/40 88/88/40 75/75/40
f 46/46/41 45/45/41 22/22/41 21/21/41
f 48/48/42 47/47/42 10/10/42 9/9/42
f 89/89/43 90/90/43 91/91/43 92/92/43
f 93/93/44 94/94/44 90/90/44 89/89/44
f 95/95/45 96/96/45 94/94/45 93/93/45
f 97/97/46 21/21/46 24/24/46 98/98/46
f 92/92/47 91/91/47 99/99/47 100/100/47
f 101/101/48 97/97/48 98/98/48 102/102/48
f 103/103/49 104/104/49 105/105/49 106/106/49
f 106/106/50 105/105/50 107/107/50 108/108/50
f 108/108/51 107/107/51 97/97/51 101/101/51
f 91/91/52 9/9/52 12/12/52 99/99/52
f 109/109/53 110/110/54 41/41/55 96/96/56
f 111/111/57 112/112/58 104/104/59 103/103/57
f 112/112/58 113/113/60 37/37/61 104/104/59
f 114/114/62 109/109/53 96/96/56 95/95/62
f 110/110/54 115/115/63 42/42/63 41/41/55
f 113/113/60 116/116/64 38/38/64 37/37/61
f 117/117/65 118/118/12 119/119/12 120/120/65
f 121/121/2 117/117/65 120/120/65 122/122/2
f 123/123/66 121/121/2 122/122/2 124/124/66
f 125/125/1 123/123/66 124/124/66 126/126/1
f 127/127/67 128/128/20 129/129/20 130/130/67
f 131/131/66 132/132/1 133/133/1 134/134/66
f 135/135/67 125/125/1 126/126/1 136/136/67
f 137/137/12 138/138/65 139/139/65 140/140/12
f 139/139/68 141/141/68 142/142/68 136/136/68
f 140/140/68 139/139/68 136/136/68 126/126/68
f 143/143/68 140/140/68 126/126/68 124/124/68
f 129/129/68 143/143/68 124/124/68 122/122/68
f 130/130/68 129/129/68 122/122/68 120/120/68
f 133/133/68 130/130/68 120/120/68 119/119/68
f 134/134/68 133/133/68 119/119/68 144/144/68
f 141/141/68 134/134/68 144/144/68 142/142/68
f 145/145/69 146/146/20 142/142/20 144/144/69
f 118/118/12 145/145/69 144/144/69 119/119/12
f 132/132/1 127/127/67 130/130/67 133/133/1
f 138/138/65 147/147/2 141/141/2 139/139/65
f 147/147/2 131/131/66 134/134/66 141/141/2
f 128/128/20 148/148/69 143/143/69 129/129/20
f 146/146/20 135/135/67 136/136/67 142/142/20
f 148/148/69 137/137/12 140/140/12 143/143/69
f 75/75/70 88/88/71 131/131/71 147/147/70
f 88/88/71 86/86/72 132/132/72 131/131/71
f 69/69/73 71/71/74 145/145/74 118/118/73
f 78/78/75 76/76/76 138/138/76 137/137/75
f 86/86/72 84/84/77 127/127/77 132/132/72
f 58/58/78 57/57/79 135/135/79 146/146/78
f 65/65/80 67/67/81 117/117/81 121/121/80
f 67/67/81 69/69/73 118/118/73 117/117/81
f 57/57/79 61/61/82 125/125/82 135/135/79
f 76/76/76 75/75/70 147/147/70 138/138/76
f 82/82/83 80/80/84 148/148/84 128/128/83
f 63/63/85 65/65/80 121/121/80 123/123/85
f 61/61/82 63/63/85 123/123/85 125/125/82
f 71/71/74 58/58/78 146/146/78 145/145/74
f 84/84/77 82/82/83 128/128/83 127/127/77
f 80/80/84 78/78/75 137/137/75 148/148/84
usemtl Material.002
f 149/149/12 150/150/12 151/151/12 152/152/12
f 113/113/1 153/153/1 154/154/1 116/116/1
f 153/153/20 155/155/20 156/156/20 154/154/20
f 157/157/20 151/158/20 150/159/20 158/160/20
f 158/160/20 150/159/20 159/161/20 160/162/20
f 152/152/86 161/163/86 162/164/86 163/165/86
f 161/163/1 157/157/1 158/160/1 164/166/1
f 164/166/1 158/160/1 160/162/1 111/111/1
f 110/110/12 165/167/12 159/168/12 115/115/12
f 115/115/12 159/168/12 150/150/12 149/149/12
f 164/166/87 149/169/87 166/170/87 167/171/87
f 161/163/1 164/166/1 167/171/1 162/164/1
f 149/149/12 152/152/12 163/165/12 166/172/12
f 99/173/88 24/24/88 23/23/89 100/174/89
f 10/175/90 101/101/90 102/102/90 11/176/90
f 22/22/91 92/177/91 100/178/91 23/23/91
f 26/26/92 25/25/93 163/179/94 162/164/95
f 27/27/95 26/26/92 162/164/95 167/171/96
f 25/25/93 28/28/94 166/170/97 163/179/94
f 28/28/94 27/27/95 167/171/96 166/170/97
f 13/13/2 33/33/2 115/180/2 149/169/2
f 34/34/2 14/14/2 164/166/2 111/111/2
f 14/14/2 13/13/2 149/169/2 164/166/2
f 33/33/2 34/34/2 111/111/2 115/180/2
f 38/38/91 95/181/91 93/182/98 39/39/98
f 42/183/90 103/103/90 106/106/90 43/184/90
f 39/39/98 93/182/98 89/185/98 45/45/98
f 168/186/12 169/187/12 170/188/12 171/189/12
f 168/190/99 172/191/99 173/192/99 174/193/99
f 175/194/100 176/195/100 173/192/100 172/191/100
f 177/196/101 169/187/101 168/186/101 174/197/101
f 176/195/102 177/198/102 174/193/103 173/192/103
f 178/199/104 179/200/104 177/198/102 176/195/102
f 179/201/105 180/202/105 169/187/105 177/196/105
f 181/203/106 178/199/106 176/195/106 175/194/106
f 180/204/107 181/203/107 175/194/107 169/205/107
f 170/206/108 182/207/108 183/208/108 171/209/108
f 172/191/109 168/190/109 171/209/109 183/208/109
f 175/194/1 172/191/1 183/208/1 182/207/1
f 169/205/110 175/194/110 182/207/110 170/206/110
f 43/184/111 106/106/111 181/203/111 180/204/111
f 106/106/112 108/108/112 178/199/112 181/203/112
f 47/47/113 43/43/113 180/202/113 179/201/113
f 108/108/114 47/210/114 179/200/114 178/199/114
f 51/51/68 49/49/68 152/152/68 151/151/68
f 49/49/68 2/2/68 161/163/68 152/152/68
f 1/1/68 51/51/68 151/151/68 157/157/68
f 2/2/68 1/1/68 157/157/68 161/163/68
f 50/50/68 52/52/68 4/4/68 3/3/68
f 184/211/115 185/212/116 156/213/117 114/214/118
f 186/215/119 187/216/120 116/116/121 154/154/122
f 187/216/120 184/211/115 114/214/118 116/116/121
f 185/212/116 186/215/119 154/154/122 156/213/117
f 56/56/123 54/54/123 188/217/123 189/218/123
f 190/219/124 189/218/124 188/217/124 191/220/124
f 7/7/24 56/56/23 189/218/125 190/219/125
f 8/8/126 7/7/126 190/219/126 191/220/126
f 54/54/22 8/8/21 191/220/127 188/217/127
f 192/221/128 193/222/128 194/223/128 195/224/128
f 195/224/129 194/223/129 196/225/129 197/226/129
f 197/226/130 196/225/130 198/227/130 199/228/130
f 199/228/131 198/227/131 200/229/131 201/230/131
f 201/230/132 200/229/132 202/231/132 203/232/132
f 203/232/133 202/231/133 204/233/133 205/234/133
f 194/235/124 193/236/124 206/237/124 204/238/124 202/239/124 200/240/124 198/241/124 196/242/124
f 205/234/134 204/233/134 206/243/134 207/244/134
f 207/244/135 206/243/135 193/245/135 192/246/135
f 74/74/68 73/73/68 77/77/68 79/79/68 81/81/68 83/83/68 85/85/68 87/87/68
f 60/60/68 59/59/68 192/247/68 195/248/68
f 62/62/68 60/60/68 195/248/68 197/249/68
f 64/64/68 62/62/68 197/249/68 199/250/68
f 66/66/68 64/64/68 199/250/68 201/251/68
f 68/68/68 66/66/68 201/251/68 203/252/68
f 70/70/68 68/68/68 203/252/68 205/253/68
f 72/72/68 70/70/68 205/253/68 207/254/68
f 59/59/68 72/72/68 207/254/68 192/247/68
f 187/216/1 186/215/1 55/55/1 6/6/1
f 186/215/20 185/212/20 53/53/20 55/55/20
f 185/212/12 184/211/12 5/5/12 53/53/12
f 184/211/2 187/216/2 6/6/2 5/5/2
f 45/45/98 89/185/98 92/177/91 22/22/91
f 47/210/90 108/108/90 101/101/90 10/175/90
f 107/107/136 46/46/137 21/21/138 97/97/138
f 105/105/139 40/40/140 46/46/137 107/107/136
f 104/104/59 37/37/61 40/40/140 105/105/139
f 12/255/141 98/98/141 24/24/88 99/173/88
f 114/114/12 156/256/12 155/257/12 109/109/12
f 208/258/20 165/259/20 155/155/20 153/153/20
f 112/112/1 208/258/1 153/153/1 113/113/1
f 111/111/1 160/162/1 208/258/1 112/112/1
f 160/162/20 159/161/20 165/259/20 208/258/20
f 11/176/89 102/102/89 98/98/141 12/255/141
f 90/90/142 48/48/143 9/9/144 91/91/144
f 94/94/145 44/44/146 48/48/143 90/90/142
f 96/96/56 41/41/55 44/44/146 94/94/145
f 109/109/12 155/257/12 165/167/12 110/110/12
f 115/180/90 111/111/90 103/103/90 42/183/90
f 116/116/147 114/214/147 95/181/91 38/38/91
